<svg width="439" height="651" viewBox="0 0 439 651" fill="none" xmlns="http://www.w3.org/2000/svg">
<path opacity="0.41" d="M381.662 376.607C381.662 385.997 380.932 395.221 379.519 404.216C375.007 433.037 363.536 459.548 346.881 481.985C339.887 491.416 331.967 500.128 323.266 507.985C291.882 536.335 250.296 553.593 204.676 553.593C167.084 553.593 132.228 541.875 103.568 521.881C84.0219 508.26 67.3612 490.795 54.6717 470.577C43.5453 452.864 35.4765 433.037 31.2006 411.836C28.8961 400.451 27.6892 388.67 27.6892 376.607C27.6892 372.285 27.8444 367.998 28.149 363.756C29.057 351.101 31.2983 338.814 34.7294 327.033C40.5741 306.958 49.8786 288.355 61.959 271.918C94.1712 228.074 146.102 199.62 204.676 199.62C292.497 199.62 365.375 263.585 379.272 347.463C380.846 356.94 381.662 366.681 381.662 376.607Z" fill="url(#paint0_linear_63_48)"/>
<g opacity="0.63">
<path opacity="0.63" d="M346.881 481.985C339.887 491.416 331.967 500.128 323.266 507.985C289.324 494.715 236.319 484.588 169.032 505.657C145.366 513.071 123.562 518.433 103.568 521.881C84.0219 508.26 67.3612 490.795 54.6716 470.577C78.8668 477.853 113.251 480.835 161.659 472.473C247.52 457.646 311.571 470.571 346.881 481.985Z" fill="url(#paint1_linear_63_48)"/>
<path opacity="0.63" d="M381.662 376.607C381.662 385.997 380.932 395.221 379.519 404.215C345.525 409.882 286.6 413.44 209.595 393.813C129.361 373.365 66.2462 394.193 31.2006 411.836C28.8961 400.451 27.6892 388.67 27.6892 376.607C27.6892 372.285 27.8444 367.998 28.149 363.756C62.9014 349.182 105.844 341.199 153.056 345.877C153.056 345.877 94.3552 317.647 34.7294 327.032C40.5741 306.958 49.8786 288.355 61.959 271.918C98.2861 274.981 149.205 286.01 194.843 320.067C253.911 364.147 337.013 355.739 379.272 347.463C380.846 356.94 381.662 366.681 381.662 376.607Z" fill="url(#paint2_linear_63_48)"/>
</g>
<path d="M380.087 400.279C350.392 406.88 307.523 408.941 261.782 408.563C304.891 396.054 346.957 381.984 381.392 366.902C381.233 363.952 381.009 361.02 380.706 358.111C333.535 377.793 271.725 394.32 212.559 407.339C127.474 403.956 45.0231 394.891 28.4514 393.001C28.7262 395.989 29.0745 398.955 29.4963 401.898C53.4257 404.363 115.594 410.347 183.483 413.503C122.28 426.038 67.2461 434.568 38.8776 438.669C41.5746 445.873 44.7334 452.85 48.3087 459.572C87.6289 451.794 162.489 436.076 237.906 415.311C292.11 416.279 344.512 414.441 379.114 406.676C379.254 405.858 379.39 405.038 379.519 404.216C379.724 402.909 379.911 401.596 380.087 400.279Z" fill="white"/>
<path d="M353.329 280.535C227.434 307.964 88.5925 353.055 27.7158 373.646C27.6996 374.631 27.6892 375.618 27.6892 376.607C27.6892 376.999 27.7013 377.388 27.7039 377.78C87.7373 358.221 229.612 313.835 357.677 287.607C356.281 285.214 354.832 282.856 353.329 280.535Z" fill="white"/>
<path d="M337.568 259.729C218.979 292.262 90.3094 340.945 28.0422 365.454C27.9516 366.91 27.874 368.369 27.8188 369.835C89.6076 346.304 221.89 297.869 343.088 266.307C341.302 264.068 339.459 261.877 337.568 259.729Z" fill="white"/>
<path opacity="0.4" d="M41.2297 514.569H94.0161V567.355H41.2297V514.569Z" fill="url(#paint3_linear_63_48)"/>
<g opacity="0.4">
<path opacity="0.4" d="M63.4028 499.465H30.9736V531.894H63.4028V499.465Z" fill="url(#paint4_linear_63_48)"/>
</g>
<g opacity="0.4">
<path opacity="0.4" d="M14.796 472.727H0.790771V486.732H14.796V472.727Z" fill="url(#paint5_linear_63_48)"/>
</g>
<path opacity="0.51" d="M347.972 405.313C337.395 405.313 328.827 413.886 328.827 424.458C328.827 435.034 337.395 443.603 347.972 443.603C358.543 443.603 367.116 435.034 367.116 424.458C367.116 413.886 358.543 405.313 347.972 405.313ZM347.972 437.331C340.861 437.331 335.099 431.568 335.099 424.458C335.099 417.352 340.861 411.586 347.972 411.586C355.082 411.586 360.844 417.352 360.844 424.458C360.844 431.568 355.082 437.331 347.972 437.331Z" fill="url(#paint6_linear_63_48)"/>
<path d="M347.971 408.76C347.971 410.25 349.019 411.542 350.481 411.831C356.389 412.998 360.844 418.211 360.844 424.459C360.844 430.71 356.389 435.919 350.481 437.087C349.019 437.375 347.971 438.667 347.971 440.157C347.971 442.117 349.753 443.622 351.676 443.245C360.476 441.52 367.116 433.767 367.116 424.459C367.116 415.154 360.476 407.398 351.677 405.672C349.753 405.295 347.971 406.8 347.971 408.76Z" fill="url(#paint7_linear_63_48)"/>
<path opacity="0.51" d="M420.269 486.655C428.116 486.655 434.478 480.293 434.478 472.446C434.478 464.599 428.116 458.237 420.269 458.237C412.421 458.237 406.06 464.599 406.06 472.446C406.06 480.293 412.421 486.655 420.269 486.655Z" fill="url(#paint8_linear_63_48)"/>
<path opacity="0.51" d="M430.784 454.543C434.864 454.543 438.172 451.235 438.172 447.154C438.172 443.073 434.864 439.765 430.784 439.765C426.703 439.765 423.395 443.073 423.395 447.154C423.395 451.235 426.703 454.543 430.784 454.543Z" fill="url(#paint9_linear_63_48)"/>
<path opacity="0.51" d="M405.207 452.554C411.171 452.554 416.006 447.719 416.006 441.755C416.006 435.791 411.171 430.956 405.207 430.956C399.243 430.956 394.408 435.791 394.408 441.755C394.408 447.719 399.243 452.554 405.207 452.554Z" fill="url(#paint10_linear_63_48)"/>
<path opacity="0.51" d="M96.693 314.49C100.892 314.49 104.296 311.086 104.296 306.887C104.296 302.688 100.892 299.284 96.693 299.284C92.4937 299.284 89.0896 302.688 89.0896 306.887C89.0896 311.086 92.4937 314.49 96.693 314.49Z" fill="white"/>
<path opacity="0.51" d="M107.292 291.279C109.476 291.279 111.246 289.509 111.246 287.325C111.246 285.142 109.476 283.372 107.292 283.372C105.109 283.372 103.339 285.142 103.339 287.325C103.339 289.509 105.109 291.279 107.292 291.279Z" fill="white"/>
<path opacity="0.51" d="M85.469 292.927C88.6604 292.927 91.2476 290.34 91.2476 287.149C91.2476 283.957 88.6604 281.37 85.469 281.37C82.2776 281.37 79.6904 283.957 79.6904 287.149C79.6904 290.34 82.2776 292.927 85.469 292.927Z" fill="white"/>
<path opacity="0.51" d="M383.348 497.123C366.902 497.123 353.578 510.453 353.578 526.892C353.578 543.337 366.902 556.661 383.348 556.661C399.786 556.661 413.117 543.337 413.117 526.892C413.117 510.453 399.786 497.123 383.348 497.123ZM383.348 546.908C372.291 546.908 363.332 537.948 363.332 526.892C363.332 515.843 372.291 506.876 383.348 506.876C394.404 506.876 403.364 515.843 403.364 526.892C403.364 537.948 394.404 546.908 383.348 546.908Z" fill="url(#paint11_linear_63_48)"/>
<path d="M407.758 526.89C405.441 526.89 403.433 528.519 402.984 530.793C401.169 539.98 393.068 546.906 383.348 546.906C374.89 546.906 367.663 541.663 364.733 534.25C363.827 531.975 363.332 529.489 363.332 526.89C363.332 517.175 370.258 509.07 379.446 507.255C381.719 506.805 383.348 504.797 383.348 502.48V502.479C383.348 499.432 380.577 497.092 377.586 497.678C363.9 500.361 353.578 512.422 353.578 526.89C353.578 536.293 357.929 544.671 364.733 550.127C369.832 554.213 376.299 556.66 383.348 556.66C397.816 556.66 409.877 546.338 412.56 532.652C413.146 529.661 410.806 526.89 407.759 526.89H407.758V526.89Z" fill="url(#paint12_linear_63_48)"/>
<path d="M291.598 611.034C287.304 611.821 284.349 611.167 283.201 610.819C282.853 610.711 282.669 610.635 282.669 610.635C282.669 610.635 283.392 604.433 283.087 602.594C281.832 595.053 278.071 572.427 278.071 572.427L293.608 570.943C293.608 570.943 294.064 574.405 294.68 578.971C295.802 587.26 297.464 599.175 297.939 600.539C298.681 602.651 301.427 606.139 301.725 606.456C302.023 606.773 297.825 609.899 291.598 611.034Z" fill="url(#paint13_linear_63_48)"/>
<path d="M288.008 609.626L283.201 610.819C282.853 610.711 282.669 610.635 282.669 610.635C282.669 610.635 283.392 604.433 283.087 602.594C281.832 595.053 278.071 572.427 278.071 572.427L293.608 570.943C293.608 570.943 294.064 574.405 294.68 578.971C291.166 580.607 286.163 583.138 285.155 584.685C283.569 587.114 288.008 609.626 288.008 609.626Z" fill="url(#paint14_linear_63_48)"/>
<path d="M290.649 607.092C294.743 606.617 298.153 598.636 300.584 598.636C303.015 598.636 310.942 610.368 320.137 617.344C329.332 624.32 338.422 626.328 341.698 628.548C344.975 630.767 346.032 643.662 346.032 643.662C346.032 643.662 327.853 645.036 309.356 644.613C290.86 644.19 279.34 642.393 279.34 642.393C279.34 642.393 276.274 629.474 276.803 621.665C277.331 613.856 277.12 604.238 279.34 603.287C281.559 602.336 283.356 607.937 290.649 607.092Z" fill="url(#paint15_linear_63_48)"/>
<path d="M346.032 634.387L339.981 635.418C339.981 635.418 338.475 639.381 337.207 640.174C335.938 640.967 323.519 641.125 317.918 640.174C312.316 639.223 306.186 634.678 305.129 635.312C304.072 635.946 306.08 638.694 305.129 639.434C304.178 640.174 294.665 639.011 288.641 638.06C282.616 637.109 277.632 633.304 276.742 633.515C275.852 633.727 276.882 643.662 277.358 644.375C277.834 645.089 300.056 646.41 315.064 646.727C330.072 647.044 347.195 645.564 347.829 645.141C348.463 644.719 346.032 634.387 346.032 634.387Z" fill="url(#paint16_linear_63_48)"/>
<path d="M296.462 558.684L285.967 561.392L274.977 564.233C274.977 564.233 273.93 557.778 270.461 549.806C265.515 538.436 258.526 523.241 257.778 517.464C256.51 507.635 259.681 501.293 257.778 497.805C255.876 494.317 229.875 415.669 229.875 415.669L272.998 399.828C272.998 399.828 273.778 405.079 274.919 412.739C277.5 429.995 281.927 459.509 283.462 468.951C285.681 482.586 294.242 549.489 296.462 558.684Z" fill="url(#paint17_linear_63_48)"/>
<path d="M285.967 561.392L274.977 564.233C274.977 564.233 273.93 557.778 270.461 549.806C265.515 538.436 258.526 523.241 257.778 517.464C256.51 507.635 259.681 501.293 257.778 497.805C255.876 494.317 229.875 415.669 229.875 415.669L272.998 399.828C272.998 399.828 273.778 405.079 274.919 412.739C267.024 422.835 253.802 440.224 254.398 442.577C255.242 445.912 263.644 449.926 264.278 451.829C264.912 453.731 263.961 461.975 265.071 471.012C266.181 480.049 268.559 493.683 269.352 496.378C270.144 499.074 275.852 500.818 274.9 502.879C273.949 504.94 271.096 504.305 270.778 508.427C270.461 512.549 276.378 548.012 284.413 558.792C285.085 559.693 285.592 560.562 285.967 561.392Z" fill="url(#paint18_linear_63_48)"/>
<path d="M299.721 573.682L291.408 574.976L276.093 577.36C274.894 577.557 273.74 576.834 273.391 575.674L269.618 557.416L279.517 555.641L297.939 552.343L301.675 570.835C301.947 572.167 301.059 573.454 299.721 573.682Z" fill="url(#paint19_linear_63_48)"/>
<path d="M291.408 574.976L276.093 577.36C274.894 577.557 273.74 576.834 273.391 575.674L269.618 557.416L279.517 555.641C280.139 558.608 281.699 565.559 283.252 568.831C285.256 573.061 291.661 574.932 291.408 574.976Z" fill="url(#paint20_linear_63_48)"/>
<path d="M221.473 420.121C221.473 420.121 201.338 478.039 197.533 494.317C193.728 510.596 181.47 553.611 179.777 564.233H155.045C155.045 564.233 156.757 552.66 156.738 548.43C156.719 544.333 155.178 512.702 157.689 501.401C159.617 492.688 167.728 485.23 168.787 478.673C169.567 473.809 174.9 437.478 177.595 419.087C178.528 412.714 179.143 408.497 179.143 408.497L221.473 420.121Z" fill="url(#paint21_linear_63_48)"/>
<path d="M221.473 420.121C221.473 420.121 201.338 478.039 197.533 494.317C193.728 510.596 181.47 553.611 179.777 564.233H169.123C179.847 545.849 186.505 498.097 190 486.365C193.887 473.34 204.367 435.889 204.367 435.889C204.367 435.889 198.432 433.597 190.954 429.396C185.47 426.314 180.411 421.918 177.595 419.087C178.528 412.714 179.143 408.497 179.143 408.497L221.473 420.121Z" fill="url(#paint22_linear_63_48)"/>
<path d="M174.862 610.051C176.086 615.499 168.736 615.993 162.642 615.125C158.45 614.535 154.848 613.298 155.045 612.588C155.52 610.844 155.837 608.942 156.789 603.71C157.74 598.478 157.264 574.221 157.264 574.221L175.813 576.599C175.813 576.599 175.363 580.208 174.932 585.161C174.247 593.062 173.594 604.401 174.862 610.051Z" fill="url(#paint23_linear_63_48)"/>
<path d="M175.813 576.599C175.813 576.599 175.363 580.208 174.932 585.161C172.579 585.376 169.174 585.852 167.011 586.905C164.202 588.281 163.016 607.179 162.642 615.125C158.45 614.535 154.848 613.298 155.045 612.588C155.52 610.844 155.837 608.942 156.789 603.71C157.74 598.478 157.264 574.221 157.264 574.221L175.813 576.599Z" fill="url(#paint24_linear_63_48)"/>
<path d="M183.899 560.428C183.899 560.428 183.264 580.005 182.871 580.721C182.573 581.248 177.684 581.996 171.691 582.028H171.685C169.579 582.034 167.341 581.958 165.115 581.755C156.554 580.956 150.212 577.868 150.13 576.999C150.047 576.124 151.557 556.623 151.874 556.306C152.083 556.097 155.374 557.067 159.908 558.012C162.312 558.513 165.064 559.008 167.886 559.319C177.601 560.39 183.899 560.428 183.899 560.428Z" fill="url(#paint25_linear_63_48)"/>
<path d="M171.685 582.028C169.579 582.034 167.341 581.958 165.115 581.755C156.554 580.956 150.212 577.868 150.13 576.999C150.047 576.124 151.557 556.623 151.874 556.306C152.083 556.097 155.374 557.067 159.908 558.012C160.327 563.885 162.306 578.876 171.685 582.028Z" fill="url(#paint26_linear_63_48)"/>
<path d="M163.683 610.804C170.529 610.263 173.383 603.447 175.813 603.509C178.243 603.57 183.671 614.557 192.229 621.683C200.786 628.808 209.69 631.024 212.763 633.3C215.837 635.576 215.719 648.342 215.719 648.342C215.719 648.342 197.421 649.237 178.969 648.349C160.517 647.461 149.164 645.392 149.164 645.392C149.164 645.392 147.276 632.551 148.515 624.85C149.754 617.148 150.419 607.641 152.724 606.758C155.029 605.874 156.31 611.388 163.683 610.804Z" fill="url(#paint27_linear_63_48)"/>
<path d="M216.564 639.179L210.421 640.043C210.421 640.043 208.554 643.921 207.214 644.671C205.874 645.422 193.445 645.263 187.932 644.181C182.418 643.099 176.704 638.453 175.589 639.052C174.475 639.652 176.232 642.418 175.214 643.125C174.196 643.831 164.792 642.441 158.857 641.348C152.921 640.255 148.284 636.369 147.375 636.555C146.466 636.741 146.592 646.583 147.003 647.3C147.413 648.017 169.508 649.887 184.482 650.582C199.457 651.277 216.708 650.251 217.381 649.849C218.053 649.448 216.564 639.179 216.564 639.179Z" fill="url(#paint28_linear_63_48)"/>
<path d="M139.476 33.7091C150.008 29.5297 190.078 86.4694 190.078 86.4694C190.078 86.4694 243.457 68.5757 247.594 76.354C251.731 84.1324 218.112 124.063 218.112 124.063C218.112 124.063 251.233 169.473 249.667 177.027C248.101 184.581 176.927 162.745 176.927 162.745C176.927 162.745 140.934 214.641 132.454 212.404C123.974 210.167 126.439 147.433 126.439 147.433C126.439 147.433 73.9139 135.532 72.0198 127.207C70.1256 118.882 129.108 103.748 129.108 103.748C129.108 103.748 130.987 37.0776 139.476 33.7091Z" fill="url(#paint29_linear_63_48)"/>
<path d="M233.524 167.26C232.241 173.429 174.167 155.611 174.167 155.611C174.167 155.611 144.8 197.956 137.878 196.129C130.963 194.302 132.974 143.114 132.974 143.114C132.974 143.114 119.752 140.12 107.73 136.29C98.108 133.227 89.2501 129.63 88.569 126.614C87.0209 119.819 137.271 105.972 137.271 105.972C137.271 105.972 136.684 53.0703 143.608 50.3215C152.202 46.9085 184.901 93.3677 184.901 93.3677C184.901 93.3677 208.394 85.4946 222.206 83.8289C227.199 83.2191 230.929 83.4291 231.828 85.1145C235.209 91.4606 207.774 124.044 207.774 124.044C207.774 124.044 234.801 161.097 233.524 167.26Z" fill="url(#paint30_linear_63_48)"/>
<path d="M233.524 167.26C232.241 173.429 174.167 155.611 174.167 155.611C174.167 155.611 144.8 197.956 137.878 196.129C130.963 194.302 132.974 143.114 132.974 143.114C132.974 143.114 119.752 140.12 107.729 136.29C123.796 137.803 141.263 137.925 156.563 134.572C153.714 137.139 152.319 139.876 153.054 142.165C154.524 146.747 163.963 147.823 174.131 144.56C184.306 141.298 191.366 134.937 189.896 130.355C188.934 127.359 184.57 125.868 178.823 126.099C197.6 115.515 212.374 98.0712 222.206 83.829C227.199 83.2192 230.929 83.4292 231.828 85.1146C235.208 91.4607 207.774 124.044 207.774 124.044C207.774 124.044 234.801 161.097 233.524 167.26Z" fill="url(#paint31_linear_63_48)"/>
<path d="M183.019 132.558C183.94 135.431 179.518 139.416 173.141 141.461C166.765 143.505 160.85 142.834 159.929 139.962C159.008 137.089 163.43 133.104 169.807 131.059C176.183 129.015 182.098 129.686 183.019 132.558Z" fill="url(#paint32_linear_63_48)"/>
<path d="M138.52 111.019C135.333 111.203 124.292 113.237 114.809 116.355C105.325 119.472 100.795 122.794 101.802 122.666C104.085 122.376 141.522 110.846 138.52 111.019Z" fill="url(#paint33_linear_63_48)"/>
<path d="M144.624 56.1241C144.049 57.3766 140.87 100.508 142.243 100.562C143.616 100.616 145.6 74.3557 146.317 66.8739C147.034 59.3921 144.959 55.3944 144.624 56.1241Z" fill="url(#paint34_linear_63_48)"/>
<path d="M203.845 91.453C204.777 91.9656 189.441 98.6614 187.894 97.6486C186.347 96.6359 202.292 90.5987 203.845 91.453Z" fill="url(#paint35_linear_63_48)"/>
<path d="M192.787 57.9274C192.787 57.9274 202.255 10.7903 210.735 13.0274C219.214 15.2646 192.787 57.9274 192.787 57.9274Z" fill="url(#paint36_linear_63_48)"/>
<path d="M235.56 116.181C235.56 116.181 268.049 121.098 267.611 116.087C267.173 111.077 235.56 116.181 235.56 116.181Z" fill="url(#paint37_linear_63_48)"/>
<path d="M115.882 93.0735C115.882 93.0735 96.6754 65.0288 93.4199 67.1222C90.1644 69.2155 115.882 93.0735 115.882 93.0735Z" fill="url(#paint38_linear_63_48)"/>
<path d="M109.112 160.397C109.112 160.397 86.7824 179.511 83.4342 175.889C80.0859 172.267 109.112 160.397 109.112 160.397Z" fill="url(#paint39_linear_63_48)"/>
<path d="M144.78 21.5419C144.78 21.5419 149.066 2.98824 145.589 0.947686C142.113 -1.09287 144.78 21.5419 144.78 21.5419Z" fill="url(#paint40_linear_63_48)"/>
<path d="M136.793 21.2281C136.793 21.2281 136.758 10.0089 134.063 9.95872C131.368 9.90854 136.793 21.2281 136.793 21.2281Z" fill="url(#paint41_linear_63_48)"/>
<path d="M260.149 4.09955C260.149 4.09955 263.036 8.76779 266.052 10.0791C269.198 11.4466 272.298 11.0601 272.298 11.0601C272.298 11.0601 269.037 13.4457 268.008 16.0295C267.057 18.4154 267.522 24.6938 267.522 24.6938C267.522 24.6938 264.151 19.9809 261.621 18.7687C259.092 17.5565 254.021 17.9693 254.021 17.9693C254.021 17.9693 258.397 15.2544 259.47 12.2704C260.542 9.2865 260.149 4.09955 260.149 4.09955Z" fill="url(#paint42_linear_63_48)"/>
<path d="M249.04 37.4393C249.04 37.4393 251.443 41.3242 253.953 42.4155C256.571 43.5536 259.151 43.232 259.151 43.232C259.151 43.232 256.437 45.2173 255.58 47.3675C254.789 49.3531 255.176 54.5781 255.176 54.5781C255.176 54.5781 252.37 50.6559 250.265 49.6471C248.16 48.6383 243.941 48.9819 243.941 48.9819C243.941 48.9819 247.582 46.7225 248.475 44.2392C249.367 41.7559 249.04 37.4393 249.04 37.4393Z" fill="url(#paint43_linear_63_48)"/>
<path d="M278.156 46.0086C278.156 46.0086 279.784 48.6407 281.485 49.3801C283.258 50.1511 285.006 49.9332 285.006 49.9332C285.006 49.9332 283.168 51.2783 282.587 52.7351C282.051 54.0803 282.313 57.6203 282.313 57.6203C282.313 57.6203 280.412 54.963 278.986 54.2795C277.56 53.596 274.701 53.8288 274.701 53.8288C274.701 53.8288 277.168 52.2981 277.773 50.6156C278.378 48.9332 278.156 46.0086 278.156 46.0086Z" fill="url(#paint44_linear_63_48)"/>
<path d="M32.4566 144.19C32.4566 144.19 29.5688 139.522 26.5528 138.211C23.4075 136.843 20.3071 137.23 20.3071 137.23C20.3071 137.23 23.5679 134.844 24.5975 132.26C25.5483 129.875 25.0832 123.596 25.0832 123.596C25.0832 123.596 28.4547 128.309 30.9841 129.521C33.5134 130.733 38.5838 130.321 38.5838 130.321C38.5838 130.321 34.2079 133.036 33.1356 136.019C32.0632 139.003 32.4566 144.19 32.4566 144.19Z" fill="url(#paint45_linear_63_48)"/>
<path d="M43.5656 110.851C43.5656 110.851 41.1623 106.966 38.6524 105.875C36.0348 104.736 33.4546 105.058 33.4546 105.058C33.4546 105.058 36.1682 103.073 37.0251 100.923C37.8163 98.937 37.4293 93.712 37.4293 93.712C37.4293 93.712 40.2351 97.6341 42.3401 98.643C44.445 99.6518 48.6647 99.3082 48.6647 99.3082C48.6647 99.3082 45.023 101.568 44.1306 104.051C43.2382 106.534 43.5656 110.851 43.5656 110.851Z" fill="url(#paint46_linear_63_48)"/>
<path d="M14.4496 102.281C14.4496 102.281 12.8214 99.6493 11.1209 98.9099C9.34746 98.1389 7.59937 98.3568 7.59937 98.3568C7.59937 98.3568 9.43788 97.0117 10.0184 95.5549C10.5545 94.2096 10.2922 90.6697 10.2922 90.6697C10.2922 90.6697 12.1932 93.327 13.6193 94.0105C15.0455 94.6939 17.9043 94.4612 17.9043 94.4612C17.9043 94.4612 15.4371 95.9919 14.8324 97.6744C14.2278 99.3568 14.4496 102.281 14.4496 102.281Z" fill="url(#paint47_linear_63_48)"/>
<path d="M26.9504 213.876C27.8186 214.971 28.7226 216.054 29.67 217.107C30.6963 218.267 31.7719 219.395 32.8866 220.482C38.0925 225.572 44.2411 229.708 50.4241 232.503C51.7775 233.112 53.1294 233.662 54.4755 234.139C63.3213 237.286 71.8461 237.494 77.3868 233.609C77.3966 233.598 78.2612 233.043 79.5952 231.455C81.0715 229.7 85.2154 224.041 85.2154 224.041L82.6918 221.818C82.5914 212.123 76.3152 199.206 65.7277 189.454C53.1562 177.87 36.2818 169.622 24.7253 170.821L21.2745 167.786C21.2745 167.786 16.8104 172.84 15.0201 176.057L15.0282 176.061C13.7639 178.345 13.3742 181.501 13.766 185.176C13.9354 186.8 14.258 188.531 14.7246 190.325C16.6257 197.689 20.9142 206.247 26.9504 213.876Z" fill="url(#paint48_linear_63_48)"/>
<path d="M50.4241 232.503C51.7775 233.112 53.1294 233.662 54.4755 234.139L61.5478 226.005L58.7044 223.27L50.4241 232.503Z" fill="url(#paint49_linear_63_48)"/>
<path d="M26.9504 213.876C27.8187 214.971 28.7226 216.054 29.67 217.107L39.7288 205.539L36.8833 202.798L26.9504 213.876Z" fill="url(#paint50_linear_63_48)"/>
<path d="M14.7247 190.325L23.8888 179.789L21.0454 177.054L13.7661 185.176C13.9355 186.8 14.2581 188.531 14.7247 190.325Z" fill="url(#paint51_linear_63_48)"/>
<path d="M21.274 167.784C13.3118 174.466 21.2692 198.539 37.4292 214.321C52.0048 228.556 73.9349 235.366 83.5183 226.154C91.8763 218.12 85.5788 197.402 70.2656 183.292C54.3185 168.599 31.4351 159.258 21.274 167.784Z" fill="url(#paint52_linear_63_48)"/>
<path d="M30.5889 176.377C24.9688 181.093 30.5855 198.084 41.9919 209.224C52.2798 219.272 67.7589 224.079 74.5233 217.576C80.4227 211.905 75.9777 197.282 65.1691 187.323C53.913 176.951 37.761 170.359 30.5889 176.377Z" fill="url(#paint53_linear_63_48)"/>
<path d="M29.5923 177.51C37.4226 173.727 51.9543 180.084 62.328 189.638C72.6834 199.178 77.195 212.996 72.3768 219.121C73.1626 218.702 73.8819 218.193 74.5223 217.577C80.4211 211.903 75.9776 197.285 65.1663 187.323C53.9092 176.95 37.7628 170.361 30.5907 176.373C30.2076 176.694 29.8743 177.078 29.5923 177.51Z" fill="url(#paint54_linear_63_48)"/>
<path d="M62.5075 210.887L59.9968 208.705C58.7491 209.949 57.1006 210.82 55.8042 211.01L53.7713 208.341C55.117 208.059 56.7336 207.373 57.8939 206.08C59.1129 204.723 59.1124 203.025 57.7878 201.836C56.5281 200.706 55.023 200.773 52.831 201.774C49.7742 203.182 47.1424 203.512 44.3875 201.206C41.7667 199.012 40.7752 195.843 42.0432 192.853L38.853 190.077L40.374 187.918L43.4174 190.622C44.6867 189.038 46.0061 188.342 47.1501 187.963L49.5179 191.33C48.704 191.631 47.1294 192.103 45.8287 193.811C44.5164 195.534 45.1659 197.1 46.204 197.995C47.4406 199.061 48.8007 198.814 51.4281 197.698C54.8628 196.13 57.4381 196.366 59.9652 198.707C62.3121 200.882 63.1322 204.056 61.4255 206.852L64.0986 209.223L62.5075 210.887Z" fill="white"/>
<path d="M343.588 139.158C343.158 140.488 342.69 141.819 342.171 143.137C341.615 144.582 341.002 146.016 340.338 147.424C337.242 154.014 332.929 160.039 328.115 164.821C327.06 165.865 325.986 166.853 324.892 167.771C317.706 173.814 309.793 176.991 303.243 175.29C303.23 175.284 302.226 175.066 300.421 174.045C298.424 172.918 292.562 169.066 292.562 169.066L294.148 166.101C290.85 156.984 292.211 142.687 298.717 129.847C306.441 114.597 319.363 100.966 330.609 98.0459L332.78 93.9961C332.78 93.9961 338.73 97.1685 341.533 99.5555L341.526 99.5619C343.51 101.26 344.979 104.079 345.898 107.659C346.308 109.241 346.611 110.975 346.801 112.819C347.597 120.383 346.574 129.9 343.588 139.158Z" fill="url(#paint55_linear_63_48)"/>
<path d="M328.115 164.82C327.06 165.865 325.986 166.853 324.892 167.771L315.421 162.625L317.128 159.069L328.115 164.82Z" fill="url(#paint56_linear_63_48)"/>
<path d="M343.588 139.158C343.158 140.488 342.69 141.819 342.171 143.137L328.701 135.819L330.408 132.256L343.588 139.158Z" fill="url(#paint57_linear_63_48)"/>
<path d="M346.801 112.819L334.53 106.154L336.237 102.598L345.898 107.659C346.307 109.24 346.611 110.975 346.801 112.819Z" fill="url(#paint58_linear_63_48)"/>
<path d="M332.78 93.9941C342.576 97.4674 343.544 122.803 333.927 143.242C325.253 161.677 307.092 175.729 294.891 170.452C284.25 165.85 282.901 144.238 292.31 125.662C302.109 106.318 320.278 89.5617 332.78 93.9941Z" fill="url(#paint59_linear_63_48)"/>
<path d="M327.059 105.303C333.974 107.754 334.657 125.637 327.869 140.063C321.747 153.075 308.928 162.994 300.316 159.269C292.806 156.021 291.853 140.767 298.495 127.655C305.411 114.001 318.235 102.174 327.059 105.303Z" fill="url(#paint60_linear_63_48)"/>
<path d="M306.335 148.072L307.659 145.02C306.096 144.206 304.769 142.896 304.197 141.717L306.13 138.975C306.804 140.173 307.945 141.507 309.527 142.224C311.189 142.978 312.808 142.465 313.542 140.844C314.24 139.303 313.723 137.888 312.108 136.099C309.844 133.609 308.737 131.199 310.105 127.877C311.407 124.717 314.131 122.816 317.363 123.125L319.05 119.246L321.566 120.046L319.905 123.763C321.798 124.496 322.86 125.544 323.566 126.521L321.069 129.793C320.536 129.108 319.612 127.748 317.591 127.023C315.553 126.291 314.256 127.382 313.715 128.641C313.071 130.142 313.716 131.364 315.571 133.533C318.102 136.336 318.653 138.863 317.182 141.978C315.816 144.871 313.037 146.609 309.856 145.824L308.4 149.088L306.335 148.072Z" fill="white"/>
<path d="M328.39 106.015C319.731 105.211 308.342 116.251 301.966 128.83C295.603 141.39 296.211 155.913 302.868 159.966C301.985 159.848 301.133 159.622 300.317 159.269C292.806 156.018 291.855 140.769 298.498 127.655C305.414 113.998 318.234 102.177 327.057 105.3C327.528 105.466 327.974 105.709 328.39 106.015Z" fill="url(#paint61_linear_63_48)"/>
<path d="M157.791 275.85C157.791 275.85 148.833 280.545 144.475 289.802C138.953 301.533 142.679 309.72 142.679 309.72C142.679 309.72 147.965 309.566 153.989 297.834C160.012 286.102 157.791 275.85 157.791 275.85Z" fill="url(#paint62_linear_63_48)"/>
<path d="M279.194 246.761C279.353 248.93 261.121 279.687 261.121 279.687L237.98 267.727L247.664 252.5L253.029 244.066C253.029 244.066 253.029 244.053 253.023 244.034C253.016 244.015 253.01 243.984 253.004 243.946L241.938 200.417C241.938 200.417 237.498 195.819 237.422 192.332C237.34 188.844 241.069 184.563 240.511 182.819C239.959 181.075 235.013 173.097 234.537 171.62C234.271 170.795 234.613 169.946 235.095 169.337C235.475 168.849 235.957 168.525 236.281 168.5C236.788 168.462 237.904 169.432 238.564 170.054C238.817 170.295 241.291 173.009 242.096 173.89C242.007 173.789 241.893 173.656 241.766 173.51C241.766 173.51 241.697 173.427 241.57 173.288C240.625 172.203 239.122 170.466 238.894 170.092C238.684 169.749 238.608 169.14 238.608 168.5C238.608 168.05 238.824 167.587 239.116 167.219C239.122 167.213 239.122 167.213 239.122 167.213C239.559 166.654 240.181 166.299 240.511 166.49C240.955 166.75 243.225 168.639 244.094 169.375C244.195 169.464 245.299 170.485 246.377 171.48C246.947 172.019 247.347 172.387 247.347 172.387C247.62 172.647 247.873 172.876 248.063 173.059C247.911 172.907 247.734 172.736 247.531 172.539L247.524 172.533C246.275 171.341 244.297 169.432 244.208 169.254C244.005 168.855 243.662 168.214 243.739 167.599C243.808 166.978 244.03 166.521 244.271 166.198C244.62 165.722 245.001 165.532 245.001 165.532L249.306 168.709L249.471 168.83C249.471 168.83 249.313 167.84 249.509 166.927C249.547 166.756 249.624 166.604 249.719 166.471C249.719 166.464 249.719 166.464 249.719 166.464C250.124 165.913 250.898 165.729 250.898 165.729C250.898 165.729 261.679 177.036 261.996 179.965C262.313 182.902 254.304 195.502 254.304 196.377C254.304 197.094 271.198 229.557 277.152 242.03V242.037C278.402 244.65 279.163 246.387 279.194 246.761Z" fill="url(#paint63_linear_63_48)"/>
<path d="M249.306 168.709L249.471 168.829C249.471 168.829 249.313 167.84 249.509 166.927C249.547 166.756 249.623 166.604 249.719 166.47C249.706 166.572 249.604 167.726 251.006 169.311C252.382 170.871 255.325 173.548 255.686 173.877L249.306 168.709Z" fill="url(#paint64_linear_63_48)"/>
<path d="M252.572 176.693L247.531 172.539L247.525 172.533C246.275 171.341 244.297 169.432 244.208 169.254C244.005 168.855 243.663 168.214 243.739 167.599C243.808 166.978 244.03 166.521 244.271 166.198C244.271 166.198 244.271 167.491 244.798 168.627C245.305 169.724 252.141 176.281 252.572 176.693Z" fill="url(#paint65_linear_63_48)"/>
<path d="M246.744 178.488L241.766 173.51C241.766 173.51 241.696 173.427 241.57 173.288C240.625 172.203 239.122 170.466 238.894 170.092C238.684 169.749 238.608 169.14 238.608 168.5C238.608 168.05 238.824 167.587 239.115 167.219C239.084 167.301 238.773 168.069 239.75 169.87C240.752 171.715 246.396 178.088 246.744 178.488Z" fill="url(#paint66_linear_63_48)"/>
<path d="M253.023 244.034L241.938 200.417C241.938 200.417 237.498 195.819 237.422 192.331C237.34 188.844 241.069 184.563 240.511 182.819C239.959 181.075 235.013 173.097 234.537 171.62C234.271 170.795 234.613 169.946 235.095 169.337C235.095 169.438 235.082 170.631 235.945 172.286C236.845 174.017 241.468 181.253 241.931 182.737C242.394 184.214 239.591 188.412 239.832 191.824C240.067 195.236 241.969 198.007 243.003 198.324C243.967 198.622 245.362 198.362 245.527 198.331C245.368 198.375 244.119 198.781 243.821 200.068C243.51 201.425 252.737 242.766 253.023 244.034Z" fill="url(#paint67_linear_63_48)"/>
<path d="M279.194 246.761C279.352 248.93 261.12 279.687 261.12 279.687L237.98 267.726L247.663 252.5C250.435 252.678 254.392 253.223 257.569 254.815C263.061 257.567 264.646 258.937 264.963 258.937C265.28 258.937 275.592 247.7 277.152 242.037C278.401 244.649 279.162 246.387 279.194 246.761Z" fill="url(#paint68_linear_63_48)"/>
<path d="M160.753 295.509C158.007 302.592 153.993 306.397 153.993 306.397C145.114 302.168 125.24 287.791 125.449 285.255C125.519 284.449 126.191 278.317 127.079 270.314C128.994 253.077 131.899 227.178 131.899 227.178C131.899 227.178 119.108 213.81 119.108 209.688C119.108 205.566 122.431 190.746 122.9 188.894C123.192 187.747 124.485 186.7 125.639 186.732C125.639 186.732 125.646 186.732 125.652 186.738C126.844 186.77 127.884 187.968 127.51 191.399C127.333 193.061 127.206 194.545 127.117 195.832V195.864C126.851 199.802 126.946 201.933 126.946 201.933C126.946 201.933 126.882 197.836 127.244 194.836C127.257 194.691 127.282 194.545 127.301 194.399C127.314 194.31 127.326 194.221 127.339 194.132C127.821 191.089 129.457 186.25 131.816 187.043C131.816 187.043 131.816 187.043 131.823 187.049C134.251 187.867 133.96 192.94 133.725 198.521C133.509 203.518 134.15 206.492 134.296 207.063C134.302 207.107 134.308 207.133 134.308 207.133C134.27 206.784 133.852 203.264 134.042 198.603C134.239 193.689 135.583 188.26 137.644 188.729C137.879 188.787 138.094 188.894 138.291 189.059C139.788 190.289 140.086 194.411 140.219 197.811C140.358 201.121 140.79 205.382 140.91 206.492C140.916 206.511 140.916 206.53 140.916 206.543C140.916 206.505 140.916 206.467 140.91 206.422C140.904 206.384 140.904 206.346 140.904 206.302C140.834 204.691 140.637 199.288 140.656 196.542C140.688 191.26 142.388 190.366 143.865 191.114C143.865 191.114 143.872 191.12 143.878 191.127C144.093 191.228 144.303 191.374 144.506 191.545C146.129 192.921 146.548 201.952 147.15 206.524C147.15 206.549 147.156 206.581 147.163 206.606C147.245 207.253 147.334 207.811 147.435 208.236C147.442 208.274 147.455 208.312 147.467 208.357C147.474 208.382 147.474 208.401 147.48 208.42C147.486 208.433 147.486 208.445 147.486 208.458C147.493 208.471 147.493 208.477 147.493 208.483C147.493 208.49 147.493 208.49 147.499 208.49C147.499 208.496 147.499 208.496 147.505 208.496C147.594 208.87 147.702 209.257 147.822 209.65C147.822 209.657 147.829 209.657 147.829 209.663C148.799 212.815 150.505 216.499 150.53 218.972C150.568 223.374 145.007 228.396 145.007 228.396L149.401 272.958C149.408 273.034 149.414 273.072 149.414 273.072L155.166 276.82L161.704 281.082C161.704 281.082 163.499 288.425 160.753 295.509Z" fill="url(#paint69_linear_63_48)"/>
<path d="M160.752 295.509C158.006 302.592 153.992 306.397 153.992 306.397C145.114 302.168 125.239 287.791 125.448 285.255C125.518 284.449 126.19 278.317 127.078 270.314C127.078 270.314 127.351 281.24 129.786 284.094C132.215 286.948 145.215 294.983 146.376 294.767C147.542 294.558 149.337 293.08 151.347 289.167C153.351 285.255 155.165 276.82 155.165 276.82L161.703 281.082C161.703 281.082 163.498 288.425 160.752 295.509Z" fill="url(#paint70_linear_63_48)"/>
<path d="M140.922 206.645L140.694 209.948C140.694 209.948 139.388 203.1 139.235 197.582C139.077 191.9 138.291 189.059 138.291 189.059C139.787 190.29 140.085 194.412 140.218 197.811C140.358 201.121 140.789 205.383 140.91 206.492C140.916 206.511 140.916 206.53 140.916 206.543C140.922 206.613 140.922 206.645 140.922 206.645Z" fill="url(#paint71_linear_63_48)"/>
<path d="M134.321 209.663C134.321 209.466 133.173 206.169 132.977 203.201C132.774 200.227 133.053 196.79 132.736 192.192C132.438 187.88 131.892 187.125 131.823 187.049C134.251 187.867 133.96 192.94 133.725 198.521C133.509 203.518 134.15 206.492 134.296 207.063C134.302 207.107 134.308 207.133 134.308 207.133L134.321 209.663Z" fill="url(#paint72_linear_63_48)"/>
<path d="M127.51 191.399C127.333 193.061 127.206 194.545 127.117 195.832V195.864C126.534 201.058 126.686 207.203 126.686 207.203C126.686 207.203 126.394 204.786 126.153 201.14C125.918 197.494 126.787 192.217 126.673 189.643C126.559 187.227 125.754 186.783 125.652 186.738C126.844 186.77 127.884 187.969 127.51 191.399Z" fill="url(#paint73_linear_63_48)"/>
<path d="M144.505 191.545C146.129 192.921 146.548 201.952 147.15 206.524C146.624 203.461 145.672 197.678 145.368 195.312C144.968 192.294 143.998 191.247 143.878 191.127C144.093 191.228 144.303 191.374 144.505 191.545Z" fill="url(#paint74_linear_63_48)"/>
<path d="M147.499 208.491C147.493 208.491 147.493 208.491 147.493 208.484C147.493 208.472 147.486 208.452 147.48 208.42C147.486 208.439 147.493 208.465 147.499 208.491Z" fill="url(#paint75_linear_63_48)"/>
<path d="M145.007 228.396L149.401 272.958C149.097 270.587 144.214 232.683 143.757 231.3C143.275 229.874 140.694 228.13 140.694 228.13C140.694 228.13 142.324 228.047 143.44 227.375C144.544 226.696 147.123 223.331 148.074 220.242C148.892 217.585 148.634 212.878 147.829 209.663C148.799 212.815 150.505 216.499 150.53 218.972C150.568 223.374 145.007 228.396 145.007 228.396Z" fill="url(#paint76_linear_63_48)"/>
<path d="M279.13 398.445C279.13 398.445 258.413 426.253 230.3 427.097C218.847 427.439 207.75 425.017 198.611 422.017C185.313 417.654 176.181 412.086 176.181 412.086C176.181 412.086 186.962 368.12 186.328 363.472C185.694 358.817 177.24 322.886 177.24 322.886L150.289 312.619L142.679 309.72C142.679 309.72 148.145 306.049 152.229 299.891C153.161 298.483 154.017 296.948 154.728 295.3C158.533 286.421 157.791 275.85 157.791 275.85C157.791 275.85 160.695 277.137 165.267 278.824C177.044 283.181 199.861 290.214 212.328 284.728C220.097 281.31 233.725 267.701 240.46 260.668C242.92 258.094 244.461 256.4 244.461 256.4C244.461 256.4 251.754 255.081 258.254 260.313C260.34 261.987 262.217 264.124 263.797 266.249C267.145 270.751 269.193 275.216 269.193 275.216L266.428 281.855L258.723 300.341L258.095 301.851C258.095 301.851 258.095 301.851 258.102 301.857C258.203 302.168 261.602 312.219 262.642 333.032C263.695 354.169 263.911 358.817 266.022 363.681C268.134 368.545 279.13 398.445 279.13 398.445Z" fill="url(#paint77_linear_63_48)"/>
<path d="M198.009 365.108C198.326 365.901 202.182 369.071 201.865 371.291C201.548 373.51 189.226 404.889 198.611 422.017C185.313 417.654 176.181 412.086 176.181 412.086C176.181 412.086 186.962 368.12 186.328 363.472C185.694 358.817 177.24 322.886 177.24 322.886L150.289 312.619L142.679 309.72C142.679 309.72 148.145 306.049 152.229 299.891C163.771 305.82 179.726 313.487 187.07 314.534C187.07 314.534 191.35 332.449 195.155 342.912C198.96 353.376 206.253 358.608 205.143 359.559C204.033 360.51 197.692 364.315 198.009 365.108Z" fill="url(#paint78_linear_63_48)"/>
<path d="M222.374 280.816C222.374 281.19 221.473 296.035 220.63 296.568C219.78 297.094 201.073 288.584 201.13 287.848C201.18 287.106 204.827 285.362 204.827 285.362L201.466 271.145L199.684 263.592L210.071 262.108L215.36 276.11L217.237 281.082C217.237 281.082 222.374 280.448 222.374 280.816Z" fill="url(#paint79_linear_63_48)"/>
<path d="M215.36 276.11C208.15 276.326 203.704 273.301 201.466 271.145L199.684 263.592L210.071 262.108L215.36 276.11Z" fill="url(#paint80_linear_63_48)"/>
<path d="M217.827 240.413C217.986 243.191 216.794 248.657 216.794 248.657L185.377 259.679C185.377 259.679 174.705 256.718 171.007 251.961C167.304 247.205 173.011 240.864 173.011 240.864C173.011 240.864 168.655 239.57 167.101 235.175C166.721 234.097 166.505 232.829 166.568 231.351C166.885 223.849 191.193 212.434 191.935 209.898C192.67 207.361 180.412 197.532 180.729 196.156C181.046 194.786 196.583 194.152 204.719 197.741C212.862 201.337 215.183 208.205 215.183 208.205C215.183 208.205 215.709 202.484 215.189 200.563C215.183 200.55 215.183 200.544 215.183 200.544C214.657 198.641 220.364 204.615 220.89 215.18C221.423 225.752 215.291 232.017 215.291 232.017C215.291 232.017 217.669 237.642 217.827 240.413Z" fill="url(#paint81_linear_63_48)"/>
<path d="M217.828 240.413C217.986 243.191 216.794 248.657 216.794 248.657L185.378 259.679C185.378 259.679 174.705 256.718 171.008 251.961C167.304 247.205 173.012 240.864 173.012 240.864C173.012 240.864 168.655 239.57 167.101 235.175C169.429 235.258 178.859 235.48 187.483 234.104C197.11 232.569 203.362 226.272 203.743 225.879C203.743 225.879 202.879 227.314 202.315 228.249C201.384 229.794 200.358 230.746 200.358 230.746C200.358 230.746 213.801 226.912 216.654 218.668C219.438 210.621 215.38 201.007 215.19 200.563C215.183 200.55 215.183 200.544 215.183 200.544C214.657 198.641 220.364 204.615 220.891 215.18C221.423 225.752 215.291 232.017 215.291 232.017C215.291 232.017 217.669 237.642 217.828 240.413Z" fill="url(#paint82_linear_63_48)"/>
<path d="M222.691 263.484C222.831 266.243 218.29 268.995 213.376 270.39C213.369 270.396 213.369 270.396 213.369 270.396C211.499 270.923 209.583 271.259 207.839 271.322C207.839 271.322 207.833 271.322 207.827 271.322C207.3 271.341 206.793 271.335 206.305 271.303C199.963 270.885 195.391 264.829 195.391 264.829C195.391 264.829 191.903 269.192 186.513 267.765C181.122 266.338 177.558 260.472 179.061 256.667C180.571 252.862 188.815 257.46 189.766 257.46C190.717 257.46 189.842 254.213 189.607 253.097C189.366 251.993 191.269 250.725 190.793 249.374C190.318 248.023 187.94 242.633 187.94 241.606C187.94 240.578 194.744 239.729 200.071 238.276C207.668 236.209 211.112 233.685 211.315 233.533C211.321 233.526 211.327 233.52 211.327 233.52C211.327 233.52 212.431 236.088 213.959 239.735C213.965 239.76 213.978 239.792 213.991 239.824C217.307 247.751 222.546 260.675 222.691 263.484Z" fill="url(#paint83_linear_63_48)"/>
<path d="M222.692 263.484C222.831 266.243 218.29 268.995 213.376 270.39C213.661 270.263 221.436 266.649 220.922 262.108C220.44 257.77 214.701 241.802 213.991 239.824C217.308 247.751 222.546 260.675 222.692 263.484Z" fill="url(#paint84_linear_63_48)"/>
<path d="M190.127 242.715C189.569 242.95 193.983 259.204 198.714 265.266C201.821 269.249 205.595 270.751 207.827 271.322C207.3 271.341 206.793 271.335 206.305 271.303C199.963 270.885 195.391 264.828 195.391 264.828C195.391 264.828 191.903 269.191 186.513 267.765C181.122 266.338 177.558 260.472 179.061 256.667C180.571 252.862 188.815 257.46 189.766 257.46C190.717 257.46 189.842 254.213 189.607 253.097C189.366 251.993 191.269 250.725 190.793 249.374C190.318 248.023 187.94 242.633 187.94 241.606C187.94 240.578 194.744 239.729 200.071 238.276C207.668 236.209 211.112 233.685 211.315 233.533C211.086 233.748 207.357 237.217 202.855 239.145C198.213 241.13 190.685 242.474 190.127 242.715Z" fill="url(#paint85_linear_63_48)"/>
<path d="M206.199 240.302C205.566 241.045 208.862 249.956 211.882 249.269C214.901 248.583 214.524 239.908 213.044 239.285C211.565 238.661 206.199 240.302 206.199 240.302Z" fill="url(#paint86_linear_63_48)"/>
<path d="M200.245 242.715C201.208 242.874 204.449 251.805 201.701 253.232C198.953 254.659 193.636 247.794 194.363 246.362C195.089 244.93 200.245 242.715 200.245 242.715Z" fill="url(#paint87_linear_63_48)"/>
<path d="M199.515 247.789C201.537 247.036 202.765 251.756 201.259 252.428C199.753 253.1 197.494 248.542 199.515 247.789Z" fill="url(#paint88_linear_63_48)"/>
<path d="M199.772 242.035C200.062 242.061 200.506 243.151 200.308 243.508C200.11 243.865 199 244.063 197.415 244.816C195.829 245.569 194.719 246.6 194.363 246.362C194.006 246.124 195.287 244.433 196.82 243.376C198.353 242.319 199.465 242.007 199.772 242.035Z" fill="url(#paint89_linear_63_48)"/>
<path d="M210.181 243.941C208.144 244.652 210.212 249.069 211.8 248.625C213.389 248.18 212.217 243.23 210.181 243.941Z" fill="url(#paint90_linear_63_48)"/>
<path d="M206.31 239.676C206.103 239.882 206.457 241.004 206.838 241.152C207.218 241.3 208.199 240.744 209.9 240.312C211.601 239.879 213.113 239.964 213.235 239.553C213.358 239.142 211.292 238.659 209.438 238.824C207.583 238.989 206.528 239.458 206.31 239.676Z" fill="url(#paint91_linear_63_48)"/>
<path d="M206.249 247.708C206.249 247.708 207.205 249.253 208.737 250.101C210.269 250.95 211.749 251.118 211.96 251.382C212.172 251.646 211.269 254.764 209.104 255.769C209.104 255.769 210.798 252.971 210.666 252.428C210.534 251.884 209.45 251.594 208.261 250.907C207.072 250.22 206.249 247.708 206.249 247.708Z" fill="url(#paint92_linear_63_48)"/>
<path d="M209.333 259.415C212.54 258.252 213.936 257.129 214.359 257.499C214.781 257.869 214.721 263.708 211.023 264.628C206.24 265.817 202.607 261.64 202.871 260.897C203.135 260.155 207.381 260.122 209.333 259.415Z" fill="white"/>
<path d="M150.289 312.619L142.679 309.72C142.679 309.72 150.923 304.178 154.728 295.3C158.533 286.421 157.791 275.85 157.791 275.85C157.791 275.85 160.695 277.137 165.267 278.824C165.464 283.682 165.21 302.44 150.289 312.619Z" fill="url(#paint93_linear_63_48)"/>
<path d="M269.193 275.216L266.428 281.855C258.85 265.818 246.059 261.708 240.459 260.668C242.92 258.094 244.461 256.4 244.461 256.4C244.461 256.4 251.754 255.081 258.254 260.313C264.754 265.545 269.193 275.216 269.193 275.216Z" fill="url(#paint94_linear_63_48)"/>
<path d="M269.193 275.216L266.428 281.855L258.723 300.341L258.095 301.851C256.719 297.678 251.196 289.935 251.196 289.935C257.106 281.779 261.57 271.766 263.796 266.249C267.145 270.751 269.193 275.216 269.193 275.216Z" fill="url(#paint95_linear_63_48)"/>
<path d="M193.57 295.509C193.57 295.509 194.257 316.546 177.24 322.886L175.933 322.388C175.933 322.388 185.046 317.588 188.893 310.412C192.739 303.236 193.57 295.509 193.57 295.509Z" fill="url(#paint96_linear_63_48)"/>
<path d="M258.723 300.341L258.095 301.851C255.286 294.83 244.029 282.889 243.674 282.515C243.991 282.788 254.189 291.52 258.723 300.341Z" fill="url(#paint97_linear_63_48)"/>
<path d="M227.814 420.438C242.321 420.042 265.071 405.218 265.071 405.218C265.071 405.218 248.316 419.866 229.875 422.016C209.424 424.402 185.167 409.499 185.167 409.499C185.167 409.499 206.144 421.03 227.814 420.438Z" fill="url(#paint98_linear_63_48)"/>
<defs>
<linearGradient id="paint0_linear_63_48" x1="204.676" y1="572.029" x2="204.676" y2="236.436" gradientUnits="userSpaceOnUse">
<stop stop-color="#EAF2F7" stop-opacity="0"/>
<stop offset="1" stop-color="#A9CFCE"/>
</linearGradient>
<linearGradient id="paint1_linear_63_48" x1="200.776" y1="572.029" x2="200.776" y2="236.436" gradientUnits="userSpaceOnUse">
<stop stop-color="#EAF2F7" stop-opacity="0"/>
<stop offset="1" stop-color="#DAE4F5"/>
</linearGradient>
<linearGradient id="paint2_linear_63_48" x1="204.676" y1="572.029" x2="204.676" y2="236.436" gradientUnits="userSpaceOnUse">
<stop stop-color="#EAF2F7" stop-opacity="0"/>
<stop offset="1" stop-color="#DAE4F5"/>
</linearGradient>
<linearGradient id="paint3_linear_63_48" x1="67.6229" y1="419.436" x2="67.6229" y2="561.491" gradientUnits="userSpaceOnUse">
<stop stop-color="#E6E7D3"/>
<stop offset="1" stop-color="#9CA870"/>
</linearGradient>
<linearGradient id="paint4_linear_63_48" x1="47.1882" y1="495.943" x2="47.1882" y2="526.637" gradientUnits="userSpaceOnUse">
<stop offset="0.0391061" stop-color="#CCDADA"/>
<stop offset="1" stop-color="#7EC8AB"/>
</linearGradient>
<linearGradient id="paint5_linear_63_48" x1="7.7934" y1="471.206" x2="7.7934" y2="484.462" gradientUnits="userSpaceOnUse">
<stop offset="0.0391061" stop-color="#CCDADA"/>
<stop offset="1" stop-color="#7EC8AB"/>
</linearGradient>
<linearGradient id="paint6_linear_63_48" x1="369.705" y1="364.164" x2="348.322" y2="423.485" gradientUnits="userSpaceOnUse">
<stop stop-color="#EAF2F7" stop-opacity="0"/>
<stop offset="1" stop-color="#A9CFCE"/>
</linearGradient>
<linearGradient id="paint7_linear_63_48" x1="348.873" y1="399.618" x2="368.119" y2="469.771" gradientUnits="userSpaceOnUse">
<stop offset="0.0391061" stop-color="#CCDADA"/>
<stop offset="1" stop-color="#7EC8AB"/>
</linearGradient>
<linearGradient id="paint8_linear_63_48" x1="420.269" y1="389.662" x2="420.269" y2="462.212" gradientUnits="userSpaceOnUse">
<stop stop-color="#EAF2F7" stop-opacity="0"/>
<stop offset="1" stop-color="#A9CFCE"/>
</linearGradient>
<linearGradient id="paint9_linear_63_48" x1="430.784" y1="389.662" x2="430.784" y2="462.212" gradientUnits="userSpaceOnUse">
<stop stop-color="#EAF2F7" stop-opacity="0"/>
<stop offset="1" stop-color="#A9CFCE"/>
</linearGradient>
<linearGradient id="paint10_linear_63_48" x1="405.207" y1="389.662" x2="405.207" y2="462.212" gradientUnits="userSpaceOnUse">
<stop stop-color="#EAF2F7" stop-opacity="0"/>
<stop offset="1" stop-color="#A9CFCE"/>
</linearGradient>
<linearGradient id="paint11_linear_63_48" x1="353.578" y1="526.892" x2="413.117" y2="526.892" gradientUnits="userSpaceOnUse">
<stop stop-color="#EAF2F7" stop-opacity="0"/>
<stop offset="1" stop-color="#A9CFCE"/>
</linearGradient>
<linearGradient id="paint12_linear_63_48" x1="415.053" y1="583.521" x2="354.881" y2="488.218" gradientUnits="userSpaceOnUse">
<stop offset="0.0391061" stop-color="#CCDADA"/>
<stop offset="1" stop-color="#7EC8AB"/>
</linearGradient>
<linearGradient id="paint13_linear_63_48" x1="278.071" y1="591.174" x2="301.74" y2="591.174" gradientUnits="userSpaceOnUse">
<stop offset="0.0195531" stop-color="#FFDBC9"/>
<stop offset="1" stop-color="#FB9A9B"/>
</linearGradient>
<linearGradient id="paint14_linear_63_48" x1="300.167" y1="590.41" x2="260.532" y2="591.996" gradientUnits="userSpaceOnUse">
<stop offset="0.0530726" stop-color="#EA8B9D" stop-opacity="0"/>
<stop offset="1" stop-color="#B4736D"/>
</linearGradient>
<linearGradient id="paint15_linear_63_48" x1="306.037" y1="591.643" x2="315.549" y2="668.689" gradientUnits="userSpaceOnUse">
<stop stop-color="#D1E1F4"/>
<stop offset="1" stop-color="#5EC0E3"/>
</linearGradient>
<linearGradient id="paint16_linear_63_48" x1="312.193" y1="643.716" x2="312.616" y2="693.603" gradientUnits="userSpaceOnUse">
<stop stop-color="#D1E1F4"/>
<stop offset="1" stop-color="#5EC0E3"/>
</linearGradient>
<linearGradient id="paint17_linear_63_48" x1="260.12" y1="629.867" x2="264.876" y2="407.289" gradientUnits="userSpaceOnUse">
<stop stop-color="#D1E1F4"/>
<stop offset="1" stop-color="#5EC0E3"/>
</linearGradient>
<linearGradient id="paint18_linear_63_48" x1="314.475" y1="490.738" x2="157.203" y2="456.916" gradientUnits="userSpaceOnUse">
<stop stop-color="#76A3E4" stop-opacity="0"/>
<stop offset="1" stop-color="#49B2BE"/>
</linearGradient>
<linearGradient id="paint19_linear_63_48" x1="285.671" y1="555.831" x2="285.671" y2="598.531" gradientUnits="userSpaceOnUse">
<stop stop-color="#D1E1F4"/>
<stop offset="1" stop-color="#5EC0E3"/>
</linearGradient>
<linearGradient id="paint20_linear_63_48" x1="286.805" y1="559.114" x2="258.268" y2="591.245" gradientUnits="userSpaceOnUse">
<stop stop-color="#76A3E4" stop-opacity="0"/>
<stop offset="1" stop-color="#49B2BE"/>
</linearGradient>
<linearGradient id="paint21_linear_63_48" x1="185.351" y1="628.27" x2="190.107" y2="405.692" gradientUnits="userSpaceOnUse">
<stop stop-color="#D1E1F4"/>
<stop offset="1" stop-color="#5EC0E3"/>
</linearGradient>
<linearGradient id="paint22_linear_63_48" x1="138.015" y1="491.529" x2="270.342" y2="475.041" gradientUnits="userSpaceOnUse">
<stop stop-color="#76A3E4" stop-opacity="0"/>
<stop offset="1" stop-color="#49B2BE"/>
</linearGradient>
<linearGradient id="paint23_linear_63_48" x1="155.037" y1="594.843" x2="175.813" y2="594.843" gradientUnits="userSpaceOnUse">
<stop offset="0.0195531" stop-color="#FFDBC9"/>
<stop offset="1" stop-color="#FB9A9B"/>
</linearGradient>
<linearGradient id="paint24_linear_63_48" x1="178.717" y1="595.205" x2="134.009" y2="593.937" gradientUnits="userSpaceOnUse">
<stop offset="0.0530726" stop-color="#EA8B9D" stop-opacity="0"/>
<stop offset="1" stop-color="#B4736D"/>
</linearGradient>
<linearGradient id="paint25_linear_63_48" x1="167.013" y1="555.831" x2="167.013" y2="598.531" gradientUnits="userSpaceOnUse">
<stop stop-color="#D1E1F4"/>
<stop offset="1" stop-color="#5EC0E3"/>
</linearGradient>
<linearGradient id="paint26_linear_63_48" x1="173.601" y1="564.258" x2="128.787" y2="582.86" gradientUnits="userSpaceOnUse">
<stop stop-color="#76A3E4" stop-opacity="0"/>
<stop offset="1" stop-color="#49B2BE"/>
</linearGradient>
<linearGradient id="paint27_linear_63_48" x1="177.825" y1="607.471" x2="187.337" y2="684.518" gradientUnits="userSpaceOnUse">
<stop stop-color="#D1E1F4"/>
<stop offset="1" stop-color="#5EC0E3"/>
</linearGradient>
<linearGradient id="paint28_linear_63_48" x1="182.115" y1="644.818" x2="182.538" y2="694.705" gradientUnits="userSpaceOnUse">
<stop stop-color="#D1E1F4"/>
<stop offset="1" stop-color="#5EC0E3"/>
</linearGradient>
<linearGradient id="paint29_linear_63_48" x1="135.153" y1="-38.5946" x2="188.42" y2="263.884" gradientUnits="userSpaceOnUse">
<stop offset="0.162011" stop-color="#EBCEBB"/>
<stop offset="0.835195" stop-color="#AD9B94"/>
</linearGradient>
<linearGradient id="paint30_linear_63_48" x1="145.405" y1="37.8912" x2="191.909" y2="250.968" gradientUnits="userSpaceOnUse">
<stop offset="0.162011" stop-color="#EBCEBB"/>
<stop offset="0.835195" stop-color="#AD9B94"/>
</linearGradient>
<linearGradient id="paint31_linear_63_48" x1="148.085" y1="41.7532" x2="203.468" y2="217.626" gradientUnits="userSpaceOnUse">
<stop offset="0.162011" stop-color="#EBCEBB"/>
<stop offset="0.835195" stop-color="#AD9B94"/>
</linearGradient>
<linearGradient id="paint32_linear_63_48" x1="142.288" y1="43.5786" x2="197.671" y2="219.452" gradientUnits="userSpaceOnUse">
<stop offset="0.162011" stop-color="#EBCEBB"/>
<stop offset="0.835195" stop-color="#AD9B94"/>
</linearGradient>
<linearGradient id="paint33_linear_63_48" x1="117.284" y1="84.8732" x2="127.007" y2="192.257" gradientUnits="userSpaceOnUse">
<stop offset="0.162011" stop-color="#EBCEBB"/>
<stop offset="0.835195" stop-color="#AD9B94"/>
</linearGradient>
<linearGradient id="paint34_linear_63_48" x1="144.344" y1="82.4229" x2="154.068" y2="189.807" gradientUnits="userSpaceOnUse">
<stop offset="0.162011" stop-color="#EBCEBB"/>
<stop offset="0.835195" stop-color="#AD9B94"/>
</linearGradient>
<linearGradient id="paint35_linear_63_48" x1="194.334" y1="77.8963" x2="204.057" y2="185.28" gradientUnits="userSpaceOnUse">
<stop offset="0.162011" stop-color="#EBCEBB"/>
<stop offset="0.835195" stop-color="#AD9B94"/>
</linearGradient>
<linearGradient id="paint36_linear_63_48" x1="209.328" y1="12.0117" x2="195.377" y2="63.1671" gradientUnits="userSpaceOnUse">
<stop offset="0.162011" stop-color="#EBCEBB"/>
<stop offset="0.835195" stop-color="#AD9B94"/>
</linearGradient>
<linearGradient id="paint37_linear_63_48" x1="265.411" y1="115.393" x2="223.133" y2="119.621" gradientUnits="userSpaceOnUse">
<stop offset="0.162011" stop-color="#EBCEBB"/>
<stop offset="0.835195" stop-color="#AD9B94"/>
</linearGradient>
<linearGradient id="paint38_linear_63_48" x1="93.135" y1="80.042" x2="115.882" y2="80.042" gradientUnits="userSpaceOnUse">
<stop offset="0.162011" stop-color="#EBCEBB"/>
<stop offset="0.835195" stop-color="#AD9B94"/>
</linearGradient>
<linearGradient id="paint39_linear_63_48" x1="83.1653" y1="168.372" x2="109.112" y2="168.372" gradientUnits="userSpaceOnUse">
<stop offset="0.162011" stop-color="#EBCEBB"/>
<stop offset="0.835195" stop-color="#AD9B94"/>
</linearGradient>
<linearGradient id="paint40_linear_63_48" x1="145.026" y1="2.35751" x2="147.14" y2="33.6426" gradientUnits="userSpaceOnUse">
<stop offset="0.162011" stop-color="#EBCEBB"/>
<stop offset="0.835195" stop-color="#AD9B94"/>
</linearGradient>
<linearGradient id="paint41_linear_63_48" x1="134.209" y1="3.08841" x2="136.322" y2="34.3735" gradientUnits="userSpaceOnUse">
<stop offset="0.162011" stop-color="#EBCEBB"/>
<stop offset="0.835195" stop-color="#AD9B94"/>
</linearGradient>
<linearGradient id="paint42_linear_63_48" x1="263.227" y1="6.22953" x2="263.015" y2="32.4414" gradientUnits="userSpaceOnUse">
<stop offset="0.0391061" stop-color="#DCD3D5"/>
<stop offset="1" stop-color="#CA84B4"/>
</linearGradient>
<linearGradient id="paint43_linear_63_48" x1="250.789" y1="38.7339" x2="252.692" y2="57.283" gradientUnits="userSpaceOnUse">
<stop offset="0.0391061" stop-color="#DCD3D5"/>
<stop offset="1" stop-color="#CA84B4"/>
</linearGradient>
<linearGradient id="paint44_linear_63_48" x1="281.185" y1="46.5014" x2="277.222" y2="62.5138" gradientUnits="userSpaceOnUse">
<stop offset="0.0391061" stop-color="#DCD3D5"/>
<stop offset="1" stop-color="#CA84B4"/>
</linearGradient>
<linearGradient id="paint45_linear_63_48" x1="20.937" y1="126.908" x2="35.7341" y2="138.851" gradientUnits="userSpaceOnUse">
<stop offset="0.0391061" stop-color="#DCD3D5"/>
<stop offset="1" stop-color="#CA84B4"/>
</linearGradient>
<linearGradient id="paint46_linear_63_48" x1="33.0578" y1="96.5302" x2="54.3021" y2="111.539" gradientUnits="userSpaceOnUse">
<stop offset="0.0391061" stop-color="#DCD3D5"/>
<stop offset="1" stop-color="#CA84B4"/>
</linearGradient>
<linearGradient id="paint47_linear_63_48" x1="7.92599" y1="92.6266" x2="23.5685" y2="104.887" gradientUnits="userSpaceOnUse">
<stop offset="0.0391061" stop-color="#DCD3D5"/>
<stop offset="1" stop-color="#CA84B4"/>
</linearGradient>
<linearGradient id="paint48_linear_63_48" x1="-48.6332" y1="215.903" x2="74.3934" y2="197.829" gradientUnits="userSpaceOnUse">
<stop stop-color="#DAAD6E"/>
<stop offset="1" stop-color="#B4833C"/>
</linearGradient>
<linearGradient id="paint49_linear_63_48" x1="73.0724" y1="215.436" x2="14.5185" y2="262.575" gradientUnits="userSpaceOnUse">
<stop stop-color="#DAAD6E"/>
<stop offset="1" stop-color="#B4833C"/>
</linearGradient>
<linearGradient id="paint50_linear_63_48" x1="54.7447" y1="192.67" x2="-3.80921" y2="239.809" gradientUnits="userSpaceOnUse">
<stop stop-color="#DAAD6E"/>
<stop offset="1" stop-color="#B4833C"/>
</linearGradient>
<linearGradient id="paint51_linear_63_48" x1="35.8633" y1="169.216" x2="-22.6906" y2="216.355" gradientUnits="userSpaceOnUse">
<stop stop-color="#DAAD6E"/>
<stop offset="1" stop-color="#B4833C"/>
</linearGradient>
<linearGradient id="paint52_linear_63_48" x1="54.8907" y1="155.713" x2="48.8662" y2="266.691" gradientUnits="userSpaceOnUse">
<stop stop-color="#DAAD6E"/>
<stop offset="1" stop-color="#B4833C"/>
</linearGradient>
<linearGradient id="paint53_linear_63_48" x1="72.5497" y1="156.357" x2="27.1017" y2="248.733" gradientUnits="userSpaceOnUse">
<stop stop-color="#DAAD6E"/>
<stop offset="1" stop-color="#B4833C"/>
</linearGradient>
<linearGradient id="paint54_linear_63_48" x1="9.56406" y1="225.056" x2="99.4031" y2="166.502" gradientUnits="userSpaceOnUse">
<stop stop-color="#DAAD6E"/>
<stop offset="1" stop-color="#B4833C"/>
</linearGradient>
<linearGradient id="paint55_linear_63_48" x1="415.104" y1="114.613" x2="293.529" y2="140.725" gradientUnits="userSpaceOnUse">
<stop stop-color="#DAAD6E"/>
<stop offset="1" stop-color="#B4833C"/>
</linearGradient>
<linearGradient id="paint56_linear_63_48" x1="300.927" y1="156.756" x2="372.272" y2="180.43" gradientUnits="userSpaceOnUse">
<stop stop-color="#DAAD6E"/>
<stop offset="1" stop-color="#B4833C"/>
</linearGradient>
<linearGradient id="paint57_linear_63_48" x1="310.131" y1="129.017" x2="381.477" y2="152.69" gradientUnits="userSpaceOnUse">
<stop stop-color="#DAAD6E"/>
<stop offset="1" stop-color="#B4833C"/>
</linearGradient>
<linearGradient id="paint58_linear_63_48" x1="319.613" y1="100.439" x2="390.959" y2="124.113" gradientUnits="userSpaceOnUse">
<stop stop-color="#DAAD6E"/>
<stop offset="1" stop-color="#B4833C"/>
</linearGradient>
<linearGradient id="paint59_linear_63_48" x1="297.064" y1="94.4469" x2="341.536" y2="196.303" gradientUnits="userSpaceOnUse">
<stop stop-color="#DAAD6E"/>
<stop offset="1" stop-color="#B4833C"/>
</linearGradient>
<linearGradient id="paint60_linear_63_48" x1="280.746" y1="101.229" x2="355.641" y2="171.866" gradientUnits="userSpaceOnUse">
<stop stop-color="#DAAD6E"/>
<stop offset="1" stop-color="#B4833C"/>
</linearGradient>
<linearGradient id="paint61_linear_63_48" x1="363.787" y1="143.549" x2="259.14" y2="120.128" gradientUnits="userSpaceOnUse">
<stop stop-color="#DAAD6E"/>
<stop offset="1" stop-color="#B4833C"/>
</linearGradient>
<linearGradient id="paint62_linear_63_48" x1="123.714" y1="272.03" x2="133.437" y2="279.639" gradientUnits="userSpaceOnUse">
<stop stop-color="#D7D5E9"/>
<stop offset="1" stop-color="#7D72AA"/>
</linearGradient>
<linearGradient id="paint63_linear_63_48" x1="234.444" y1="222.609" x2="279.195" y2="222.609" gradientUnits="userSpaceOnUse">
<stop offset="0.0195531" stop-color="#FFDBC9"/>
<stop offset="1" stop-color="#FB9A9B"/>
</linearGradient>
<linearGradient id="paint64_linear_63_48" x1="231.775" y1="152.274" x2="317.703" y2="226.47" gradientUnits="userSpaceOnUse">
<stop offset="0.0530726" stop-color="#EA8B9D" stop-opacity="0"/>
<stop offset="1" stop-color="#B4736D"/>
</linearGradient>
<linearGradient id="paint65_linear_63_48" x1="229.352" y1="155.079" x2="315.281" y2="229.276" gradientUnits="userSpaceOnUse">
<stop offset="0.0530726" stop-color="#EA8B9D" stop-opacity="0"/>
<stop offset="1" stop-color="#B4736D"/>
</linearGradient>
<linearGradient id="paint66_linear_63_48" x1="226.36" y1="158.545" x2="312.288" y2="232.742" gradientUnits="userSpaceOnUse">
<stop offset="0.0530726" stop-color="#EA8B9D" stop-opacity="0"/>
<stop offset="1" stop-color="#B4736D"/>
</linearGradient>
<linearGradient id="paint67_linear_63_48" x1="210.106" y1="177.369" x2="296.035" y2="251.565" gradientUnits="userSpaceOnUse">
<stop offset="0.0530726" stop-color="#EA8B9D" stop-opacity="0"/>
<stop offset="1" stop-color="#B4736D"/>
</linearGradient>
<linearGradient id="paint68_linear_63_48" x1="258.354" y1="226.082" x2="258.988" y2="310.743" gradientUnits="userSpaceOnUse">
<stop offset="0.0530726" stop-color="#EA8B9D" stop-opacity="0"/>
<stop offset="1" stop-color="#B4736D"/>
</linearGradient>
<linearGradient id="paint69_linear_63_48" x1="119.108" y1="246.564" x2="162.28" y2="246.564" gradientUnits="userSpaceOnUse">
<stop offset="0.0195531" stop-color="#FFDBC9"/>
<stop offset="1" stop-color="#FB9A9B"/>
</linearGradient>
<linearGradient id="paint70_linear_63_48" x1="138.265" y1="264.573" x2="159.827" y2="340.355" gradientUnits="userSpaceOnUse">
<stop offset="0.0530726" stop-color="#EA8B9D" stop-opacity="0"/>
<stop offset="1" stop-color="#B4736D"/>
</linearGradient>
<linearGradient id="paint71_linear_63_48" x1="134.693" y1="177.311" x2="146.108" y2="226.617" gradientUnits="userSpaceOnUse">
<stop offset="0.0530726" stop-color="#EA8B9D" stop-opacity="0"/>
<stop offset="1" stop-color="#B4736D"/>
</linearGradient>
<linearGradient id="paint72_linear_63_48" x1="129.027" y1="178.623" x2="140.442" y2="227.928" gradientUnits="userSpaceOnUse">
<stop offset="0.0530726" stop-color="#EA8B9D" stop-opacity="0"/>
<stop offset="1" stop-color="#B4736D"/>
</linearGradient>
<linearGradient id="paint73_linear_63_48" x1="122.929" y1="180.035" x2="134.343" y2="229.34" gradientUnits="userSpaceOnUse">
<stop offset="0.0530726" stop-color="#EA8B9D" stop-opacity="0"/>
<stop offset="1" stop-color="#B4736D"/>
</linearGradient>
<linearGradient id="paint74_linear_63_48" x1="140.72" y1="175.916" x2="152.134" y2="225.222" gradientUnits="userSpaceOnUse">
<stop offset="0.0530726" stop-color="#EA8B9D" stop-opacity="0"/>
<stop offset="1" stop-color="#B4736D"/>
</linearGradient>
<linearGradient id="paint75_linear_63_48" x1="139.902" y1="175.687" x2="151.457" y2="225.598" gradientUnits="userSpaceOnUse">
<stop offset="0.0530726" stop-color="#EA8B9D" stop-opacity="0"/>
<stop offset="1" stop-color="#B4736D"/>
</linearGradient>
<linearGradient id="paint76_linear_63_48" x1="123.351" y1="207.825" x2="180.415" y2="283.46" gradientUnits="userSpaceOnUse">
<stop offset="0.0530726" stop-color="#EA8B9D" stop-opacity="0"/>
<stop offset="1" stop-color="#B4736D"/>
</linearGradient>
<linearGradient id="paint77_linear_63_48" x1="205.665" y1="269.698" x2="223.738" y2="560.762" gradientUnits="userSpaceOnUse">
<stop stop-color="#D7D5E9"/>
<stop offset="1" stop-color="#7D72AA"/>
</linearGradient>
<linearGradient id="paint78_linear_63_48" x1="247.944" y1="304.996" x2="164.658" y2="369.258" gradientUnits="userSpaceOnUse">
<stop offset="0.117318" stop-color="#B1A9CF" stop-opacity="0"/>
<stop offset="0.997676" stop-color="#C1BBDA"/>
</linearGradient>
<linearGradient id="paint79_linear_63_48" x1="211.714" y1="311.266" x2="210.869" y2="263.064" gradientUnits="userSpaceOnUse">
<stop offset="0.0195531" stop-color="#FFDBC9"/>
<stop offset="1" stop-color="#FB9A9B"/>
</linearGradient>
<linearGradient id="paint80_linear_63_48" x1="208.549" y1="283.389" x2="206.805" y2="260.401" gradientUnits="userSpaceOnUse">
<stop offset="0.0530726" stop-color="#EA8B9D" stop-opacity="0"/>
<stop offset="1" stop-color="#B4736D"/>
</linearGradient>
<linearGradient id="paint81_linear_63_48" x1="181.4" y1="200.63" x2="217.334" y2="275.879" gradientUnits="userSpaceOnUse">
<stop offset="0.162011" stop-color="#8A776B"/>
<stop offset="0.835195" stop-color="#4C4340"/>
</linearGradient>
<linearGradient id="paint82_linear_63_48" x1="186.752" y1="176.187" x2="207.468" y2="314.856" gradientUnits="userSpaceOnUse">
<stop offset="0.125698" stop-color="#82726C" stop-opacity="0"/>
<stop offset="0.824022" stop-color="#19130E"/>
</linearGradient>
<linearGradient id="paint83_linear_63_48" x1="219.547" y1="232.162" x2="183.188" y2="285.433" gradientUnits="userSpaceOnUse">
<stop offset="0.0195531" stop-color="#FFDBC9"/>
<stop offset="1" stop-color="#FB9A9B"/>
</linearGradient>
<linearGradient id="paint84_linear_63_48" x1="227.772" y1="250.487" x2="188.877" y2="263.276" gradientUnits="userSpaceOnUse">
<stop offset="0.0530726" stop-color="#EA8B9D" stop-opacity="0"/>
<stop offset="1" stop-color="#B4736D"/>
</linearGradient>
<linearGradient id="paint85_linear_63_48" x1="224.356" y1="249.129" x2="145.721" y2="266.674" gradientUnits="userSpaceOnUse">
<stop offset="0.0530726" stop-color="#EA8B9D" stop-opacity="0"/>
<stop offset="1" stop-color="#B4736D"/>
</linearGradient>
<linearGradient id="paint86_linear_63_48" x1="214.103" y1="252.005" x2="205.317" y2="228.701" gradientUnits="userSpaceOnUse">
<stop offset="0.0530726" stop-color="#EA8B9D" stop-opacity="0"/>
<stop offset="1" stop-color="#B4736D"/>
</linearGradient>
<linearGradient id="paint87_linear_63_48" x1="201.697" y1="256.544" x2="193.348" y2="233.08" gradientUnits="userSpaceOnUse">
<stop offset="0.0530726" stop-color="#EA8B9D" stop-opacity="0"/>
<stop offset="1" stop-color="#B4736D"/>
</linearGradient>
<linearGradient id="paint88_linear_63_48" x1="191.078" y1="226.417" x2="200.115" y2="249.405" gradientUnits="userSpaceOnUse">
<stop offset="0.162011" stop-color="#8A776B"/>
<stop offset="0.835195" stop-color="#4C4340"/>
</linearGradient>
<linearGradient id="paint89_linear_63_48" x1="190.292" y1="226.726" x2="199.329" y2="249.714" gradientUnits="userSpaceOnUse">
<stop offset="0.162011" stop-color="#8A776B"/>
<stop offset="0.835195" stop-color="#4C4340"/>
</linearGradient>
<linearGradient id="paint90_linear_63_48" x1="201.571" y1="222.292" x2="210.608" y2="245.28" gradientUnits="userSpaceOnUse">
<stop offset="0.162011" stop-color="#8A776B"/>
<stop offset="0.835195" stop-color="#4C4340"/>
</linearGradient>
<linearGradient id="paint91_linear_63_48" x1="202.677" y1="221.857" x2="211.714" y2="244.845" gradientUnits="userSpaceOnUse">
<stop offset="0.162011" stop-color="#8A776B"/>
<stop offset="0.835195" stop-color="#4C4340"/>
</linearGradient>
<linearGradient id="paint92_linear_63_48" x1="198.683" y1="223.427" x2="207.72" y2="246.415" gradientUnits="userSpaceOnUse">
<stop offset="0.162011" stop-color="#8A776B"/>
<stop offset="0.835195" stop-color="#4C4340"/>
</linearGradient>
<linearGradient id="paint93_linear_63_48" x1="150.235" y1="235.951" x2="158.162" y2="359.612" gradientUnits="userSpaceOnUse">
<stop stop-color="#D7D5E9"/>
<stop offset="1" stop-color="#7D72AA"/>
</linearGradient>
<linearGradient id="paint94_linear_63_48" x1="252.356" y1="229.405" x2="260.283" y2="353.066" gradientUnits="userSpaceOnUse">
<stop stop-color="#D7D5E9"/>
<stop offset="1" stop-color="#7D72AA"/>
</linearGradient>
<linearGradient id="paint95_linear_63_48" x1="231.719" y1="249.776" x2="275.792" y2="301.46" gradientUnits="userSpaceOnUse">
<stop offset="0.117318" stop-color="#B1A9CF" stop-opacity="0"/>
<stop offset="0.997676" stop-color="#C1BBDA"/>
</linearGradient>
<linearGradient id="paint96_linear_63_48" x1="177.187" y1="266.184" x2="199.172" y2="390.479" gradientUnits="userSpaceOnUse">
<stop stop-color="#D7D5E9"/>
<stop offset="1" stop-color="#7D72AA"/>
</linearGradient>
<linearGradient id="paint97_linear_63_48" x1="244.624" y1="254.256" x2="266.608" y2="378.551" gradientUnits="userSpaceOnUse">
<stop stop-color="#D7D5E9"/>
<stop offset="1" stop-color="#7D72AA"/>
</linearGradient>
<linearGradient id="paint98_linear_63_48" x1="223.414" y1="368.876" x2="226.374" y2="435.674" gradientUnits="userSpaceOnUse">
<stop stop-color="#D7D5E9"/>
<stop offset="1" stop-color="#7D72AA"/>
</linearGradient>
</defs>
</svg>
