<svg width="125" height="125" viewBox="0 0 125 125" fill="none" xmlns="http://www.w3.org/2000/svg">
<path opacity="0.7" d="M62.1515 124.833C96.4191 124.833 124.199 97.0536 124.199 62.786C124.199 28.5184 96.4191 0.739014 62.1515 0.739014C27.8839 0.739014 0.104492 28.5184 0.104492 62.786C0.104492 97.0536 27.8839 124.833 62.1515 124.833Z" fill="white"/>
<path d="M104.6 20.713H17.9604V101.486H104.6V20.713Z" fill="url(#paint0_linear_10_4895)"/>
<path d="M104.6 20.713H17.9604V33.3479H104.6V20.713Z" fill="url(#paint1_linear_10_4895)"/>
<path d="M47.2671 48.139H34.4309V51.2051H47.2671V48.139Z" fill="white"/>
<path d="M74.945 54.7553H46.0637V57.8214H74.945V54.7553Z" fill="white"/>
<path d="M92.7951 54.7553H79.5579V57.8214H92.7951V54.7553Z" fill="white"/>
<path d="M47.2671 61.3715H34.4309V64.4376H47.2671V61.3715Z" fill="white"/>
<path d="M90.1877 67.9878H46.4646V71.0539H90.1877V67.9878Z" fill="white"/>
<path d="M47.2671 74.6041H34.4309V77.6702H47.2671V74.6041Z" fill="white"/>
<path d="M67.9249 81.2203H47.0662V84.2864H67.9249V81.2203Z" fill="white"/>
<path d="M93.7982 81.2203H72.9395V84.2864H93.7982V81.2203Z" fill="white"/>
<path d="M26.5086 45.2035C36.5609 45.2035 44.7099 37.0545 44.7099 27.0022C44.7099 16.95 36.5609 8.80096 26.5086 8.80096C16.4564 8.80096 8.30737 16.95 8.30737 27.0022C8.30737 37.0545 16.4564 45.2035 26.5086 45.2035Z" fill="white"/>
<path d="M26.5087 43.248C35.481 43.248 42.7545 35.9745 42.7545 27.0022C42.7545 18.03 35.481 10.7565 26.5087 10.7565C17.5364 10.7565 10.2629 18.03 10.2629 27.0022C10.2629 35.9745 17.5364 43.248 26.5087 43.248Z" fill="url(#paint2_linear_10_4895)"/>
<path d="M21.8331 33.3424C21.5991 33.3424 21.365 33.2531 21.1865 33.0745L15.7853 27.6732C15.609 27.4971 15.5124 27.2567 15.5175 27.0074C15.5227 26.7584 15.6295 26.5219 15.813 26.3533L21.2142 21.3882C21.5855 21.0464 22.1646 21.0703 22.5063 21.4429C22.8481 21.8144 22.8239 22.3931 22.452 22.735L17.7529 27.0545L22.4796 31.7813C22.8369 32.1385 22.8369 32.7172 22.4796 33.0745C22.3012 33.2531 22.0671 33.3424 21.8331 33.3424Z" fill="white"/>
<path d="M32.1994 33.3424C31.9654 33.3424 31.7315 33.2531 31.5529 33.0745C31.1956 32.7173 31.1956 32.1386 31.5529 31.7814L36.2796 27.0546L31.5807 22.735C31.2088 22.3932 31.1842 21.8145 31.5261 21.443C31.8679 21.0707 32.4466 21.0465 32.8182 21.3883L38.2194 26.3533C38.403 26.522 38.5098 26.7584 38.5148 27.0074C38.5202 27.2568 38.4233 27.4972 38.2472 27.6733L32.846 33.0745C32.6674 33.2531 32.4334 33.3424 32.1994 33.3424Z" fill="white"/>
<path d="M24.7519 34.3825C24.6518 34.3825 24.55 34.3658 24.4502 34.3311C23.9734 34.1643 23.722 33.6428 23.8886 33.1659L28.2498 20.6859C28.4166 20.2094 28.9371 19.9586 29.415 20.1243C29.8916 20.2911 30.1431 20.8127 29.9766 21.2896L25.6151 33.7696C25.4834 34.1464 25.1298 34.3825 24.7519 34.3825Z" fill="white"/>
<defs>
<linearGradient id="paint0_linear_10_4895" x1="61.2803" y1="-19.0083" x2="61.2803" y2="195.091" gradientUnits="userSpaceOnUse">
<stop stop-color="#CFDFF2"/>
<stop offset="1" stop-color="#6CBEE1"/>
</linearGradient>
<linearGradient id="paint1_linear_10_4895" x1="60.7129" y1="27.5446" x2="-9.51675" y2="91.1901" gradientUnits="userSpaceOnUse">
<stop stop-color="#E5E5E6"/>
<stop offset="1" stop-color="#BABCBE"/>
</linearGradient>
<linearGradient id="paint2_linear_10_4895" x1="26.5087" y1="-19.0084" x2="26.5087" y2="195.092" gradientUnits="userSpaceOnUse">
<stop stop-color="#CFDFF2"/>
<stop offset="1" stop-color="#6CBEE1"/>
</linearGradient>
</defs>
</svg>
