<svg width="277" height="276" viewBox="0 0 277 276" fill="none" xmlns="http://www.w3.org/2000/svg">
<path d="M253.842 169.31C241.598 188.104 222.709 206.181 196.866 222.006C194.88 223.218 192.854 224.419 190.785 225.609C122.612 264.775 63.2577 232.884 47.9774 195.393C32.7011 157.906 44.1769 91.9664 93.8182 59.4258C165.514 12.426 248.376 39.2814 266.007 87.4041C275.407 113.058 271.669 141.947 253.842 169.31Z" fill="url(#paint0_linear_62_404)"/>
<path d="M74.5316 261.283C68.3311 268.059 60.263 271.028 56.5109 267.915C52.7587 264.802 54.7434 256.786 60.9438 250.011C67.1443 243.235 75.2124 240.266 78.9646 243.379C82.7167 246.492 80.732 254.508 74.5316 261.283Z" fill="url(#paint1_linear_62_404)"/>
<path d="M226.07 11.974C223.129 15.1874 218.465 15.9008 215.652 13.5674C212.84 11.2341 212.944 6.73755 215.884 3.52414C218.825 0.310738 223.489 -0.402684 226.302 1.93067C229.114 4.26401 229.01 8.76055 226.07 11.974Z" fill="url(#paint2_linear_62_404)"/>
<path d="M116.08 271.175C112.301 275.304 107.384 277.113 105.098 275.216C102.811 273.319 104.02 268.434 107.799 264.305C111.578 260.176 116.495 258.366 118.782 260.263C121.068 262.16 119.859 267.045 116.08 271.175Z" fill="url(#paint3_linear_62_404)"/>
<path d="M128.881 159.084L35.7614 217.847L9.91448 148.558L0.573334 123.516L100.731 66.8151L108.653 92.7787L128.881 159.084Z" fill="url(#paint4_linear_62_404)"/>
<path d="M108.653 92.7787L9.91448 148.558L0.573334 123.516L100.731 66.8151L108.653 92.7787Z" fill="url(#paint5_linear_62_404)"/>
<path d="M24.8951 135.304C24.8341 135.304 24.7725 135.3 24.7103 135.29L15.5665 133.916C15.2458 133.868 14.9604 133.695 14.7777 133.44C14.5952 133.184 14.5319 132.868 14.6026 132.567L17.1291 121.799C17.2708 121.195 17.8991 120.816 18.5325 120.95C19.1659 121.085 19.5648 121.683 19.4233 122.287L17.1698 131.891L25.0768 133.079C25.7181 133.176 26.1558 133.749 26.0546 134.359C25.9632 134.911 25.4633 135.304 24.8951 135.304Z" fill="white"/>
<path d="M28.6226 133.815C27.9854 133.815 27.4619 133.33 27.448 132.72L27.0872 116.797C27.0732 116.179 27.588 115.667 28.2369 115.654C28.9004 115.643 29.4234 116.131 29.4376 116.749L29.7984 132.672C29.8124 133.29 29.2975 133.801 28.6486 133.815C28.6398 133.815 28.6312 133.815 28.6226 133.815Z" fill="white"/>
<path d="M37.4067 128.431C37.3028 128.431 37.1972 128.418 37.0922 128.39C36.4666 128.225 36.1001 127.608 36.2734 127.013L38.7149 118.623L32.3214 117.174C31.6899 117.031 31.2998 116.428 31.4501 115.826C31.6003 115.225 32.2353 114.854 32.8658 114.997L40.4455 116.715C40.756 116.785 41.023 116.973 41.1855 117.235C41.3477 117.496 41.3911 117.81 41.306 118.103L38.5389 127.611C38.3946 128.106 37.9219 128.431 37.4067 128.431Z" fill="white"/>
<path d="M33.8576 151.701L29.1631 154.764L27.2957 149.795L31.9901 146.732L33.8576 151.701Z" fill="white"/>
<path d="M59.49 134.524L40.2995 147.048L38.7034 142.801L57.894 130.277L59.49 134.524Z" fill="white"/>
<path d="M37.19 160.567L32.4955 163.631L30.628 158.662L35.3225 155.598L37.19 160.567Z" fill="white"/>
<path d="M67.7855 140.152L48.595 152.675L46.9989 148.428L66.1895 135.905L67.7855 140.152Z" fill="white"/>
<path d="M40.5223 169.434L35.8278 172.498L33.9604 167.529L38.6549 164.465L40.5223 169.434Z" fill="white"/>
<path d="M102.055 128.829L58.9885 156.934L57.3924 152.687L100.459 124.582L102.055 128.829Z" fill="white"/>
<path d="M50.519 196.034L45.8246 199.097L43.9571 194.128L48.6516 191.065L50.519 196.034Z" fill="white"/>
<path d="M111.939 155.503L68.8725 183.607L67.2765 179.36L110.343 151.256L111.939 155.503Z" fill="white"/>
<path d="M43.8545 178.301L39.16 181.364L37.2926 176.395L41.987 173.332L43.8545 178.301Z" fill="white"/>
<path d="M69.4869 161.124L50.2963 173.648L48.7002 169.401L67.8908 156.877L69.4869 161.124Z" fill="white"/>
<path d="M47.1867 187.168L42.4923 190.231L40.6248 185.262L45.3193 182.199L47.1867 187.168Z" fill="white"/>
<path d="M82.7455 163.513L63.555 176.037L61.9589 171.79L81.1495 159.266L82.7455 163.513Z" fill="white"/>
<path d="M253.842 169.313C241.6 188.106 222.709 206.182 196.869 222.008C193.301 217.285 188.279 210.507 182.769 203.012C180.136 199.425 177.39 195.671 174.641 191.902C164.387 177.846 154.079 163.524 149.248 156.51C147.455 153.902 146.416 152.305 146.416 152.102C146.416 152.023 146.499 151.865 146.651 151.645C149.346 147.767 174.291 123.542 174.291 123.542C174.291 123.542 174.32 123.566 174.374 123.611C175.351 124.408 185.035 131.821 199.759 126.404C210.796 122.34 210.601 113.034 210.601 113.034L212.888 113.123L234.103 113.965H234.106L236.134 119.654L247.589 151.773L250.973 161.264L253.842 169.313Z" fill="url(#paint6_linear_62_404)"/>
<path d="M253.843 169.311C241.599 188.105 222.711 206.182 196.867 222.007C193.302 217.284 188.279 210.506 182.77 203.012C186.238 201.079 189.306 199.24 191.668 197.614C219.878 178.215 243.778 147.626 243.778 147.626L247.59 151.774L253.843 169.311Z" fill="url(#paint7_linear_62_404)"/>
<path d="M276.747 161.964C276.747 161.964 274.983 171.477 262.642 174.461C250.3 177.446 244.619 166.814 244.619 166.814C244.619 166.814 245.011 156.928 256.177 154.877C267.343 152.825 276.747 161.964 276.747 161.964Z" fill="url(#paint8_linear_62_404)"/>
<path d="M152.088 206.481C152.088 206.481 155.484 211.952 164.495 212.325C173.507 212.698 178.992 206.916 179.384 201.88C179.776 196.844 178.208 191.31 178.208 191.31C178.208 191.31 167.181 190.899 160.912 194.256C154.643 197.614 152.088 206.481 152.088 206.481Z" fill="url(#paint9_linear_62_404)"/>
<path d="M271.459 174.462C270.871 178.566 264.21 180.804 256.374 179.312C248.538 177.82 247.559 170.732 247.559 170.732L247.512 167.114L247.363 155.997C247.363 155.997 251.281 149.469 257.55 149.842C263.818 150.215 267.149 153.012 268.324 155.064C269.045 156.318 270.271 161.749 270.988 166.722C271.443 169.885 271.686 172.866 271.459 174.462Z" fill="url(#paint10_linear_62_404)"/>
<path d="M270.988 166.722C267.939 164.04 264.77 163.111 258.274 163.667C254.262 164.01 250.504 164.848 247.512 167.114L247.363 155.997C247.363 155.997 251.281 149.469 257.55 149.842C263.818 150.215 267.149 153.012 268.324 155.064C269.045 156.318 270.271 161.749 270.988 166.722Z" fill="url(#paint11_linear_62_404)"/>
<path d="M276.745 161.961C276.611 161.899 273.862 160.594 269.781 159.605C267.09 158.955 263.821 158.444 260.336 158.523C259.957 158.529 259.571 158.543 259.189 158.567C255.833 158.767 253.116 159.897 250.973 161.264C247.116 163.72 245.125 166.935 244.62 166.815C243.837 166.63 236.783 139.77 234.236 130.818C233.886 129.581 233.572 128.41 233.298 127.3C232.45 123.872 231.992 121.034 232.061 118.815C232.133 116.541 232.764 114.916 234.103 113.965H234.106C234.319 113.955 240.767 113.707 244.62 116.826C248.538 119.997 267.346 144.246 270.676 149.656C273.956 154.977 276.662 161.748 276.745 161.961Z" fill="url(#paint12_linear_62_404)"/>
<path d="M276.745 161.961C276.611 161.899 273.862 160.594 269.781 159.604L268.782 158.684C268.782 158.684 243.288 123.188 240.64 121.127C240.07 120.684 238.403 120.179 236.134 119.653C234.922 119.375 233.54 119.093 232.061 118.815C223.427 117.173 211.539 115.631 211.539 115.631L212.888 113.123L234.103 113.965H234.106C234.319 113.954 240.767 113.707 244.62 116.826C248.538 119.997 267.346 144.246 270.676 149.656C273.956 154.977 276.662 161.748 276.745 161.961Z" fill="url(#paint13_linear_62_404)"/>
<path d="M260.335 158.522C259.955 158.53 259.571 158.545 259.187 158.567C249.784 159.127 245.404 167.002 244.62 166.815C243.837 166.629 236.784 139.77 234.237 130.817C233.885 129.582 233.571 128.41 233.297 127.299C237.407 132.697 250.454 149.569 257.491 155.646C258.607 156.612 259.548 157.575 260.335 158.522Z" fill="url(#paint14_linear_62_404)"/>
<path d="M178.209 191.308C178.209 191.308 177.087 191.38 174.641 191.902C173.291 192.194 171.538 192.62 169.344 193.252C168.089 193.61 166.696 194.039 165.148 194.544C162.994 195.248 161.129 196.282 159.538 197.45C154.379 201.249 152.088 206.481 152.088 206.481C152.088 206.481 138.637 174.651 138.248 166.815C137.927 160.409 144.316 153.827 146.651 151.645C147.17 151.158 147.491 150.89 147.491 150.89C147.491 150.89 149.162 151.683 151.687 153.356C153.488 154.548 155.721 156.19 158.098 158.313C160.988 160.9 164.084 164.198 166.855 168.265C178.609 185.554 178.209 191.308 178.209 191.308Z" fill="url(#paint15_linear_62_404)"/>
<path d="M159.538 197.45C154.379 201.249 152.088 206.481 152.088 206.481C152.088 206.481 138.637 174.651 138.248 166.815C137.927 160.408 144.316 153.827 146.651 151.645C149.346 147.767 174.291 123.542 174.291 123.542C174.291 123.542 174.32 123.566 174.374 123.611L175.698 127.08C175.698 127.08 160.707 142.082 151.687 153.356C150.81 154.448 149.992 155.506 149.248 156.509C147.109 159.405 145.593 161.868 145.153 163.493C144.1 167.389 155.692 189.394 159.538 197.45Z" fill="url(#paint16_linear_62_404)"/>
<path d="M178.21 191.309C178.21 191.309 175.506 191.481 169.343 193.253C168.728 190.895 167.847 187.836 166.593 183.934C163.862 175.444 160.116 164.294 158.099 158.314C160.99 160.899 164.085 164.197 166.855 168.266C178.609 185.553 178.21 191.309 178.21 191.309Z" fill="url(#paint17_linear_62_404)"/>
<path d="M182.715 214.192C179.777 219.414 171.745 220.906 166.456 217.362C163.791 215.576 160.563 212.11 158.02 209.107C155.513 206.153 153.663 203.646 153.663 203.646C153.663 203.646 154.302 200.602 160.52 196.308C166.052 192.484 172.031 192.622 172.031 192.622L172.92 193.745L179.385 201.881C179.385 201.881 185.654 208.969 182.715 214.192Z" fill="url(#paint18_linear_62_404)"/>
<path d="M253.528 141.564C251.934 143.461 245.557 148.776 245.557 148.776C245.557 148.776 246.223 155.229 245.688 160.292C245.158 165.352 239.579 165.098 239.579 165.098C239.579 165.098 193.876 208.119 188.563 212.925C183.792 217.245 174.518 221.564 168.635 218.55C167.966 218.209 167.344 217.772 166.774 217.229C161.194 211.915 162.258 202.046 169.962 196.982L233.999 156.242C233.999 156.242 232.935 139.795 233.999 138.022C235.063 136.249 236.123 135.111 237.984 133.592C239.846 132.074 248.347 127.648 249.411 127.519C250.093 127.439 250.336 127.773 250.352 128.229C250.364 128.479 250.304 128.764 250.208 129.037C250.069 129.44 249.853 129.732 249.682 129.922L249.678 129.929C249.566 130.051 249.475 130.127 249.431 130.161L249.415 130.172C249.55 130.112 251.946 129.045 252.332 129.292C252.58 129.447 252.823 129.747 252.819 130.248C252.819 130.563 252.719 130.954 252.464 131.444C251.914 132.495 250.898 133.376 250.575 133.642L250.479 133.718C250.65 133.649 253.68 132.488 254.325 133.592C254.361 133.649 254.385 133.71 254.405 133.775C254.772 134.868 253.193 136.553 253.014 136.743L252.998 136.758C252.998 136.758 255.389 136.249 255.652 137.263C255.919 138.276 255.122 139.666 253.528 141.564Z" fill="url(#paint19_linear_62_404)"/>
<path d="M253.059 136.584L253.044 136.599C253.044 136.599 250.701 137.677 246.912 139.542C243.241 141.348 241.415 142.4 241.302 142.463L246.194 138.922C246.194 138.922 249.98 136.371 251.743 135.439C253.02 134.763 253.992 134.021 254.427 133.667C254.787 134.741 253.236 136.397 253.059 136.584Z" fill="url(#paint20_linear_62_404)"/>
<path d="M252.867 130.201C252.867 130.51 252.77 130.895 252.519 131.376C251.978 132.409 250.979 133.275 250.662 133.536L250.568 133.61C250.568 133.61 243.844 136.744 241.948 137.863C240.056 138.982 238.814 139.978 238.814 139.978C238.814 139.978 240.838 137.801 242.668 136.559C244.497 135.317 250.701 131.894 252.072 130.839C252.335 130.634 252.605 130.417 252.867 130.201Z" fill="url(#paint21_linear_62_404)"/>
<path d="M250.442 128.216C250.454 128.462 250.395 128.742 250.301 129.011C250.164 129.406 249.953 129.694 249.784 129.88L249.78 129.888L249.537 130.115L249.521 130.126C249.521 130.126 240.839 134.569 239.339 135.625C237.834 136.684 237.184 137.244 237.184 137.244C237.184 137.244 239.6 134.694 241.492 133.388C243.385 132.082 248.546 129.597 249.588 128.85C249.878 128.642 250.172 128.421 250.442 128.216Z" fill="url(#paint22_linear_62_404)"/>
<path d="M253.528 141.564C251.934 143.461 245.557 148.776 245.557 148.776C245.557 148.776 246.223 155.228 245.688 160.292C245.158 165.352 239.579 165.098 239.579 165.098C239.579 165.098 193.876 208.119 188.563 212.925C183.792 217.245 174.518 221.564 168.635 218.55C170.576 217.951 172.617 217.104 174.622 215.924C182.991 210.989 233.01 166.768 234.007 165.629C235.003 164.49 239.985 161.643 240.981 158.986C241.978 156.329 241.978 149.307 242.576 146.84C243.174 144.372 255.652 137.263 255.652 137.263C255.919 138.276 255.122 139.666 253.528 141.564Z" fill="url(#paint23_linear_62_404)"/>
<path d="M271.263 181.737C271.004 182.229 270.514 182.826 269.84 183.471C266.929 186.239 260.543 189.839 254.023 189.384C252.64 189.287 196.135 180.151 196.135 180.151L194.567 180.991L181.638 189.384C181.638 189.384 181.701 188.97 181.803 188.299C182.214 185.628 183.276 178.876 183.695 177.88C184.216 176.637 192.573 170.172 195.97 169.426C199.367 168.68 255.524 167.434 255.524 167.434C255.524 167.434 268.324 167.934 269.891 169.986C271.459 172.038 272.634 179.126 271.263 181.737Z" fill="url(#paint24_linear_62_404)"/>
<path d="M269.84 183.472C266.929 186.24 260.543 189.839 254.023 189.384C252.64 189.287 196.135 180.151 196.135 180.151L194.567 180.991L181.638 189.384C181.638 189.384 181.701 188.97 181.803 188.299C182.543 187.743 183.566 187.213 184.224 186.795C185.399 186.049 186.771 181.759 188.142 180.64C189.513 179.521 194.019 175.604 196.37 175.231C198.72 174.858 227.714 177.656 245.737 180.827C258.494 183.069 266.342 183.445 269.84 183.472Z" fill="url(#paint25_linear_62_404)"/>
<path d="M172.92 193.745C170.777 194.969 165.888 198.001 161.37 202.586C159.505 204.478 158.506 206.802 158.02 209.107C155.513 206.153 153.663 203.646 153.663 203.646C153.663 203.646 154.302 200.602 160.52 196.308C166.052 192.484 172.031 192.622 172.031 192.622L172.92 193.745Z" fill="url(#paint26_linear_62_404)"/>
<path d="M213.609 113.368C213.609 113.368 212.687 126.712 198.974 130.815C185.261 134.919 171.817 126.051 171.817 126.051L183.106 112.909L180.054 100.222L177.229 88.4748C180.167 90.1535 190.942 87.9153 190.942 87.9153L194.174 100.64L196.819 111.044L213.609 113.368Z" fill="url(#paint27_linear_62_404)"/>
<path d="M194.174 100.64C192.599 101.002 190.66 101.24 188.266 101.281C185.233 101.337 182.491 100.916 180.054 100.222L177.229 88.4748C180.167 90.1535 190.942 87.9153 190.942 87.9153L194.174 100.64Z" fill="url(#paint28_linear_62_404)"/>
<path d="M179.247 166.928C182.734 166.928 185.561 164.237 185.561 160.917C185.561 157.597 182.734 154.905 179.247 154.905C175.76 154.905 172.933 157.597 172.933 160.917C172.933 164.237 175.76 166.928 179.247 166.928Z" fill="#E6E7E8"/>
<path d="M164.626 36.9943C164.091 37.2272 147.974 41.6574 155.81 63.4804C163.646 85.3035 169.237 92.6947 178.053 94.933C186.869 97.1712 199.3 91.6452 199.692 87.9148C200.084 84.1844 198.125 62.9209 193.227 45.3878C190.797 36.6869 176.184 31.9582 164.626 36.9943Z" fill="url(#paint29_linear_62_404)"/>
<path d="M176.002 66.45C177.477 69.6304 176.778 73.0056 174.44 73.9888C172.102 74.9719 169.011 73.1908 167.536 70.0104C166.061 66.83 166.76 63.4548 169.098 62.4716C171.435 61.4885 174.527 63.2696 176.002 66.45Z" fill="url(#paint30_linear_62_404)"/>
<path d="M192.892 63.3783C193.924 66.7133 192.774 69.9744 190.322 70.6623C187.871 71.3502 185.047 69.2042 184.014 65.8692C182.982 62.5342 184.133 59.2731 186.584 58.5852C189.036 57.8974 191.86 60.0433 192.892 63.3783Z" fill="url(#paint31_linear_62_404)"/>
<path d="M197.088 59.7115C197.088 59.7115 194.15 59.5249 191.733 56.2919C189.317 53.0588 188.925 51.8775 188.925 51.8775C188.925 51.8775 182.853 52.8101 178.216 51.0693C173.58 49.3284 172.274 48.3336 172.274 48.3336C172.274 48.3336 169.009 54.1158 165.221 54.3023C161.434 54.4888 161.434 54.4888 161.434 54.4888C161.434 54.4888 162.348 58.0949 161.434 61.5767C160.52 65.0584 156.863 66.1776 156.863 66.1776L149.158 48.0227L160.912 39.0697L179.718 33.8471H187.946L196.696 44.7897L197.741 52.6236L197.088 59.7115Z" fill="url(#paint32_linear_62_404)"/>
<path d="M160.512 73.2108C160.512 73.2108 153.362 67.8016 150.717 72.8377C148.072 77.8738 155.125 83.2829 159.043 85.2414C162.961 87.1999 165.312 84.4021 164.528 82.4436C163.744 80.4851 160.512 73.2108 160.512 73.2108Z" fill="url(#paint33_linear_62_404)"/>
<path d="M197.309 63.7914C197.309 63.7914 197.602 60.5272 200.933 61.3666C204.263 62.2059 205.243 67.1487 204.557 72.1848C203.871 77.2209 201.521 78.6198 200.345 78.0603C199.17 77.5007 198.582 75.449 198.582 75.449L197.309 63.7914Z" fill="url(#paint34_linear_62_404)"/>
<path d="M201.39 49.5522C201.39 49.5522 203.22 52.4135 202.828 55.6478C202.436 58.8783 198.647 61.4896 198.647 61.4896L198.126 69.8234L195.971 59.3782C195.971 59.3782 193.554 56.89 191.987 54.1556C190.42 51.4175 190.811 49.5522 190.811 49.5522C190.811 49.5522 175.66 51.1713 170.567 43.3373C170.567 43.3373 171.613 48.4331 165.736 51.0444C159.859 53.6557 157.637 53.1596 157.637 53.1596C157.637 53.1596 161.164 55.894 160.513 59.9975C159.859 64.1009 157.9 65.9662 157.9 65.9662L161.297 75.9152L154.111 69.8234C154.111 69.8234 149.41 68.2044 147.842 65.5931C147.435 64.9104 147.122 64.0562 146.89 63.1683C146.22 60.6503 146.154 57.845 146.154 57.845C146.154 57.845 144.03 57.0206 141.875 55.1591C139.25 52.8873 136.578 49.0748 137.656 43.3373C139.615 32.8921 149.543 31.15 152.677 31.15C155.812 31.15 156.725 31.15 156.725 31.15C156.725 31.15 156.725 25.8043 159.73 24.5583C162.731 23.3161 165.474 25.0582 165.474 25.0582C165.474 25.0582 169.783 11.7517 184.672 15.3591C199.56 18.9627 196.297 31.0269 196.297 31.0269C196.297 31.0269 196.316 31.0194 196.351 31.012H196.355C197.076 30.8068 204.156 29.0274 207.005 35.7496C207.283 36.4062 207.459 37.0553 207.557 37.7006C208.489 44.02 201.39 49.5522 201.39 49.5522Z" fill="url(#paint35_linear_62_404)"/>
<path d="M158.031 75.1694C158.031 75.1694 155.157 72.2472 153.46 73.9881C151.762 75.7289 154.439 79.8324 157.116 81.5733C159.794 83.3141 160.904 82.5059 161.1 81.2002C161.296 79.8946 160.643 79.0242 160.643 79.0242C160.643 79.0242 157.508 79.3972 156.986 77.6563C156.463 75.9154 158.031 75.1694 158.031 75.1694Z" fill="url(#paint36_linear_62_404)"/>
<path d="M200.672 63.6671C202.198 62.6764 203.218 68.0814 202.957 70.8171C202.696 73.5527 201.259 74.8584 200.41 74.1745C199.561 73.4906 199.496 71.9362 199.496 71.9362C199.496 71.9362 201.129 71.6875 201.259 70.1953C201.39 68.7031 199.823 67.7706 199.823 67.7706C199.823 67.7706 199.235 64.5997 200.672 63.6671Z" fill="url(#paint37_linear_62_404)"/>
<path d="M176.627 80.4025C176.627 80.4025 179.55 82.0003 183.877 82.5906C188.204 83.1808 189.816 82.2785 189.816 82.2785C189.816 82.2785 188.176 86.6824 183.205 86.8403C178.234 86.9983 176.627 80.4025 176.627 80.4025Z" fill="white"/>
<path d="M179.759 86.8293C179.759 86.8293 180.999 87.5072 182.835 87.7576C184.67 88.008 185.354 87.6252 185.354 87.6252C185.354 87.6252 184.658 89.4935 182.55 89.5605C180.441 89.6275 179.759 86.8293 179.759 86.8293Z" fill="url(#paint38_linear_62_404)"/>
<path d="M175.6 71.8467C176.278 73.3073 175.904 74.8793 174.766 75.358C173.628 75.8366 172.156 75.0406 171.479 73.58C170.801 72.1194 171.174 70.5474 172.313 70.0688C173.451 69.5901 174.923 70.3862 175.6 71.8467Z" fill="url(#paint39_linear_62_404)"/>
<path d="M192.251 68.8564C192.642 70.4092 191.978 71.8917 190.768 72.1676C189.558 72.4435 188.26 71.4085 187.869 69.8557C187.479 68.3029 188.143 66.8204 189.353 66.5445C190.563 66.2685 191.861 67.3036 192.251 68.8564Z" fill="url(#paint40_linear_62_404)"/>
<path d="M173.18 61.7397C173.18 61.7397 170.111 61.5532 168.087 64.5998C166.062 67.6463 166.585 69.9467 166.585 69.9467C166.585 69.9467 164.561 66.2163 166.977 63.4806C169.393 60.745 173.18 61.7397 173.18 61.7397Z" fill="url(#paint41_linear_62_404)"/>
<path d="M192.117 59.6258C192.117 59.6258 191.399 59.3771 187.742 58.8175C184.265 58.2854 182.322 58.631 182.322 58.631C182.322 58.631 184.151 56.8901 187.35 57.2631C190.55 57.6362 192.117 59.6258 192.117 59.6258Z" fill="url(#paint42_linear_62_404)"/>
<path d="M189.897 75.48L180.894 79.0475C180.894 79.0475 182.967 80.4303 185.718 79.9565C188.468 79.4827 189.897 75.48 189.897 75.48Z" fill="url(#paint43_linear_62_404)"/>
<path d="M182.518 66.0919C182.518 66.0919 182.484 70.6043 183.976 72.4676C185.467 74.3309 189.897 75.4801 189.897 75.4801L180.894 79.0477C180.894 79.0477 180.421 69.7987 182.518 66.0919Z" fill="url(#paint44_linear_62_404)"/>
<path d="M182.518 66.0919C182.518 66.0919 182.975 71.1901 185.587 72.9932C188.199 74.7962 191.334 74.5475 191.334 74.5475C191.334 74.5475 190.681 76.9101 189.44 78.4023C188.199 79.8945 185.718 79.9567 185.718 79.9567C185.718 79.9567 186.567 79.8323 188.134 78.1536C189.701 76.4749 189.897 75.4802 189.897 75.4802C189.897 75.4802 186.371 75.8532 184.085 72.8688C181.8 69.8845 182.518 66.0919 182.518 66.0919Z" fill="url(#paint45_linear_62_404)"/>
<path d="M201.39 49.5522C201.39 49.5522 203.22 52.4135 202.828 55.6478C202.436 58.8783 198.647 61.4896 198.647 61.4896L198.126 69.8234L195.971 59.3782C195.971 59.3782 193.554 56.89 191.987 54.1556C190.42 51.4175 190.811 49.5522 190.811 49.5522C190.811 49.5522 175.66 51.1713 170.567 43.3373C170.567 43.3373 171.613 48.4331 165.736 51.0444C159.859 53.6557 157.638 53.1596 157.638 53.1596C157.638 53.1596 161.164 55.894 160.513 59.9975C159.859 64.1009 157.9 65.9661 157.9 65.9661L161.297 75.9152L154.111 69.8234C154.111 69.8234 149.41 68.2044 147.842 65.5931C147.435 64.9104 147.122 64.0562 146.89 63.1683C148.489 62.3999 150.025 61.2882 150.855 59.7102C153.077 55.4836 150.985 49.888 150.985 49.888C150.985 49.888 156.603 50.261 161.955 47.1536C167.311 44.0424 169.924 39.4428 169.924 39.4428C169.924 39.4428 175.018 41.8041 180.37 43.2963C185.726 44.7885 190.298 41.8041 190.298 41.8041C190.298 41.8041 194.475 44.9153 199.31 43.9193C202.738 43.2105 205.97 39.689 207.557 37.7006C208.489 44.02 201.39 49.5522 201.39 49.5522Z" fill="url(#paint46_linear_62_404)"/>
<path d="M196.297 31.0269C196.297 31.0269 196.316 31.0194 196.351 31.012L196.109 31.3291C196.109 31.3291 194.149 24.0547 188.175 19.6714C182.337 15.3889 175.378 18.8508 175.061 19.0149C175.249 18.9627 177.976 18.224 180.338 19.4849C182.787 20.7906 182.885 22.003 182.885 22.003C182.885 22.003 178.575 20.0445 173.09 22.1895C167.605 24.3345 167.213 28.5312 167.213 28.5312C167.213 28.5312 164.666 26.4795 161.63 27.4121C158.594 28.3447 156.732 31.6089 156.732 31.6089C156.732 31.6089 146.546 32.5415 142.432 40.1889C139.485 45.6651 140.861 52.0069 141.875 55.1591C139.25 52.8873 136.578 49.0748 137.656 43.3374C139.615 32.8921 149.543 31.15 152.677 31.15C155.812 31.15 156.725 31.15 156.725 31.15C156.725 31.15 156.725 25.8043 159.73 24.5583C162.731 23.3161 165.474 25.0582 165.474 25.0582C165.474 25.0582 169.783 11.7517 184.672 15.3591C199.56 18.9627 196.297 31.0269 196.297 31.0269Z" fill="url(#paint47_linear_62_404)"/>
<path d="M218.572 116.29C218.572 116.29 217.396 129.098 204.859 135.315C192.321 141.533 171.425 132.207 171.425 132.207C171.425 132.207 190.101 144.89 205.773 137.429C221.445 129.968 218.572 116.29 218.572 116.29Z" fill="url(#paint48_linear_62_404)"/>
<path d="M213.582 115.859C213.582 115.859 211.177 124.447 205.404 128.225C198.198 132.943 190.371 132.233 190.371 132.233C190.371 132.233 194.941 133.951 193.378 134.752C191.814 135.554 189.409 135.783 184.959 135.668C180.51 135.554 179.547 135.21 179.547 135.21C179.547 135.21 196.264 140.592 206.246 134.867C216.228 129.141 217.537 121.548 218.272 119.294C218.814 117.633 218.874 116.488 218.874 116.488L213.582 115.859Z" fill="url(#paint49_linear_62_404)"/>
<defs>
<linearGradient id="paint0_linear_62_404" x1="152.003" y1="-58.7204" x2="155.555" y2="118.856" gradientUnits="userSpaceOnUse">
<stop stop-color="#E8F3F8" stop-opacity="0"/>
<stop offset="1" stop-color="#D8E6F7"/>
</linearGradient>
<linearGradient id="paint1_linear_62_404" x1="80.8423" y1="211.177" x2="59.9225" y2="289.487" gradientUnits="userSpaceOnUse">
<stop stop-color="#E8F3F8" stop-opacity="0"/>
<stop offset="1" stop-color="#D8E6F7"/>
</linearGradient>
<linearGradient id="paint2_linear_62_404" x1="250.656" y1="-33.3243" x2="219.165" y2="14.7496" gradientUnits="userSpaceOnUse">
<stop stop-color="#E8F3F8" stop-opacity="0"/>
<stop offset="1" stop-color="#D8E6F7"/>
</linearGradient>
<linearGradient id="paint3_linear_62_404" x1="117.288" y1="220.053" x2="111.422" y2="277.747" gradientUnits="userSpaceOnUse">
<stop stop-color="#E8F3F8" stop-opacity="0"/>
<stop offset="1" stop-color="#D8E6F7"/>
</linearGradient>
<linearGradient id="paint4_linear_62_404" x1="66.7382" y1="83.8495" x2="56.7921" y2="397.239" gradientUnits="userSpaceOnUse">
<stop stop-color="#D8D5E9"/>
<stop offset="1" stop-color="#8173AC"/>
</linearGradient>
<linearGradient id="paint5_linear_62_404" x1="101.637" y1="31.2884" x2="-19.0148" y2="248.821" gradientUnits="userSpaceOnUse">
<stop stop-color="#E6E7E8"/>
<stop offset="1" stop-color="#BCBEC0"/>
</linearGradient>
<linearGradient id="paint6_linear_62_404" x1="156.706" y1="86.2262" x2="259.154" y2="244.795" gradientUnits="userSpaceOnUse">
<stop stop-color="#CAE1F4"/>
<stop offset="1" stop-color="#00C0E4"/>
</linearGradient>
<linearGradient id="paint7_linear_62_404" x1="202.21" y1="113.951" x2="219.286" y2="198.453" gradientUnits="userSpaceOnUse">
<stop stop-color="#CAE1F4"/>
<stop offset="1" stop-color="#00C0E4"/>
</linearGradient>
<linearGradient id="paint8_linear_62_404" x1="277.579" y1="214.439" x2="268.67" y2="185.329" gradientUnits="userSpaceOnUse">
<stop stop-color="#00C0E4"/>
<stop offset="1" stop-color="#00C0E4"/>
</linearGradient>
<linearGradient id="paint9_linear_62_404" x1="180.432" y1="244.17" x2="171.524" y2="215.06" gradientUnits="userSpaceOnUse">
<stop stop-color="#00C0E4"/>
<stop offset="1" stop-color="#00C0E4"/>
</linearGradient>
<linearGradient id="paint10_linear_62_404" x1="225.864" y1="179.677" x2="274.754" y2="156.227" gradientUnits="userSpaceOnUse">
<stop offset="0.153631" stop-color="#A8967D"/>
<stop offset="0.941341" stop-color="#AD867E"/>
</linearGradient>
<linearGradient id="paint11_linear_62_404" x1="262.17" y1="173.974" x2="251.665" y2="138.491" gradientUnits="userSpaceOnUse">
<stop offset="0.0530726" stop-color="#956B60" stop-opacity="0"/>
<stop offset="0.941341" stop-color="#442B1D"/>
</linearGradient>
<linearGradient id="paint12_linear_62_404" x1="201.324" y1="79.1498" x2="303.773" y2="237.718" gradientUnits="userSpaceOnUse">
<stop stop-color="#CAE1F4"/>
<stop offset="1" stop-color="#00C0E4"/>
</linearGradient>
<linearGradient id="paint13_linear_62_404" x1="229.315" y1="124.287" x2="284.17" y2="154.23" gradientUnits="userSpaceOnUse">
<stop stop-color="#C8EAFC"/>
<stop offset="1" stop-color="#A1D4FC" stop-opacity="0"/>
</linearGradient>
<linearGradient id="paint14_linear_62_404" x1="252.978" y1="132.854" x2="243.597" y2="149.743" gradientUnits="userSpaceOnUse">
<stop stop-color="#CAE1F4"/>
<stop offset="1" stop-color="#00C0E4"/>
</linearGradient>
<linearGradient id="paint15_linear_62_404" x1="119.86" y1="131.783" x2="222.308" y2="290.351" gradientUnits="userSpaceOnUse">
<stop stop-color="#CAE1F4"/>
<stop offset="1" stop-color="#00C0E4"/>
</linearGradient>
<linearGradient id="paint16_linear_62_404" x1="150.626" y1="158.794" x2="174.839" y2="172.012" gradientUnits="userSpaceOnUse">
<stop stop-color="#C8EAFC"/>
<stop offset="1" stop-color="#A1D4FC" stop-opacity="0"/>
</linearGradient>
<linearGradient id="paint17_linear_62_404" x1="149.241" y1="175.783" x2="176.661" y2="175.783" gradientUnits="userSpaceOnUse">
<stop stop-color="#CAE1F4"/>
<stop offset="1" stop-color="#00C0E4"/>
</linearGradient>
<linearGradient id="paint18_linear_62_404" x1="325.22" y1="49.4869" x2="168.071" y2="225.072" gradientUnits="userSpaceOnUse">
<stop offset="0.153631" stop-color="#A8967D"/>
<stop offset="0.941341" stop-color="#AD867E"/>
</linearGradient>
<linearGradient id="paint19_linear_62_404" x1="332.165" y1="53.2939" x2="172.297" y2="231.918" gradientUnits="userSpaceOnUse">
<stop offset="0.153631" stop-color="#A8967D"/>
<stop offset="0.941341" stop-color="#AD867E"/>
</linearGradient>
<linearGradient id="paint20_linear_62_404" x1="246.445" y1="133.559" x2="249.418" y2="143.968" gradientUnits="userSpaceOnUse">
<stop offset="0.0530726" stop-color="#956B60" stop-opacity="0"/>
<stop offset="0.941341" stop-color="#442B1D"/>
</linearGradient>
<linearGradient id="paint21_linear_62_404" x1="244.22" y1="129.945" x2="247.614" y2="141.83" gradientUnits="userSpaceOnUse">
<stop offset="0.0530726" stop-color="#956B60" stop-opacity="0"/>
<stop offset="0.941341" stop-color="#442B1D"/>
</linearGradient>
<linearGradient id="paint22_linear_62_404" x1="242.339" y1="128.052" x2="245.426" y2="138.859" gradientUnits="userSpaceOnUse">
<stop offset="0.0530726" stop-color="#956B60" stop-opacity="0"/>
<stop offset="0.941341" stop-color="#442B1D"/>
</linearGradient>
<linearGradient id="paint23_linear_62_404" x1="195.871" y1="126.261" x2="230.84" y2="248.684" gradientUnits="userSpaceOnUse">
<stop offset="0.0530726" stop-color="#956B60" stop-opacity="0"/>
<stop offset="0.941341" stop-color="#442B1D"/>
</linearGradient>
<linearGradient id="paint24_linear_62_404" x1="166.77" y1="164.337" x2="268.911" y2="193.149" gradientUnits="userSpaceOnUse">
<stop offset="0.153631" stop-color="#A8967D"/>
<stop offset="0.941341" stop-color="#AD867E"/>
</linearGradient>
<linearGradient id="paint25_linear_62_404" x1="225.832" y1="156.739" x2="225.655" y2="219.224" gradientUnits="userSpaceOnUse">
<stop offset="0.0530726" stop-color="#956B60" stop-opacity="0"/>
<stop offset="0.941341" stop-color="#442B1D"/>
</linearGradient>
<linearGradient id="paint26_linear_62_404" x1="168.471" y1="204.624" x2="151.568" y2="184.279" gradientUnits="userSpaceOnUse">
<stop offset="0.0530726" stop-color="#956B60" stop-opacity="0"/>
<stop offset="0.941341" stop-color="#442B1D"/>
</linearGradient>
<linearGradient id="paint27_linear_62_404" x1="204.117" y1="150.749" x2="180.434" y2="79.6441" gradientUnits="userSpaceOnUse">
<stop offset="0.153631" stop-color="#A8967D"/>
<stop offset="0.941341" stop-color="#AD867E"/>
</linearGradient>
<linearGradient id="paint28_linear_62_404" x1="189.481" y1="111.281" x2="183.418" y2="81.6882" gradientUnits="userSpaceOnUse">
<stop offset="0.0530726" stop-color="#956B60" stop-opacity="0"/>
<stop offset="0.941341" stop-color="#442B1D"/>
</linearGradient>
<linearGradient id="paint29_linear_62_404" x1="217.247" y1="124.564" x2="153.3" y2="13.2666" gradientUnits="userSpaceOnUse">
<stop offset="0.153631" stop-color="#A8967D"/>
<stop offset="0.941341" stop-color="#AD867E"/>
</linearGradient>
<linearGradient id="paint30_linear_62_404" x1="177.84" y1="83.2592" x2="157.275" y2="26.0804" gradientUnits="userSpaceOnUse">
<stop offset="0.0530726" stop-color="#956B60" stop-opacity="0"/>
<stop offset="0.941341" stop-color="#442B1D"/>
</linearGradient>
<linearGradient id="paint31_linear_62_404" x1="191.864" y1="78.0177" x2="178.583" y2="18.9334" gradientUnits="userSpaceOnUse">
<stop offset="0.0530726" stop-color="#956B60" stop-opacity="0"/>
<stop offset="0.941341" stop-color="#442B1D"/>
</linearGradient>
<linearGradient id="paint32_linear_62_404" x1="180.801" y1="81.2452" x2="169.396" y2="25.5818" gradientUnits="userSpaceOnUse">
<stop offset="0.0530726" stop-color="#956B60" stop-opacity="0"/>
<stop offset="0.941341" stop-color="#442B1D"/>
</linearGradient>
<linearGradient id="paint33_linear_62_404" x1="193.885" y1="135.877" x2="130.138" y2="24.9267" gradientUnits="userSpaceOnUse">
<stop offset="0.153631" stop-color="#A8967D"/>
<stop offset="0.941341" stop-color="#AD867E"/>
</linearGradient>
<linearGradient id="paint34_linear_62_404" x1="230.209" y1="115.678" x2="166.462" y2="4.72736" gradientUnits="userSpaceOnUse">
<stop offset="0.153631" stop-color="#A8967D"/>
<stop offset="0.941341" stop-color="#AD867E"/>
</linearGradient>
<linearGradient id="paint35_linear_62_404" x1="171.281" y1="12.3911" x2="173.413" y2="69.1012" gradientUnits="userSpaceOnUse">
<stop offset="0.162011" stop-color="#91786B"/>
<stop offset="0.835195" stop-color="#4E413E"/>
</linearGradient>
<linearGradient id="paint36_linear_62_404" x1="145.193" y1="63.9488" x2="170.136" y2="96.7272" gradientUnits="userSpaceOnUse">
<stop offset="0.0530726" stop-color="#956B60" stop-opacity="0"/>
<stop offset="0.941341" stop-color="#442B1D"/>
</linearGradient>
<linearGradient id="paint37_linear_62_404" x1="201.478" y1="61.1438" x2="200.886" y2="88.999" gradientUnits="userSpaceOnUse">
<stop offset="0.0530726" stop-color="#956B60" stop-opacity="0"/>
<stop offset="0.941341" stop-color="#442B1D"/>
</linearGradient>
<linearGradient id="paint38_linear_62_404" x1="183.74" y1="93.8097" x2="180.969" y2="76.8086" gradientUnits="userSpaceOnUse">
<stop offset="0.0530726" stop-color="#956B60" stop-opacity="0"/>
<stop offset="0.941341" stop-color="#442B1D"/>
</linearGradient>
<linearGradient id="paint39_linear_62_404" x1="170.975" y1="59.5043" x2="172.934" y2="70.6367" gradientUnits="userSpaceOnUse">
<stop offset="0.162011" stop-color="#91786B"/>
<stop offset="0.835195" stop-color="#4E413E"/>
</linearGradient>
<linearGradient id="paint40_linear_62_404" x1="187.58" y1="56.5814" x2="189.539" y2="67.7138" gradientUnits="userSpaceOnUse">
<stop offset="0.162011" stop-color="#91786B"/>
<stop offset="0.835195" stop-color="#4E413E"/>
</linearGradient>
<linearGradient id="paint41_linear_62_404" x1="166.57" y1="48.0233" x2="168.469" y2="59.8669" gradientUnits="userSpaceOnUse">
<stop offset="0.162011" stop-color="#91786B"/>
<stop offset="0.835195" stop-color="#4E413E"/>
</linearGradient>
<linearGradient id="paint42_linear_62_404" x1="184.585" y1="44.2356" x2="186.485" y2="56.0793" gradientUnits="userSpaceOnUse">
<stop offset="0.162011" stop-color="#91786B"/>
<stop offset="0.835195" stop-color="#4E413E"/>
</linearGradient>
<linearGradient id="paint43_linear_62_404" x1="186.403" y1="86.8574" x2="184.359" y2="65.3875" gradientUnits="userSpaceOnUse">
<stop offset="0.0530726" stop-color="#956B60" stop-opacity="0"/>
<stop offset="0.941341" stop-color="#442B1D"/>
</linearGradient>
<linearGradient id="paint44_linear_62_404" x1="185.609" y1="78.4499" x2="183.116" y2="63.2075" gradientUnits="userSpaceOnUse">
<stop offset="0.0083799" stop-color="#D6B7A7"/>
<stop offset="1" stop-color="#907C60" stop-opacity="0"/>
</linearGradient>
<linearGradient id="paint45_linear_62_404" x1="181.302" y1="56.3184" x2="187.485" y2="76.0832" gradientUnits="userSpaceOnUse">
<stop offset="0.162011" stop-color="#91786B"/>
<stop offset="0.835195" stop-color="#4E413E"/>
</linearGradient>
<linearGradient id="paint46_linear_62_404" x1="174.52" y1="24.2605" x2="176.831" y2="48.9035" gradientUnits="userSpaceOnUse">
<stop offset="0.162011" stop-color="#91786B"/>
<stop offset="0.835195" stop-color="#4E413E"/>
</linearGradient>
<linearGradient id="paint47_linear_62_404" x1="175.941" y1="59.2652" x2="133.331" y2="-58.1051" gradientUnits="userSpaceOnUse">
<stop offset="0.0083799" stop-color="#D6B7A7"/>
<stop offset="1" stop-color="#907C60" stop-opacity="0"/>
</linearGradient>
<linearGradient id="paint48_linear_62_404" x1="193.26" y1="102.733" x2="197.624" y2="161.394" gradientUnits="userSpaceOnUse">
<stop stop-color="#CAE1F4"/>
<stop offset="1" stop-color="#00C0E4"/>
</linearGradient>
<linearGradient id="paint49_linear_62_404" x1="210.992" y1="113.938" x2="189.657" y2="143.459" gradientUnits="userSpaceOnUse">
<stop stop-color="#C8EAFC"/>
<stop offset="1" stop-color="#A1D4FC" stop-opacity="0"/>
</linearGradient>
</defs>
</svg>
