<svg width="689" height="449" viewBox="0 0 689 449" fill="none" xmlns="http://www.w3.org/2000/svg">
<path d="M669.063 305.652C670.264 311.446 670.051 317.175 668.986 322.59C664.975 342.972 649.293 357.271 631.437 357.271H442.215C430.579 353.895 420.806 349.382 412.873 344.132C401.982 336.935 394.537 328.355 390.455 319.413L390.453 319.41C383.963 305.226 385.925 290.152 396.008 278.272C398.248 275.63 400.892 273.145 403.933 270.864C435.568 247.144 456.533 217.89 458.782 181.914C461.032 145.943 476.678 123.406 512.335 127.757C518.881 128.556 525.097 130.592 530.927 133.656C544.262 140.669 555.553 153.067 564.009 168.372C572.011 182.848 577.474 199.923 579.729 217.494C581.107 228.233 583.394 237.392 586.328 245.078C595.49 269.07 610.956 278.683 624.709 277.189C632.367 276.356 640.478 276.575 647.71 279.098C657.624 282.555 665.886 290.336 669.063 305.652Z" fill="url(#paint0_linear_62_405)"/>
<path d="M647.285 278.732C640.881 284.862 630.166 292.574 612.368 300.325C585.969 311.816 582.458 339.707 583.026 356.905H548.16C544.459 336.135 545.361 304.857 566.833 283.261C577.688 272.342 583.171 257.693 585.902 244.712C595.065 268.704 610.53 278.318 624.283 276.824C631.941 275.99 640.052 276.209 647.285 278.732Z" fill="url(#paint1_linear_62_405)"/>
<path d="M563.583 168.006C551.084 173.978 532.407 189.172 520.364 227.801C500.892 290.262 477.491 344.88 441.79 356.905C430.154 353.529 420.38 349.016 412.447 343.766C430.346 335.025 454.225 320.353 453.674 304.495C452.834 280.303 434.134 315.695 390.028 319.044C383.538 304.86 385.499 289.786 395.582 277.906C415.444 277.953 456.401 273.017 483.034 235.106C515.254 189.257 508.863 147.336 530.501 133.29C543.837 140.303 555.128 152.701 563.583 168.006Z" fill="url(#paint2_linear_62_405)"/>
<path d="M593.476 176.556C593.916 182.817 590.718 188.053 586.334 188.251C581.949 188.45 578.038 183.535 577.598 177.275C577.159 171.014 580.356 165.778 584.741 165.579C589.125 165.381 593.036 170.295 593.476 176.556Z" fill="url(#paint3_linear_62_405)"/>
<path d="M487.325 243.393C486.526 249.472 482.349 254.102 477.996 253.733C473.644 253.364 470.763 248.137 471.563 242.057C472.362 235.977 476.539 231.348 480.891 231.717C485.244 232.086 488.124 237.313 487.325 243.393Z" fill="url(#paint4_linear_62_405)"/>
<path opacity="0.4" d="M563.392 0.689819H532.24V30.351H563.392V0.689819Z" fill="url(#paint5_linear_62_405)"/>
<g opacity="0.4">
<path opacity="0.4" d="M574.725 40.9678H555.586V59.1901H574.725V40.9678Z" fill="url(#paint6_linear_62_405)"/>
</g>
<path opacity="0.4" d="M647.826 291.316H616.673V320.977H647.826V291.316Z" fill="url(#paint7_linear_62_405)"/>
<g opacity="0.4">
<path opacity="0.4" d="M688.401 251.316H669.263V269.538H688.401V251.316Z" fill="url(#paint8_linear_62_405)"/>
</g>
<path opacity="0.4" d="M679.661 52.0085H670.194V61.0222H679.661V52.0085Z" fill="url(#paint9_linear_62_405)"/>
<g opacity="0.4">
<path opacity="0.4" d="M660.871 41.5841H655.055V47.1216H660.871V41.5841Z" fill="url(#paint10_linear_62_405)"/>
</g>
<path opacity="0.4" d="M229.348 21.0888H219.881V30.1025H229.348V21.0888Z" fill="url(#paint11_linear_62_405)"/>
<g opacity="0.4">
<path opacity="0.4" d="M210.558 10.6645H204.742V16.202H210.558V10.6645Z" fill="url(#paint12_linear_62_405)"/>
</g>
<path opacity="0.4" d="M569.587 207.025H557.83V218.219H569.587V207.025Z" fill="url(#paint13_linear_62_405)"/>
<g opacity="0.4">
<path opacity="0.4" d="M556.025 188.201H548.802V195.078H556.025V188.201Z" fill="url(#paint14_linear_62_405)"/>
</g>
<path opacity="0.4" d="M108.352 212.91H170.367V271.956H108.352V212.91Z" fill="url(#paint15_linear_62_405)"/>
<g opacity="0.4">
<path opacity="0.4" d="M134.402 196.014H96.3023V232.289H134.402V196.014Z" fill="url(#paint16_linear_62_405)"/>
</g>
<g opacity="0.4">
<path opacity="0.4" d="M77.2958 166.106H60.8418V181.772H77.2958V166.106Z" fill="url(#paint17_linear_62_405)"/>
</g>
<path d="M230.448 286.008C88.0348 300.486 14.6989 320.14 2.49875 345.319C-9.70136 370.498 43.5938 380.57 82.7626 382.808C121.931 385.046 150.826 389.523 137.984 399.035C125.142 408.547 87.8995 409.107 121.931 424.774C155.963 440.441 273.47 457.786 417.944 441.56C562.419 425.333 616.999 409.107 595.167 381.689C573.335 354.272 491.787 360.427 489.861 345.879C487.935 331.331 530.314 330.212 518.114 319.021C505.914 307.83 415.595 321.142 399.433 311.408C383.271 301.675 442.987 303.354 410.239 288.246C377.492 273.139 268.975 282.091 230.448 286.008Z" fill="url(#paint18_linear_62_405)"/>
<path opacity="0.64" d="M297.406 301.77C208.606 312.973 162.878 328.18 155.271 347.663C147.664 367.147 180.896 374.94 205.319 376.672C229.742 378.404 247.759 381.867 239.751 389.228C231.744 396.588 208.522 397.021 229.742 409.144C250.962 421.267 324.231 434.689 414.316 422.133C504.402 409.577 538.434 397.021 524.821 375.806C511.208 354.591 460.36 359.353 459.159 348.096C457.958 336.839 484.383 335.974 476.776 327.314C469.168 318.655 412.851 328.955 402.774 321.424C392.696 313.892 429.931 315.191 409.512 303.501C389.093 291.811 321.429 298.739 297.406 301.77Z" fill="url(#paint19_linear_62_405)"/>
<path d="M488.509 377.811C488.509 390.185 463.073 400.216 431.698 400.216C400.323 400.216 374.887 390.185 374.887 377.811C374.887 377.267 374.938 376.73 375.032 376.196C377.132 364.572 401.702 355.403 431.698 355.403C461.694 355.403 486.264 364.572 488.364 376.196C488.458 376.73 488.509 377.267 488.509 377.811Z" fill="url(#paint20_linear_62_405)"/>
<path d="M488.364 376.196C486.26 387.813 461.694 396.986 431.698 396.986C401.702 396.986 377.136 387.813 375.032 376.196C377.132 364.572 401.702 355.403 431.698 355.403C461.694 355.403 486.264 364.572 488.364 376.196Z" fill="url(#paint21_linear_62_405)"/>
<path d="M469.688 378.932C469.375 380.29 465.7 381.364 461.214 381.364C456.728 381.364 453.053 380.29 452.739 378.932C452.896 378.257 453.868 377.656 455.356 377.219C448.735 378.794 440.441 379.73 431.437 379.73C430.081 379.73 428.741 379.708 427.421 379.667C425.783 381.987 419.079 383.725 411.063 383.725C402.22 383.725 394.98 381.61 394.361 378.932C394.709 377.417 397.174 376.082 400.845 375.209C395.971 373.34 392.856 371.023 392.272 368.486C393.722 362.197 410.703 357.239 431.437 357.239C452.171 357.239 469.152 362.197 470.601 368.486C469.814 371.881 464.493 374.892 456.493 376.94C457.844 376.66 459.466 376.496 461.214 376.496C465.7 376.496 469.375 377.57 469.688 378.932Z" fill="url(#paint22_linear_62_405)"/>
<path d="M445.411 304.941L443.374 325.376L439.347 370.124C439.347 370.124 437.575 371.843 433.398 372.089C429.218 372.339 425.562 370.1 425.562 370.1L426.659 325.581L427.13 306.433L445.411 304.941Z" fill="url(#paint23_linear_62_405)"/>
<path d="M445.411 304.941L443.374 325.376C441.379 326.574 438.68 327.574 435.224 327.574C432.301 327.574 429.324 326.716 426.659 325.581L427.13 306.433L445.411 304.941Z" fill="url(#paint24_linear_62_405)"/>
<path d="M515.937 294.497C515.882 295.101 515.737 295.691 515.498 296.261C512.258 304.174 492.452 309.057 478.324 310.911C463.173 312.899 424.001 317.749 412.501 317.376C397.092 316.88 353.993 292.509 342.76 284.302C331.527 276.095 323.433 269.876 323.433 262.665C323.433 255.45 332.311 246.497 349.029 245.255C355.948 244.744 369.003 242.946 383.257 241.163C403.439 238.637 426.034 236.131 437.055 237.298C437.055 237.298 499.219 274.353 506.271 279.079C513.324 283.802 516.72 285.544 515.937 294.497Z" fill="url(#paint25_linear_62_405)"/>
<path d="M515.937 294.497C515.882 295.101 515.737 295.691 515.498 296.261C510.538 296.329 505.064 295.758 499.125 294.236C468.568 286.402 392.758 248.915 392.758 248.915C389.22 246.128 386.066 243.55 383.257 241.163C403.439 238.637 426.034 236.131 437.055 237.298C437.055 237.298 499.219 274.353 506.271 279.079C513.323 283.802 516.72 285.544 515.937 294.497Z" fill="url(#paint26_linear_62_405)"/>
<path d="M513.586 284.3C512.822 283.776 507.578 279.078 482.242 283.057C456.905 287.036 424.778 291.264 413.807 295.74C402.837 300.217 402.575 308.673 405.449 312.403C408.322 316.133 413.023 317.626 424.255 317.377C435.487 317.128 479.369 311.408 497.914 306.683C516.459 301.958 516.131 298.171 517.112 293.875C517.765 291.015 516.851 286.539 513.586 284.3Z" fill="url(#paint27_linear_62_405)"/>
<path d="M475.048 267.358C472.216 271.454 465.559 277.095 450.377 283.556C410.934 300.343 354.13 277.05 354.13 277.05C354.13 277.05 354.354 277.08 354.738 277.109C357.038 277.277 365.101 277.371 365.101 270.335C365.101 262.128 368.098 260.054 368.098 260.054L476.757 260.427C476.757 260.427 478.05 263.027 475.048 267.358Z" fill="url(#paint28_linear_62_405)"/>
<path d="M475.048 267.358C471.401 270.096 459.368 277.199 428.835 281.153C391.751 285.958 366.406 282.149 355.435 277.423C355.2 277.322 354.969 277.218 354.738 277.109C357.038 277.277 365.101 277.371 365.101 270.335C365.101 262.128 368.098 260.054 368.098 260.054L476.757 260.427C476.757 260.427 478.05 263.027 475.048 267.358Z" fill="url(#paint29_linear_62_405)"/>
<path d="M537.974 139.224C536.834 156.033 534.625 179.266 532.555 197C532.525 197.257 532.495 197.518 532.465 197.778C529.138 226.714 526.873 270.252 520.553 275.562C514.177 280.919 508.176 280.919 501.425 278.419C494.674 275.919 432.414 238.424 429.414 234.496C426.413 230.567 424.163 223.068 425.288 212.712C425.337 212.255 425.419 211.634 425.532 210.866C427.973 194.25 444.499 108.32 446.291 98.0823C447.63 90.4368 448.564 85.2659 451.19 82.3341C452.236 81.1557 453.56 80.3415 455.293 79.8701C460.544 78.4417 462.044 75.942 477.046 82.0127C492.049 88.0834 537.431 111.652 538.556 118.08C538.991 120.569 538.698 128.615 537.974 139.224Z" fill="url(#paint30_linear_62_405)"/>
<path d="M532.465 197.778C529.138 226.714 526.873 270.252 520.553 275.562C514.177 280.919 508.176 280.919 501.425 278.419C494.674 275.92 432.414 238.424 429.414 234.496C426.413 230.568 424.163 223.068 425.288 212.712C425.337 212.255 425.419 211.634 425.532 210.866C438.194 212.937 452.997 213.866 470.081 212.762C499.321 210.873 519.282 204.417 532.465 197.778Z" fill="url(#paint31_linear_62_405)"/>
<path d="M537.973 139.223C537.396 139.791 536.833 140.176 536.304 140.337C530.802 142.005 530.303 128.674 517.802 118.911C507.601 110.951 466.127 89.8392 451.188 82.3329C452.235 81.1545 453.559 80.3403 455.291 79.8689C460.542 78.4405 462.043 75.9408 477.045 82.0115C492.047 88.0823 537.429 111.651 538.554 118.079C538.99 120.568 538.697 128.613 537.973 139.223Z" fill="url(#paint32_linear_62_405)"/>
<path d="M538.554 118.079C538.554 118.079 534.054 111.294 525.052 115.579C516.051 119.865 515.051 144.147 512.8 161.05C510.55 177.953 505.549 247.35 504.799 260.206C504.049 273.061 503.299 279.846 511.05 280.323C518.801 280.799 523.427 274.966 524.677 268.657C525.927 262.348 534.804 201.046 536.804 166.764C538.804 132.482 540.43 122.959 538.554 118.079Z" fill="url(#paint33_linear_62_405)"/>
<path d="M511.551 89.987L510.16 97.5719L508.799 104.985C508.799 104.985 506.923 106.771 504.8 106.532C502.674 106.296 502.299 103.914 502.299 103.914L503.923 92.9474L504.8 87.0123C509.174 85.7018 511.551 89.987 511.551 89.987Z" fill="url(#paint34_linear_62_405)"/>
<path d="M511.551 89.987L510.16 97.5719C509.954 97.5005 509.755 97.4183 509.556 97.329C507.448 96.3577 505.374 94.4687 503.923 92.9474L504.8 87.0123C509.174 85.7018 511.551 89.987 511.551 89.987Z" fill="url(#paint35_linear_62_405)"/>
<path d="M485.92 77.7383L484.626 83.5198L483.171 90.0333C483.171 90.0333 481.295 91.4939 479.169 91.3011C477.046 91.1046 476.671 89.1549 476.671 89.1549L478.505 78.9918L479.169 75.2993C483.546 74.228 485.92 77.7383 485.92 77.7383Z" fill="url(#paint36_linear_62_405)"/>
<path d="M485.92 77.7383L484.626 83.5198C484.431 83.4484 484.24 83.3698 484.052 83.2841C481.986 82.3306 479.953 80.4951 478.505 78.9917L479.169 75.2993C483.546 74.228 485.92 77.7383 485.92 77.7383Z" fill="url(#paint37_linear_62_405)"/>
<path d="M533.882 86.5051C533.609 87.1051 533.29 87.6943 532.93 88.2621C527.491 96.8325 523.115 97.0682 520.677 96.8897C518.239 96.7111 463.731 71.4783 462.794 70.5855C462.059 69.8856 457.963 64.7719 458.154 57.7619C458.203 55.855 458.574 53.8017 459.418 51.659C463.356 41.6602 472.733 42.3744 475.358 42.1958L533.492 67.193C533.492 67.193 537.742 78.0846 533.882 86.5051Z" fill="url(#paint38_linear_62_405)"/>
<path d="M533.883 86.5052C533.609 87.1051 533.29 87.6943 532.93 88.2621C527.492 96.8325 523.115 97.0682 520.677 96.8897C518.239 96.7111 463.731 71.4783 462.794 70.5855C462.059 69.8856 457.963 64.7719 458.154 57.7619C466.979 62.6828 481.037 69.9499 497.993 76.6777C510.963 81.8235 523.707 84.791 533.883 86.5052Z" fill="url(#paint39_linear_62_405)"/>
<path d="M518.114 75.7622C515.984 80.7234 514.363 92.9031 519.614 96.117C524.865 99.3309 531.991 95.7599 535.366 87.0109C538.742 78.2619 538.679 69.5129 533.491 67.1917C528.303 64.8706 521.052 68.9177 518.114 75.7622Z" fill="url(#paint40_linear_62_405)"/>
<path d="M458.342 7.12892C454.553 7.02584 449.2 7.25327 445.151 16.7037C441.103 26.1542 443.845 36.5994 443.845 36.5994L463.174 9.98892C463.174 9.98892 462.913 7.25327 458.342 7.12892Z" fill="url(#paint41_linear_62_405)"/>
<path d="M448.416 35.4803C448.416 35.4803 437.054 58.236 440.188 67.5621C443.323 76.8882 467.614 79.7482 477.671 69.5517C487.727 59.3552 483.809 39.0864 482.242 34.6099C480.674 30.1334 477.671 29.263 477.671 29.263L448.416 35.4803Z" fill="url(#paint42_linear_62_405)"/>
<path d="M481.327 32.3718C481.327 32.3718 483.025 46.1744 481.589 56.4953C480.152 66.8162 476.757 70.1736 476.757 70.1736C476.757 70.1736 482.503 68.5571 486.421 56.2466C490.339 43.9362 487.727 31.004 487.727 31.004L481.327 32.3718Z" fill="url(#paint43_linear_62_405)"/>
<path d="M495.826 100.205C495.826 100.205 459.976 113.261 432.354 102.256C404.732 91.2516 409.367 77.8855 409.367 77.8855C409.367 77.8855 409.947 76.1396 411.091 74.129C412.552 71.5512 414.946 68.5333 418.249 68.1864C421.117 67.8805 427.096 68.3766 432.816 68.7907C435.245 68.966 437.623 69.1265 439.7 69.2085C442.756 69.3242 445.15 69.2607 446.067 68.8056C446.991 68.3468 448.041 66.4928 449.052 64.15C449.052 64.15 449.052 64.1463 449.052 64.1426C449.303 63.5718 449.542 62.975 449.781 62.3594C451.744 57.2972 453.382 51.1495 453.382 51.1495L465.657 50.5899C465.657 50.5899 465.394 52.3171 465.069 54.8314C464.336 60.4644 463.279 70.0665 464.09 73.1591C464.548 74.9049 467.334 76.7403 471.048 78.5309C472.474 79.221 474.041 79.9074 475.663 80.5789C480.639 82.6418 486.164 84.5854 489.949 86.2156C498.176 89.7595 495.826 100.205 495.826 100.205Z" fill="url(#paint44_linear_62_405)"/>
<path d="M449.052 64.1501C448.946 65.3736 448.371 69.4062 445.291 71.5027C441.632 73.9909 426.222 70.6336 421.391 71.2528C416.556 71.8758 411.855 78.3406 411.855 78.3406L411.091 74.129C412.552 71.5512 414.946 68.5333 418.249 68.1864C421.117 67.8805 427.096 68.3766 432.816 68.7907C435.245 68.9661 437.623 69.1265 439.7 69.2085C442.756 69.3242 445.15 69.2608 446.067 68.8056C446.991 68.3468 448.041 66.4928 449.052 64.1501Z" fill="url(#paint45_linear_62_405)"/>
<path d="M471.475 86.1448C471.475 86.1448 452.277 81.575 448.555 81.7615C444.833 81.9481 443.461 80.8289 441.111 79.3368C438.76 77.8446 423.284 72.622 423.284 72.622C423.284 72.622 439.347 76.8187 441.502 77.7513C443.657 78.6839 444.441 80.1761 446.498 80.0828C448.555 79.9896 450.22 79.9896 455.803 81.3885C461.386 82.7874 471.475 86.1448 471.475 86.1448Z" fill="url(#paint46_linear_62_405)"/>
<path d="M465.655 50.5885C465.655 50.5885 465.393 52.3157 465.068 54.83C463.097 57.1653 460.213 59.549 456.123 60.8472C453.592 61.6493 451.496 62.1119 449.78 62.3581C451.743 57.2958 453.38 51.1481 453.38 51.1481L465.655 50.5885Z" fill="url(#paint47_linear_62_405)"/>
<path d="M480.153 36.4142C474.092 51.9552 455.862 56.5586 450.377 55.999C449.832 55.9431 449.307 55.8386 448.802 55.6819C444.206 54.2606 441.326 48.5867 442.736 37.1603C443.833 28.2856 447.552 20.8695 451.141 16.3893C452.68 14.4681 454.197 13.0841 455.47 12.3529C471.013 3.4521 487.206 18.3216 480.153 36.4142Z" fill="url(#paint48_linear_62_405)"/>
<path d="M450.605 31.0861C449.818 33.1622 448.128 34.4837 446.83 34.0376C445.532 33.5915 445.118 31.5469 445.905 29.4707C446.692 27.3946 448.382 26.0732 449.68 26.5192C450.978 26.9653 451.392 29.01 450.605 31.0861Z" fill="url(#paint49_linear_62_405)"/>
<path d="M461.463 33.4877C460.584 35.8062 458.665 37.271 457.176 36.7594C455.687 36.2478 455.193 33.9535 456.072 31.6349C456.951 29.3164 458.871 27.8517 460.359 28.3633C461.848 28.8749 462.342 31.1692 461.463 33.4877Z" fill="url(#paint50_linear_62_405)"/>
<path d="M455.085 11.0696C455.085 11.0696 450.579 20.3335 456.195 28.4161C461.811 36.4987 476.895 36.0635 476.895 36.0635L458.611 7.3391L455.085 11.0696Z" fill="url(#paint51_linear_62_405)"/>
<path d="M444.767 39.8563C444.975 48.8952 447.728 53.5221 448.802 55.682C444.206 54.2608 441.326 48.5868 442.736 37.1604C443.833 28.2857 447.552 20.8696 451.141 16.3894C451.364 16.3259 451.493 16.2924 451.493 16.2924C451.493 16.2924 444.473 27.1728 444.767 39.8563Z" fill="url(#paint52_linear_62_405)"/>
<path d="M475.662 80.5777C474.428 82.1892 472.469 85.0095 470.62 88.7623C467.614 94.8578 466.96 98.5883 466.96 98.5883L459.453 99.2075C459.453 99.2075 461.804 91.9332 465.46 85.9048C467.748 82.1296 469.816 79.7682 471.047 78.5297C472.473 79.2198 474.04 79.9062 475.662 80.5777Z" fill="url(#paint53_linear_62_405)"/>
<path d="M439.699 69.2074C437.442 71.2591 433.332 75.6871 430.295 82.9503C426.385 92.3025 425.594 94.6079 425.594 94.6079L420.99 91.8101C420.99 91.8101 423.439 81.9244 427.847 75.0231C429.79 71.9791 431.506 70.0243 432.815 68.7896C435.244 68.9649 437.622 69.1253 439.699 69.2074Z" fill="url(#paint54_linear_62_405)"/>
<path d="M401.989 124.639C401.989 124.639 401.989 127.064 395.916 136.949C395.254 138.028 394.008 139.516 392.319 141.307C378.489 155.952 334.795 191.041 334.795 191.041L328.722 181.901L378.994 125.982L390.431 113.261L401.989 124.639Z" fill="url(#paint55_linear_62_405)"/>
<path d="M401.989 124.639C401.989 124.639 401.989 127.064 395.916 136.949C395.254 138.028 394.008 139.516 392.319 141.307C389.463 140.471 386.485 139.21 384.887 137.345C382.011 133.999 380.123 129.444 378.994 125.982L390.431 113.261L401.989 124.639Z" fill="url(#paint56_linear_62_405)"/>
<path d="M423.153 89.7195L420.815 94.732L401.206 136.203C401.206 136.203 393.648 135.088 388.417 131.943C387.234 131.231 386.168 130.417 385.338 129.488C383.712 127.672 382.187 125.366 380.906 123.165C378.63 119.267 377.11 115.686 377.11 115.686L413.449 70.6408C413.653 71.9129 414.092 73.3118 414.672 74.7592C417.407 81.5747 423.153 89.7195 423.153 89.7195Z" fill="url(#paint57_linear_62_405)"/>
<path d="M420.815 94.7321L401.206 136.203C401.206 136.203 393.648 135.088 388.417 131.943L418.648 87.1705L420.815 94.7321Z" fill="url(#paint58_linear_62_405)"/>
<path d="M414.672 74.7592L414.664 74.86L380.906 123.165C378.63 119.267 377.11 115.686 377.11 115.686L413.449 70.6408C413.653 71.9129 414.092 73.3118 414.672 74.7592Z" fill="url(#paint59_linear_62_405)"/>
<path d="M496.217 93.0536C496.217 93.0536 496.155 93.8855 496.025 95.3739C495.645 99.7684 494.701 109.896 493.197 121.286C493.036 122.517 492.867 123.759 492.691 125.012C491.849 131.037 491.406 141.486 491.1 153.666C491.053 155.565 491.006 157.504 490.963 159.478C490.517 180.1 490.313 204.206 489.165 220.138C487.206 247.371 475.06 266.396 475.06 266.396C475.06 266.396 460.563 243.64 440.973 228.718C431.245 221.31 417.943 215.095 407.016 210.715C395.936 206.276 387.296 203.724 387.296 203.724L410.53 149.711L410.805 149.074C410.805 149.074 410.734 148.865 410.601 148.48C409.418 145.045 403.407 127.497 401.006 118.853C400.97 118.719 400.935 118.588 400.9 118.458L400.896 118.443L400.892 118.439C400.296 116.242 399.956 114.686 400.03 114.194C400.359 112.001 412.681 90.0954 416.611 83.1568C417.355 81.8399 417.798 81.0603 417.798 81.0603C417.798 81.0603 424.353 96.8773 441.886 98.6493C458.542 100.332 478.492 90.308 487.637 89.9573C487.801 89.9499 487.962 89.9461 488.119 89.9461C495.434 89.9461 496.217 93.0536 496.217 93.0536Z" fill="url(#paint60_linear_62_405)"/>
<path d="M493.196 121.286C493.036 122.517 492.867 123.759 492.691 125.012C490.34 141.799 491.124 192.906 489.165 220.138C480.6 232.982 464.227 191.25 461.484 185.468C458.741 179.686 450.122 164.95 444.637 163.645C440.045 162.552 417.743 151.916 410.601 148.48C409.398 144.993 403.219 126.952 400.9 118.458L400.896 118.443C401.292 118.723 429.478 138.621 446.858 134.238C464.356 129.821 465.265 115.686 465.265 115.686C465.265 115.686 480.486 109.74 484.416 109.926C486.614 110.031 490.344 116.029 493.196 121.286Z" fill="url(#paint61_linear_62_405)"/>
<path d="M410.53 149.711L407.016 210.715C395.936 206.276 387.296 203.724 387.296 203.724L410.53 149.711Z" fill="url(#paint62_linear_62_405)"/>
<path d="M418.974 129.511C418.974 129.511 403.787 121.095 401.006 118.853C400.97 118.719 400.935 118.588 400.9 118.458L400.896 118.443L400.892 118.439C400.296 116.242 399.956 114.686 400.03 114.194C400.359 112 412.681 90.0953 416.611 83.1567C415.4 88.7486 412.442 104.331 414.664 113.843C417.406 125.594 418.974 129.511 418.974 129.511Z" fill="url(#paint63_linear_62_405)"/>
<path d="M452.269 29.6361C452.269 29.6361 450.245 34.4856 448.808 36.1643C447.371 37.843 446.131 38.2161 446.131 38.2161L451.101 38.6749L452.269 29.6361Z" fill="url(#paint64_linear_62_405)"/>
<path d="M447.894 45.1175C447.894 45.1175 451.028 45.7392 454.032 45.2418C457.036 44.7444 458.473 44.0605 458.473 44.0605C458.473 44.0605 456.448 48.5992 453.118 49.1588C450.332 49.6269 447.894 45.1175 447.894 45.1175Z" fill="white"/>
<path d="M450.073 49.8288C450.073 49.8288 451.955 50.136 453.758 49.8902C455.561 49.6445 456.424 49.3065 456.424 49.3065C456.424 49.3065 455.209 51.5492 453.209 51.8257C451.537 52.057 450.073 49.8288 450.073 49.8288Z" fill="url(#paint65_linear_62_405)"/>
<path d="M448.528 32.6699C448.094 33.8141 447.152 34.5386 446.423 34.2881C445.694 34.0375 445.455 32.9068 445.888 31.7626C446.322 30.6183 447.265 29.8938 447.994 30.1444C448.723 30.3949 448.962 31.5256 448.528 32.6699Z" fill="url(#paint66_linear_62_405)"/>
<path d="M459.455 35.6754C459.016 36.835 458.011 37.5521 457.211 37.2772C456.411 37.0023 456.119 35.8394 456.558 34.6798C456.998 33.5202 458.003 32.803 458.803 33.078C459.603 33.3529 459.895 34.5158 459.455 35.6754Z" fill="url(#paint67_linear_62_405)"/>
<path d="M472.055 38.0919C472.055 38.0919 477.671 34.2371 480.283 37.4701C482.895 40.7032 477.279 47.418 473.491 48.4128C469.704 49.4075 467.745 46.5475 467.745 46.5475L472.055 38.0919Z" fill="url(#paint68_linear_62_405)"/>
<path d="M474.536 39.0242C474.536 39.0242 477.018 38.0916 478.258 39.3973C479.499 40.7029 477.867 44.5577 474.536 45.9256C471.206 47.2934 470.879 44.8686 471.337 44.4334C471.794 43.9982 474.275 43.9982 474.732 42.6303C475.189 41.2625 472.643 41.6977 472.643 41.6977C472.643 41.6977 473.1 39.7703 474.536 39.0242Z" fill="url(#paint69_linear_62_405)"/>
<path d="M468.79 33.2422L468.267 45.1796L475.189 34.1126L468.79 33.2422Z" fill="url(#paint70_linear_62_405)"/>
<path d="M455.338 7.37792C455.338 7.37792 454.163 19.8127 459.648 28.0197C465.133 36.2266 473.1 37.3458 477.148 37.7188C481.197 38.0919 487.596 33.7397 487.596 33.7397C487.596 33.7397 490.6 21.5536 487.727 15.2118C485.365 9.99953 481.458 6.38313 476.626 6.25878C471.794 6.13443 458.342 5.5127 455.338 7.37792Z" fill="url(#paint71_linear_62_405)"/>
<path d="M458.35 12.5618C458.35 12.5618 458.252 23.007 467.753 29.3488C477.254 35.6905 485.776 32.1466 485.776 32.1466C485.776 32.1466 475.001 32.3331 468.732 27.8566C462.464 23.3801 458.35 12.5618 458.35 12.5618Z" fill="url(#paint72_linear_62_405)"/>
<path d="M464.096 12.0078C464.096 12.0078 464.018 20.3639 471.619 25.4374C479.22 30.5108 486.037 27.6756 486.037 27.6756C486.037 27.6756 477.417 27.8248 472.402 24.2436C467.387 20.6624 464.096 12.0078 464.096 12.0078Z" fill="url(#paint73_linear_62_405)"/>
<path d="M342.239 277.337C341.82 279.098 340.315 284.678 338.239 292.244C334.364 306.371 328.499 327.429 324.024 343.451C320.4 356.441 317.685 366.121 317.685 366.121C317.685 366.121 315.334 368.113 310.374 367.863C310.202 367.856 310.033 367.841 309.865 367.819C305.12 367.24 301.135 362.107 301.135 362.107C301.135 362.107 302.225 352.509 303.69 339.564C305.708 321.748 308.439 297.601 310.017 283.432C310.209 281.709 310.386 280.135 310.539 278.736C312.889 257.472 313.704 249.344 324.056 244.043C327.829 242.114 333.087 242.539 337.6 244.55C340.86 246.005 343.728 248.284 345.374 251.101C349.292 257.816 344.069 269.63 342.239 277.337Z" fill="url(#paint74_linear_62_405)"/>
<path d="M342.238 277.336C340.408 285.046 317.684 366.12 317.684 366.12C317.684 366.12 315.333 368.112 310.373 367.862C310.2 367.855 310.032 367.84 309.863 367.817C310.956 363.938 312.465 358.581 314.549 351.198C321.018 328.275 333.951 263.141 337.599 244.549C340.859 246.004 343.727 248.283 345.372 251.099C349.29 257.814 344.068 269.628 342.238 277.336Z" fill="url(#paint75_linear_62_405)"/>
<path d="M342.239 277.337C341.82 279.098 340.316 284.678 338.239 292.244C335.281 291.863 331.19 291.151 325.658 289.856C317.873 288.036 312.944 285.469 310.018 283.432C310.21 281.709 310.386 280.135 310.539 278.736C312.889 257.472 313.704 249.344 324.056 244.043C327.829 242.114 333.087 242.539 337.6 244.55C340.86 246.005 343.728 248.284 345.374 251.101C349.292 257.816 344.069 269.63 342.239 277.337Z" fill="url(#paint76_linear_62_405)"/>
<path d="M353.992 273.482L331.267 433.798C331.267 433.798 331.463 434.823 332.835 434.823C334.206 434.823 334.99 434.208 334.99 434.208L363.395 274.165L353.992 273.482Z" fill="url(#paint77_linear_62_405)"/>
<path d="M458.472 261.493L483.313 412.999C483.313 412.999 484.462 413.435 484.854 413.435C485.246 413.435 486.029 412.515 486.029 412.515L467.092 260.177L458.472 261.493Z" fill="url(#paint78_linear_62_405)"/>
<path d="M324.023 343.45C320.399 356.44 317.684 366.12 317.684 366.12C317.684 366.12 315.333 368.112 310.373 367.862C310.2 367.855 310.032 367.84 309.863 367.818C305.119 367.239 301.134 362.106 301.134 362.106C301.134 362.106 302.223 352.508 303.689 339.563C306.764 341.764 311.607 344.361 317.359 344.361C319.913 344.361 322.131 343.995 324.023 343.45Z" fill="url(#paint79_linear_62_405)"/>
<path d="M324.023 343.45C322.891 347.509 321.849 351.243 320.947 354.462C320.873 354.735 320.799 355 320.724 355.261C320.579 355.779 320.438 356.287 320.301 356.775C320.242 356.981 320.187 357.182 320.133 357.38C320.015 357.794 319.901 358.197 319.792 358.588C319.737 358.782 319.686 358.976 319.631 359.163C319.208 360.674 318.843 361.972 318.55 363.028C318.51 363.162 318.475 363.289 318.444 363.412C318.052 364.807 317.801 365.706 317.715 366.008C317.703 366.045 317.695 366.072 317.692 366.09C317.688 366.109 317.684 366.12 317.684 366.12C317.684 366.12 315.333 368.112 310.373 367.862C310.2 367.855 310.032 367.84 309.863 367.817C310.956 363.938 312.465 358.581 314.549 351.198C315.11 349.21 315.721 346.901 316.367 344.334C316.692 344.353 317.026 344.36 317.359 344.36C319.913 344.36 322.131 343.995 324.023 343.45Z" fill="url(#paint80_linear_62_405)"/>
<path d="M209.287 172.387L184.211 319.615C184.211 319.615 184.342 320.61 185.256 320.61C186.17 320.61 186.954 320.113 186.954 320.113L217.906 178.853L209.287 172.387Z" fill="url(#paint81_linear_62_405)"/>
<path d="M328.918 255.578C326.99 258.17 319.707 266.918 310.331 278.05C299.541 290.864 285.969 306.834 274.603 320.174C261.759 335.256 251.733 346.973 251.733 346.973C251.733 346.973 248.223 346.973 244.367 345.325C243.952 345.149 243.533 344.952 243.113 344.735C238.804 342.497 239.979 336.901 239.979 336.901C239.979 336.901 247.823 323.748 257.971 306.875C268.31 289.681 281.044 268.619 290.31 253.671C296.775 243.249 301.555 235.795 302.667 234.687C311.287 226.107 320.298 226.853 327.351 232.076C329.137 233.4 330.548 234.989 331.547 236.769C334.497 242.003 333.89 248.897 328.918 255.578Z" fill="url(#paint82_linear_62_405)"/>
<path d="M328.917 255.576C324.767 261.154 295.833 295.253 274.601 320.173C261.758 335.255 251.732 346.972 251.732 346.972C251.732 346.972 248.221 346.972 244.366 345.323C262.753 323.31 314.867 257.777 331.546 236.768C334.496 242.001 333.889 248.895 328.917 255.576Z" fill="url(#paint83_linear_62_405)"/>
<path d="M328.918 255.578C326.99 258.17 319.707 266.918 310.331 278.05C309.971 276.494 308.513 272.193 302.609 264.553C298.843 259.681 294.126 256.078 290.31 253.671C296.775 243.249 301.555 235.795 302.667 234.687C311.287 226.107 320.298 226.853 327.351 232.076C329.137 233.4 330.548 234.989 331.547 236.769C334.497 242.003 333.89 248.897 328.918 255.578Z" fill="url(#paint84_linear_62_405)"/>
<path d="M274.601 320.176C261.758 335.258 251.732 346.972 251.732 346.972C251.732 346.972 248.225 346.972 244.37 345.327C243.954 345.151 243.535 344.954 243.112 344.734C238.802 342.495 239.978 336.9 239.978 336.9C239.978 336.9 247.822 323.746 257.969 306.873C261.233 307.414 265.907 308.727 269.363 311.906C269.798 312.305 270.201 312.715 270.577 313.129C270.675 313.241 270.773 313.349 270.867 313.461C270.946 313.551 271.02 313.637 271.091 313.726C271.479 314.189 271.827 314.659 272.149 315.129C272.254 315.285 272.356 315.442 272.458 315.599V315.602C272.56 315.763 272.662 315.92 272.756 316.08C272.858 316.252 272.956 316.419 273.05 316.591C273.14 316.755 273.23 316.919 273.312 317.083C273.398 317.244 273.481 317.408 273.555 317.568C273.633 317.725 273.708 317.886 273.778 318.042C273.778 318.042 273.782 318.046 273.782 318.05C273.853 318.206 273.923 318.363 273.986 318.516C274.053 318.673 274.115 318.826 274.174 318.979C274.229 319.117 274.28 319.255 274.331 319.389C274.429 319.658 274.519 319.922 274.601 320.176Z" fill="url(#paint85_linear_62_405)"/>
<path d="M274.601 320.176C261.758 335.258 251.732 346.972 251.732 346.972C251.732 346.972 248.225 346.972 244.37 345.327C250.337 338.179 259.866 326.443 270.577 313.129C270.675 313.241 270.773 313.349 270.867 313.461C270.946 313.551 271.02 313.637 271.091 313.726C271.479 314.189 271.827 314.659 272.149 315.129C272.254 315.286 272.356 315.442 272.458 315.599V315.603C272.56 315.763 272.662 315.92 272.756 316.08C272.858 316.252 272.956 316.42 273.05 316.591C273.14 316.755 273.23 316.919 273.312 317.084C273.398 317.244 273.481 317.408 273.555 317.569C273.633 317.725 273.708 317.886 273.778 318.042C273.778 318.042 273.782 318.046 273.782 318.05C273.853 318.206 273.923 318.363 273.986 318.516C274.053 318.673 274.115 318.826 274.174 318.979C274.229 319.117 274.28 319.255 274.331 319.389C274.429 319.658 274.519 319.922 274.601 320.176Z" fill="url(#paint86_linear_62_405)"/>
<path d="M488.248 245.006L483.68 263.162L350.726 279.576L199.827 172.255L197.704 170.744V156.195L338.744 143.325L438.807 211.38L488.248 245.006Z" fill="url(#paint87_linear_62_405)"/>
<path d="M438.807 211.38C418.833 204.661 398.134 198.174 377.478 192.403C285.926 166.819 218.383 170.516 199.827 172.255L197.704 170.744V156.195L338.744 143.325L438.807 211.38Z" fill="url(#paint88_linear_62_405)"/>
<path d="M197.704 156.196L352.555 262.167L350.727 279.576L197.704 170.744V156.196Z" fill="url(#paint89_linear_62_405)"/>
<path d="M488.249 245.007L352.555 262.167L350.727 279.576L483.678 263.162L488.249 245.007Z" fill="url(#paint90_linear_62_405)"/>
<path opacity="0.51" d="M247.863 169.373L228.754 170.546C227.29 170.577 226.725 172.397 227.931 173.197L345.535 251.256C348.113 252.967 351.271 253.667 354.365 253.212L370.174 250.585C372.446 250.252 373.097 247.396 371.18 246.174L252.737 170.73C251.294 169.811 249.593 169.337 247.863 169.373Z" fill="url(#paint91_linear_62_405)"/>
<path opacity="0.51" d="M338.07 156.923L298.623 161.137L403.292 231.61L447.971 226.63L338.07 156.923Z" fill="url(#paint92_linear_62_405)"/>
<path d="M339.302 155.431L301.234 159.498L402.243 227.506L445.36 222.701L339.302 155.431Z" fill="url(#paint93_linear_62_405)"/>
<path d="M301.234 159.498L301.172 161.476L402.395 230.081L402.243 227.506L301.234 159.498Z" fill="url(#paint94_linear_62_405)"/>
<path d="M445.36 222.701L402.243 227.506L402.395 230.081L444.645 224.609L445.36 222.701Z" fill="url(#paint95_linear_62_405)"/>
<path d="M271.029 182.952L252.651 184.687L301.415 213.705L322.231 211.655L271.029 182.952Z" fill="url(#paint96_linear_62_405)"/>
<path d="M252.651 184.687V188.02L300.57 219.457L301.415 213.705L252.651 184.687Z" fill="url(#paint97_linear_62_405)"/>
<path d="M322.231 211.655L301.415 213.705L300.57 219.457L320.921 217.258L322.231 211.655Z" fill="url(#paint98_linear_62_405)"/>
<path d="M378.527 238.032L329.718 208.15L293.858 186.195L250.526 159.665C250.526 159.665 249.083 156.108 246.887 150.306C243.025 140.089 236.831 122.904 232.101 105.904C231.243 102.826 230.4 99.5761 229.581 96.2342C223.322 70.7976 218.294 40.027 218.226 39.6169V39.6135L349.816 108.409C349.816 108.409 349.816 108.409 349.816 108.413C349.856 108.645 353.147 128.201 357.288 149.448C359.463 160.605 361.875 172.23 364.172 181.763C370.872 209.554 378.527 238.032 378.527 238.032Z" fill="url(#paint99_linear_62_405)"/>
<path d="M378.527 238.032L329.718 208.15L293.858 186.195L250.526 159.665C250.526 159.665 249.083 156.108 246.887 150.306C263.967 154.14 286.3 157.054 311.735 155.308C329.291 154.102 344.53 151.925 357.288 149.448C359.463 160.605 361.875 172.23 364.172 181.763C370.872 209.554 378.527 238.032 378.527 238.032Z" fill="url(#paint100_linear_62_405)"/>
<path d="M360.104 104.539L349.816 108.411C349.816 108.411 353.884 144.404 361.779 174.816C369.675 205.228 378.527 238.032 378.527 238.032L389.414 231.881L360.104 104.539Z" fill="url(#paint101_linear_62_405)"/>
<path d="M360.104 104.538L226.478 34.3748L218.224 39.6143L349.816 108.411L360.104 104.538Z" fill="url(#paint102_linear_62_405)"/>
<path d="M321.822 204.392L285.962 182.437L284.386 140.042L304.595 144.655L321.822 204.392Z" fill="url(#paint103_linear_62_405)"/>
<path opacity="0.6" d="M349.805 108.409C348.858 108.129 286.024 89.6188 260.489 90.9377C250.286 91.4674 239.221 93.7124 229.581 96.2342C223.322 70.7976 218.294 40.027 218.226 39.6169L349.805 108.409Z" fill="url(#paint104_linear_62_405)"/>
<path d="M279.714 132.9L304.596 144.653L303.002 204.392L296.125 205.676L269.665 190.99C269.665 190.99 273.948 149.256 274.928 144.653C276.364 137.912 279.714 132.9 279.714 132.9Z" fill="url(#paint105_linear_62_405)"/>
<path d="M299.116 157.358C300.23 150.726 304.596 144.653 304.596 144.653L303.002 204.392L296.125 205.676C296.125 205.676 298.001 163.99 299.116 157.358Z" fill="url(#paint106_linear_62_405)"/>
<path d="M507.317 162.191C507.317 162.191 506.207 171.455 488.576 172.947C472.673 174.293 467.876 162.191 467.876 162.191C467.876 162.191 467.614 154.108 482.503 152.057C497.391 150.005 507.317 162.191 507.317 162.191Z" fill="url(#paint107_linear_62_405)"/>
<path d="M352.012 80.8519C358.72 80.8519 364.158 74.6388 364.158 66.9747C364.158 59.3105 358.72 53.0974 352.012 53.0974C345.304 53.0974 339.866 59.3105 339.866 66.9747C339.866 74.6388 345.304 80.8519 352.012 80.8519Z" fill="white"/>
<path d="M318.632 66.3003C323.074 66.3003 326.675 62.1859 326.675 57.1105C326.675 52.0352 323.074 47.9208 318.632 47.9208C314.19 47.9208 310.589 52.0352 310.589 57.1105C310.589 62.1859 314.19 66.3003 318.632 66.3003Z" fill="white"/>
<path d="M377.1 111.521C380.98 111.521 384.126 107.926 384.126 103.492C384.126 99.0584 380.98 95.4639 377.1 95.4639C373.219 95.4639 370.073 99.0584 370.073 103.492C370.073 107.926 373.219 111.521 377.1 111.521Z" fill="white"/>
<path d="M317.113 122.612C321.673 122.612 325.369 117.962 325.369 112.227C325.369 106.491 321.673 101.842 317.113 101.842C312.553 101.842 308.857 106.491 308.857 112.227C308.857 117.962 312.553 122.612 317.113 122.612Z" fill="white"/>
<path d="M501.047 196.758C500.788 202.481 501.309 207.204 491.644 209.692C481.982 212.18 478.585 202.481 478.585 202.481L476.363 160.346L475.713 148.017C490.339 137.321 500.263 149.259 500.263 149.259C500.263 149.259 500.432 155.992 500.616 164.43C500.894 176.998 501.204 193.338 501.047 196.758Z" fill="url(#paint108_linear_62_405)"/>
<path d="M494.779 213.423C489.294 217.4 437.055 222.623 437.055 222.623C437.055 222.623 432.612 223.619 431.307 222.127C430.003 220.634 430.003 220.634 430.003 220.634C430.003 220.634 420.729 225.857 419.032 225.361C418.899 225.324 418.782 225.279 418.68 225.23C417.461 224.682 418.249 223.615 419.816 222.127C421.407 220.612 423.804 218.657 424.094 218.419C424.012 218.467 423.769 218.613 423.409 218.821C421.269 220.079 414.973 223.701 413.676 223.496C413.441 223.458 413.234 223.417 413.061 223.365C412.07 223.067 412.082 222.47 413.414 220.884C414.883 219.135 419.107 215.748 419.628 215.33C419.647 215.319 419.659 215.307 419.671 215.3C419.679 215.292 419.683 215.289 419.683 215.289L419.675 215.292C419.667 215.296 419.659 215.304 419.647 215.311C418.927 215.748 407.349 222.753 405.578 222.873C404.865 222.921 404.406 222.701 404.199 222.321C403.87 221.731 404.132 220.746 404.927 219.765C406.154 218.247 412.101 213.002 412.818 212.364C412.83 212.357 412.842 212.345 412.85 212.338L412.818 212.36C411.964 212.976 404.457 218.351 403.098 217.527C402.804 217.348 402.671 217.091 402.69 216.751C402.757 215.434 405.178 212.939 409.758 209.566C415.506 205.34 416.419 203.724 418.116 204.221C419.816 204.717 434.963 212.677 434.963 212.677C434.963 212.677 481.979 190.541 484.855 189.549C487.727 188.553 496.609 188.553 500.002 195.764C500.727 197.308 501.158 198.819 501.33 200.277C501.949 205.631 499.089 210.294 494.779 213.423Z" fill="url(#paint109_linear_62_405)"/>
<path d="M494.779 213.424C489.294 217.4 437.055 222.623 437.055 222.623C437.055 222.623 432.612 223.619 431.307 222.127C430.003 220.635 430.003 220.635 430.003 220.635C430.003 220.635 420.729 225.857 419.032 225.361C418.899 225.324 418.782 225.279 418.68 225.23C419.177 224.999 419.683 224.738 420.149 224.451C422.108 223.238 428.279 218.482 430.042 218.389C431.805 218.296 434.32 219.228 436.146 219.228C437.976 219.228 465.664 216.74 481.337 211.271C493.388 207.063 499.262 202.266 501.33 200.277C501.949 205.631 499.089 210.294 494.779 213.424Z" fill="url(#paint110_linear_62_405)"/>
<path d="M427.918 216.244C427.723 216.244 427.201 216.367 426.547 216.554C425.897 216.74 423.805 218.546 423.805 218.546L423.409 218.822C421.27 220.079 414.973 223.701 413.677 223.496C413.441 223.459 413.234 223.418 413.061 223.365C413.21 223.261 413.391 223.149 413.618 223.022C414.73 222.399 423.938 216.057 423.938 216.057C425.959 214.875 428.114 216.244 427.918 216.244Z" fill="url(#paint111_linear_62_405)"/>
<path d="M423.479 213.323C423.479 213.323 423.087 213.446 422.304 213.696C421.52 213.942 419.683 215.289 419.683 215.289L419.675 215.293L419.671 215.3L419.647 215.311C418.927 215.748 407.349 222.753 405.578 222.873C404.865 222.921 404.406 222.701 404.199 222.321C405.554 222.212 406.132 221.92 406.877 221.513C408.706 220.517 418.061 214.379 420.216 213.196C422.37 212.017 423.479 213.323 423.479 213.323Z" fill="url(#paint112_linear_62_405)"/>
<path d="M420.216 209.466C420.216 209.466 418.844 209.279 417.928 209.279C417.015 209.279 412.85 212.338 412.85 212.338L412.818 212.36C411.964 212.976 404.457 218.351 403.098 217.527C402.804 217.348 402.671 217.091 402.69 216.751C403.693 217.037 405.182 216.448 407.122 215.288C409.931 213.609 415.381 209.033 417.34 208.346C419.299 207.664 420.216 209.466 420.216 209.466Z" fill="url(#paint113_linear_62_405)"/>
<path d="M500.616 164.43C499.1 163.688 497.262 162.86 495.041 161.942C487.506 158.835 480.454 159.48 476.363 160.346L475.713 148.017C490.339 137.321 500.263 149.259 500.263 149.259C500.263 149.259 500.432 155.992 500.616 164.43Z" fill="url(#paint114_linear_62_405)"/>
<path d="M507.317 162.19C507.317 162.19 507.219 162.089 507.027 161.906C506.279 161.19 504.097 159.228 500.856 157.355C498.235 155.837 494.917 154.371 491.1 153.666C489.467 153.367 487.739 153.203 485.936 153.237H485.897C480.718 153.341 476.741 154.889 473.857 156.665C469.763 159.194 467.874 162.19 467.874 162.19L465.265 115.686C465.618 111.299 467.295 105.2 471.679 100.253C473.759 97.9067 476.447 95.8177 479.891 94.2957C482.124 93.3108 484.122 92.7848 485.893 92.5647C487.845 92.3223 489.514 92.4565 490.901 92.7699C494.305 93.5272 496.021 95.3551 496.021 95.3551L496.025 95.3738L507.286 162.014L507.317 162.19Z" fill="url(#paint115_linear_62_405)"/>
<path d="M456.594 26.7765C456.594 26.7765 458.579 25.7506 460.791 27.5865C463.003 29.4223 462.946 31.9602 462.946 31.9602C462.946 31.9602 461.698 29.7463 459.6 28.3424C458.08 27.3255 456.594 26.7765 456.594 26.7765Z" fill="url(#paint116_linear_62_405)"/>
<path d="M451.316 25.8073C451.316 25.8073 449.881 24.5495 447.622 25.6426C445.363 26.7358 444.849 28.8724 444.849 28.8724C444.849 28.8724 446.384 27.2691 448.452 26.5149C449.95 25.9686 451.316 25.8073 451.316 25.8073Z" fill="url(#paint117_linear_62_405)"/>
<path d="M452.269 29.6361C452.269 29.6361 451.297 33.3124 449.828 35.2709C448.359 37.2294 446.547 38.3019 446.547 38.3019L450.71 43.1048L444.588 37.8822C444.588 37.8822 446.302 37.3693 448.702 35.131C451.101 32.8928 452.269 29.6361 452.269 29.6361Z" fill="url(#paint118_linear_62_405)"/>
<path d="M451.101 38.675L450.644 42.7784L446.547 38.3019L451.101 38.675Z" fill="url(#paint119_linear_62_405)"/>
<path d="M325.65 383.841C322.712 391.488 314.092 392.981 306.452 394.1C303.149 394.585 299.443 396.114 295.76 398.061C290.925 400.609 286.137 403.87 282.356 406.41C275.696 410.887 269.035 410.327 261.395 407.902C253.755 405.478 249.641 398.203 253.951 391.488C258.261 384.774 271.778 384.774 280.985 377.499C290.192 370.225 294.306 355.676 297.049 353.811C299.792 351.946 307.628 353.438 308.803 354.557C309.978 355.676 311.35 360.712 311.35 360.712C312.235 361.287 312.987 361.637 313.638 361.809C316.58 362.607 317.376 359.81 318.5 357.821C319.871 355.396 324.671 354.557 326.042 361.645C327.414 368.733 328.589 376.194 325.65 383.841Z" fill="url(#paint120_linear_62_405)"/>
<path d="M325.651 383.841C322.712 391.488 314.092 392.98 306.452 394.1C303.149 394.585 299.443 396.114 295.76 398.061C297.213 392.824 299.596 386.139 303.459 378.891C306.942 372.351 310.546 366.502 313.638 361.809C316.58 362.607 317.376 359.809 318.5 357.821C319.871 355.396 324.671 354.557 326.042 361.645C327.414 368.733 328.589 376.194 325.651 383.841Z" fill="url(#paint121_linear_62_405)"/>
<path d="M326.117 377.958C324.552 378.597 319.13 387.844 312.991 389.834C306.853 391.823 300.454 390.331 297.972 392.072C295.491 393.813 284.52 403.014 277.599 405.004C270.677 406.993 260.882 404.88 258.662 402.268C256.441 399.657 254.874 396.921 253.307 397.667C251.74 398.414 251.348 399.035 251.74 402.393C252.131 405.75 257.356 409.978 263.755 411.346C270.154 412.713 277.99 411.719 283.084 408.859C288.177 405.999 298.625 399.533 305.286 397.294C311.947 395.056 327.096 389.212 328.663 383.865C330.231 378.518 327.945 377.212 326.117 377.958Z" fill="url(#paint122_linear_62_405)"/>
<path d="M263.291 358.213C258.981 361.059 253.888 361.414 239.783 359.813C232.131 358.944 228.864 359.541 225.721 360.298C223.069 360.936 220.514 361.69 215.492 361.768C204.521 361.947 193.747 359.101 189.045 355.009C184.343 350.92 183.56 344.694 188.457 340.422C193.355 336.155 201.191 338.289 212.553 336.688C223.915 335.088 231.751 333.663 234.298 331.175C236.845 328.683 237.95 326.109 239 323.703C241.19 318.67 253.3 321.035 254.672 324.415C256.043 327.795 251.537 331.884 252.321 334.554C252.587 335.461 253.171 335.998 253.982 336.207C255.553 336.61 257.967 335.782 260.549 334.021C264.467 331.35 264.859 332.063 266.23 337.043C267.601 342.023 267.601 355.367 263.291 358.213Z" fill="url(#paint123_linear_62_405)"/>
<path d="M263.291 358.213C258.981 361.059 253.888 361.414 239.783 359.813C232.131 358.944 228.864 359.541 225.721 360.298C226.666 358.75 227.978 357.056 229.733 355.202C238.204 346.261 247.016 340.161 253.982 336.207C255.553 336.61 257.967 335.782 260.549 334.021C264.467 331.35 264.858 332.063 266.23 337.043C267.601 342.023 267.601 355.367 263.291 358.213Z" fill="url(#paint124_linear_62_405)"/>
<path d="M233.847 355.016C223.872 355.575 215.041 359.306 204.658 357.441C194.275 355.576 191.141 347.369 189.574 346.063C188.007 344.757 186.243 343.265 185.068 346.809C183.893 350.353 185.264 354.27 190.553 357.441C195.843 360.612 200.74 362.29 214.061 362.85C227.383 363.409 229.538 360.612 237.961 361.358C246.385 362.104 259.315 363.223 263.233 360.612C267.151 358 268.13 353.71 266.563 352.964C264.996 352.218 257.943 355.762 251.87 356.135C245.797 356.508 240.508 354.643 233.847 355.016Z" fill="url(#paint125_linear_62_405)"/>
<path d="M507.286 162.014C507.2 161.977 507.113 161.94 507.027 161.906C506.279 161.19 504.096 159.228 500.856 157.355C498.235 155.837 494.917 154.371 491.1 153.666C489.467 153.367 487.739 153.203 485.936 153.237C485.012 138.718 483.836 116.801 484.216 103.734C484.357 98.8431 484.714 95.1948 485.384 93.6354C485.545 93.2624 485.713 92.9043 485.893 92.5648C486.41 91.5539 486.998 90.6884 487.637 89.9572C487.801 89.9498 487.962 89.946 488.119 89.946C495.434 89.946 496.217 93.0535 496.217 93.0535C496.217 93.0535 496.844 94.4785 496.715 95.9669L507.286 162.014Z" fill="url(#paint126_linear_62_405)"/>
<path d="M414.797 104.842C417.722 104.842 420.094 102.584 420.094 99.7991C420.094 97.0138 417.722 94.7558 414.797 94.7558C411.871 94.7558 409.5 97.0138 409.5 99.7991C409.5 102.584 411.871 104.842 414.797 104.842Z" fill="#E6E7E8"/>
<path d="M583.928 323.675C558.832 326.559 520.363 335.943 565.031 352.3C609.698 368.658 663.498 355.352 652.808 344.446C642.118 333.541 620.356 335.358 617.301 328.088C614.247 320.818 600.189 321.807 583.928 323.675Z" fill="url(#paint127_linear_62_405)"/>
<path opacity="0.51" d="M588.438 98.5864C577.144 98.5864 567.992 107.304 567.992 118.054C567.992 128.808 577.144 137.521 588.438 137.521C599.729 137.521 608.885 128.808 608.885 118.054C608.885 107.304 599.729 98.5864 588.438 98.5864ZM588.438 131.143C580.845 131.143 574.691 125.284 574.691 118.054C574.691 110.828 580.845 104.964 588.438 104.964C596.032 104.964 602.186 110.828 602.186 118.054C602.186 125.284 596.032 131.143 588.438 131.143Z" fill="url(#paint128_linear_62_405)"/>
<path d="M588.439 102.091C588.439 103.606 589.557 104.92 591.118 105.213C597.429 106.401 602.186 111.701 602.186 118.054C602.186 124.411 597.429 129.708 591.119 130.895C589.557 131.188 588.439 132.502 588.439 134.017C588.439 136.01 590.342 137.541 592.395 137.157C601.793 135.403 608.885 127.519 608.885 118.054C608.885 108.593 601.793 100.706 592.396 98.9511C590.342 98.5675 588.439 100.098 588.439 102.091Z" fill="url(#paint129_linear_62_405)"/>
<path opacity="0.51" d="M665.651 181.298C674.031 181.298 680.825 174.829 680.825 166.85C680.825 158.87 674.031 152.401 665.651 152.401C657.27 152.401 650.476 158.87 650.476 166.85C650.476 174.829 657.27 181.298 665.651 181.298Z" fill="url(#paint130_linear_62_405)"/>
<path opacity="0.51" d="M676.88 148.645C681.238 148.645 684.771 145.281 684.771 141.132C684.771 136.982 681.238 133.619 676.88 133.619C672.522 133.619 668.989 136.982 668.989 141.132C668.989 145.281 672.522 148.645 676.88 148.645Z" fill="url(#paint131_linear_62_405)"/>
<path opacity="0.51" d="M649.565 146.622C655.935 146.622 661.098 141.706 661.098 135.641C661.098 129.577 655.935 124.661 649.565 124.661C643.196 124.661 638.032 129.577 638.032 135.641C638.032 141.706 643.196 146.622 649.565 146.622Z" fill="url(#paint132_linear_62_405)"/>
<path opacity="0.51" d="M626.22 191.942C608.656 191.942 594.426 205.497 594.426 222.213C594.426 238.935 608.656 252.484 626.22 252.484C643.776 252.484 658.013 238.935 658.013 222.213C658.013 205.497 643.776 191.942 626.22 191.942ZM626.22 242.566C614.412 242.566 604.843 233.455 604.843 222.213C604.843 210.977 614.412 201.86 626.22 201.86C638.027 201.86 647.596 210.977 647.596 222.213C647.596 233.455 638.027 242.566 626.22 242.566Z" fill="url(#paint133_linear_62_405)"/>
<path d="M652.29 222.211C649.815 222.211 647.67 223.867 647.19 226.179C645.252 235.521 636.601 242.564 626.22 242.564C617.187 242.564 609.469 237.232 606.34 229.695C605.373 227.382 604.843 224.854 604.843 222.211C604.843 212.332 612.24 204.091 622.053 202.244C624.48 201.788 626.22 199.745 626.22 197.389V197.389C626.22 194.29 623.26 191.91 620.067 192.506C605.45 195.235 594.427 207.499 594.427 222.211C594.427 231.772 599.073 240.292 606.34 245.839C611.785 249.994 618.692 252.482 626.22 252.482C641.671 252.482 654.552 241.987 657.418 228.069C658.044 225.029 655.544 222.211 652.29 222.211Z" fill="url(#paint134_linear_62_405)"/>
<defs>
<linearGradient id="paint0_linear_62_405" x1="549.199" y1="359.26" x2="549.199" y2="145.371" gradientUnits="userSpaceOnUse">
<stop stop-color="#E8F3F8" stop-opacity="0"/>
<stop offset="1" stop-color="#D8E6F7"/>
</linearGradient>
<linearGradient id="paint1_linear_62_405" x1="483.414" y1="472.639" x2="668.33" y2="194.273" gradientUnits="userSpaceOnUse">
<stop stop-color="#E8F3F8" stop-opacity="0"/>
<stop offset="1" stop-color="#D8E6F7"/>
</linearGradient>
<linearGradient id="paint2_linear_62_405" x1="373.871" y1="401.389" x2="557.561" y2="124.87" gradientUnits="userSpaceOnUse">
<stop stop-color="#E8F3F8" stop-opacity="0"/>
<stop offset="1" stop-color="#D8E6F7"/>
</linearGradient>
<linearGradient id="paint3_linear_62_405" x1="572.009" y1="88.2682" x2="594.733" y2="252.522" gradientUnits="userSpaceOnUse">
<stop stop-color="#E8F3F8" stop-opacity="0"/>
<stop offset="1" stop-color="#D8E6F7"/>
</linearGradient>
<linearGradient id="paint4_linear_62_405" x1="458.958" y1="153.345" x2="468.547" y2="267.19" gradientUnits="userSpaceOnUse">
<stop stop-color="#E8F3F8" stop-opacity="0"/>
<stop offset="1" stop-color="#D8E6F7"/>
</linearGradient>
<linearGradient id="paint5_linear_62_405" x1="547.816" y1="83.8072" x2="547.816" y2="3.98509" gradientUnits="userSpaceOnUse">
<stop stop-color="#E7E9D4"/>
<stop offset="1" stop-color="#99AB6D"/>
</linearGradient>
<linearGradient id="paint6_linear_62_405" x1="565.156" y1="61.169" x2="565.156" y2="43.9215" gradientUnits="userSpaceOnUse">
<stop offset="0.0391061" stop-color="#C8DCDC"/>
<stop offset="1" stop-color="#47CAAC"/>
</linearGradient>
<linearGradient id="paint7_linear_62_405" x1="632.25" y1="237.86" x2="632.25" y2="317.682" gradientUnits="userSpaceOnUse">
<stop stop-color="#E7E9D4"/>
<stop offset="1" stop-color="#99AB6D"/>
</linearGradient>
<linearGradient id="paint8_linear_62_405" x1="678.832" y1="249.337" x2="678.832" y2="266.584" gradientUnits="userSpaceOnUse">
<stop offset="0.0391061" stop-color="#C8DCDC"/>
<stop offset="1" stop-color="#47CAAC"/>
</linearGradient>
<linearGradient id="paint9_linear_62_405" x1="674.927" y1="77.267" x2="674.927" y2="53.0099" gradientUnits="userSpaceOnUse">
<stop stop-color="#E7E9D4"/>
<stop offset="1" stop-color="#99AB6D"/>
</linearGradient>
<linearGradient id="paint10_linear_62_405" x1="657.963" y1="47.723" x2="657.963" y2="42.4817" gradientUnits="userSpaceOnUse">
<stop offset="0.0391061" stop-color="#C8DCDC"/>
<stop offset="1" stop-color="#47CAAC"/>
</linearGradient>
<linearGradient id="paint11_linear_62_405" x1="224.615" y1="46.3472" x2="224.615" y2="22.0902" gradientUnits="userSpaceOnUse">
<stop stop-color="#E7E9D4"/>
<stop offset="1" stop-color="#99AB6D"/>
</linearGradient>
<linearGradient id="paint12_linear_62_405" x1="207.65" y1="16.8034" x2="207.65" y2="11.5621" gradientUnits="userSpaceOnUse">
<stop offset="0.0391061" stop-color="#C8DCDC"/>
<stop offset="1" stop-color="#47CAAC"/>
</linearGradient>
<linearGradient id="paint13_linear_62_405" x1="563.708" y1="238.394" x2="563.708" y2="208.268" gradientUnits="userSpaceOnUse">
<stop stop-color="#E7E9D4"/>
<stop offset="1" stop-color="#99AB6D"/>
</linearGradient>
<linearGradient id="paint14_linear_62_405" x1="552.413" y1="195.825" x2="552.413" y2="189.316" gradientUnits="userSpaceOnUse">
<stop offset="0.0391061" stop-color="#C8DCDC"/>
<stop offset="1" stop-color="#47CAAC"/>
</linearGradient>
<linearGradient id="paint15_linear_62_405" x1="139.36" y1="106.494" x2="139.36" y2="265.397" gradientUnits="userSpaceOnUse">
<stop stop-color="#E7E9D4"/>
<stop offset="1" stop-color="#99AB6D"/>
</linearGradient>
<linearGradient id="paint16_linear_62_405" x1="115.352" y1="192.075" x2="115.352" y2="226.41" gradientUnits="userSpaceOnUse">
<stop offset="0.0391061" stop-color="#C8DCDC"/>
<stop offset="1" stop-color="#47CAAC"/>
</linearGradient>
<linearGradient id="paint17_linear_62_405" x1="69.0688" y1="164.404" x2="69.0688" y2="179.233" gradientUnits="userSpaceOnUse">
<stop offset="0.0391061" stop-color="#C8DCDC"/>
<stop offset="1" stop-color="#47CAAC"/>
</linearGradient>
<linearGradient id="paint18_linear_62_405" x1="-373.554" y1="218.304" x2="476.084" y2="421.966" gradientUnits="userSpaceOnUse">
<stop stop-color="#E8F3F8" stop-opacity="0"/>
<stop offset="1" stop-color="#D8E6F7"/>
</linearGradient>
<linearGradient id="paint19_linear_62_405" x1="340.939" y1="457.241" x2="340.939" y2="347.424" gradientUnits="userSpaceOnUse">
<stop stop-color="#E8F3F8" stop-opacity="0"/>
<stop offset="1" stop-color="#D8E6F7"/>
</linearGradient>
<linearGradient id="paint20_linear_62_405" x1="416.443" y1="338.213" x2="439.19" y2="403.347" gradientUnits="userSpaceOnUse">
<stop stop-color="#BCBEC0"/>
<stop offset="1" stop-color="#939598"/>
</linearGradient>
<linearGradient id="paint21_linear_62_405" x1="409.371" y1="344.186" x2="452.273" y2="412.031" gradientUnits="userSpaceOnUse">
<stop stop-color="#BCBEC0"/>
<stop offset="1" stop-color="#939598"/>
</linearGradient>
<linearGradient id="paint22_linear_62_405" x1="386.281" y1="340.447" x2="432.196" y2="376.366" gradientUnits="userSpaceOnUse">
<stop stop-color="#BCBEC0"/>
<stop offset="1" stop-color="#939598"/>
</linearGradient>
<linearGradient id="paint23_linear_62_405" x1="428.421" y1="412.029" x2="436.712" y2="288.122" gradientUnits="userSpaceOnUse">
<stop stop-color="#BCBEC0"/>
<stop offset="1" stop-color="#939598"/>
</linearGradient>
<linearGradient id="paint24_linear_62_405" x1="436.035" y1="297.816" x2="436.035" y2="327.615" gradientUnits="userSpaceOnUse">
<stop stop-color="#E275B2"/>
<stop offset="0.836203" stop-color="#A0909C"/>
<stop offset="1" stop-color="#939598"/>
</linearGradient>
<linearGradient id="paint25_linear_62_405" x1="503.107" y1="253.754" x2="339.268" y2="303.357" gradientUnits="userSpaceOnUse">
<stop offset="0.0391061" stop-color="#E384B7"/>
<stop offset="1" stop-color="#D643A8"/>
</linearGradient>
<linearGradient id="paint26_linear_62_405" x1="449.147" y1="268.847" x2="486.866" y2="244.438" gradientUnits="userSpaceOnUse">
<stop offset="0.0391061" stop-color="#E275B2"/>
<stop offset="1" stop-color="#B04383"/>
</linearGradient>
<linearGradient id="paint27_linear_62_405" x1="352.981" y1="371.338" x2="459.862" y2="293.117" gradientUnits="userSpaceOnUse">
<stop offset="0.0391061" stop-color="#E275B2"/>
<stop offset="1" stop-color="#B04383"/>
</linearGradient>
<linearGradient id="paint28_linear_62_405" x1="317.479" y1="303.137" x2="450.702" y2="253.107" gradientUnits="userSpaceOnUse">
<stop stop-color="#CAE1F4"/>
<stop offset="1" stop-color="#00C0E4"/>
</linearGradient>
<linearGradient id="paint29_linear_62_405" x1="305.057" y1="308.831" x2="522.857" y2="217.33" gradientUnits="userSpaceOnUse">
<stop stop-color="#5CA4E6" stop-opacity="0"/>
<stop offset="1" stop-color="#00B2BF"/>
</linearGradient>
<linearGradient id="paint30_linear_62_405" x1="494.229" y1="57.9624" x2="478.575" y2="224.522" gradientUnits="userSpaceOnUse">
<stop offset="0.0391061" stop-color="#E5C1CB"/>
<stop offset="1" stop-color="#E275B2"/>
</linearGradient>
<linearGradient id="paint31_linear_62_405" x1="479.348" y1="199.216" x2="474.585" y2="264.959" gradientUnits="userSpaceOnUse">
<stop offset="0.0391061" stop-color="#E384B7"/>
<stop offset="1" stop-color="#D643A8"/>
</linearGradient>
<linearGradient id="paint32_linear_62_405" x1="491.45" y1="91.6821" x2="532.748" y2="204.456" gradientUnits="userSpaceOnUse">
<stop offset="0.0391061" stop-color="#E5C1CB"/>
<stop offset="1" stop-color="#E275B2"/>
</linearGradient>
<linearGradient id="paint33_linear_62_405" x1="524.038" y1="125.269" x2="518.938" y2="312.218" gradientUnits="userSpaceOnUse">
<stop offset="0.0391061" stop-color="#E275B2"/>
<stop offset="1" stop-color="#B04383"/>
</linearGradient>
<linearGradient id="paint34_linear_62_405" x1="502.299" y1="96.6584" x2="511.551" y2="96.6584" gradientUnits="userSpaceOnUse">
<stop stop-color="#BCBEC0"/>
<stop offset="1" stop-color="#939598"/>
</linearGradient>
<linearGradient id="paint35_linear_62_405" x1="507.737" y1="109.472" x2="507.737" y2="93.9973" gradientUnits="userSpaceOnUse">
<stop stop-color="#BCBEC0"/>
<stop offset="1" stop-color="#939598"/>
</linearGradient>
<linearGradient id="paint36_linear_62_405" x1="476.671" y1="83.2073" x2="485.92" y2="83.2073" gradientUnits="userSpaceOnUse">
<stop stop-color="#BCBEC0"/>
<stop offset="1" stop-color="#939598"/>
</linearGradient>
<linearGradient id="paint37_linear_62_405" x1="482.35" y1="89.7771" x2="482.237" y2="79.421" gradientUnits="userSpaceOnUse">
<stop stop-color="#BCBEC0"/>
<stop offset="1" stop-color="#939598"/>
</linearGradient>
<linearGradient id="paint38_linear_62_405" x1="499.142" y1="55.8295" x2="492.495" y2="96.1095" gradientUnits="userSpaceOnUse">
<stop offset="0.0391061" stop-color="#E5C1CB"/>
<stop offset="1" stop-color="#E275B2"/>
</linearGradient>
<linearGradient id="paint39_linear_62_405" x1="496.177" y1="69.4566" x2="494.136" y2="107.559" gradientUnits="userSpaceOnUse">
<stop offset="0.0391061" stop-color="#E384B7"/>
<stop offset="1" stop-color="#D643A8"/>
</linearGradient>
<linearGradient id="paint40_linear_62_405" x1="525.766" y1="51.6617" x2="527.466" y2="101.305" gradientUnits="userSpaceOnUse">
<stop offset="0.0391061" stop-color="#E275B2"/>
<stop offset="1" stop-color="#B04383"/>
</linearGradient>
<linearGradient id="paint41_linear_62_405" x1="433.342" y1="1.05095" x2="461.107" y2="34.3592" gradientUnits="userSpaceOnUse">
<stop offset="0.162011" stop-color="#91786B"/>
<stop offset="0.835195" stop-color="#4E413E"/>
</linearGradient>
<linearGradient id="paint42_linear_62_405" x1="467.649" y1="37.6078" x2="456.924" y2="78.9098" gradientUnits="userSpaceOnUse">
<stop offset="0.162011" stop-color="#36312C"/>
<stop offset="0.835195" stop-color="#4E413E"/>
</linearGradient>
<linearGradient id="paint43_linear_62_405" x1="467.606" y1="-1.0007" x2="488.816" y2="81.4686" gradientUnits="userSpaceOnUse">
<stop offset="0.162011" stop-color="#91786B"/>
<stop offset="0.835195" stop-color="#4E413E"/>
</linearGradient>
<linearGradient id="paint44_linear_62_405" x1="449.49" y1="114.594" x2="455.891" y2="56.0792" gradientUnits="userSpaceOnUse">
<stop offset="0.153631" stop-color="#E8CFAC"/>
<stop offset="0.941341" stop-color="#EDB7AC"/>
</linearGradient>
<linearGradient id="paint45_linear_62_405" x1="429.578" y1="67.7481" x2="434.457" y2="89.2439" gradientUnits="userSpaceOnUse">
<stop offset="0.0307263" stop-color="#E8E0D9"/>
<stop offset="1" stop-color="#E8CFAC" stop-opacity="0"/>
</linearGradient>
<linearGradient id="paint46_linear_62_405" x1="445.519" y1="69.5966" x2="450.774" y2="100.09" gradientUnits="userSpaceOnUse">
<stop offset="0.0642458" stop-color="#EDB7AC" stop-opacity="0"/>
<stop offset="0.963687" stop-color="#AB6564"/>
</linearGradient>
<linearGradient id="paint47_linear_62_405" x1="453.464" y1="71.2014" x2="461.099" y2="44.3851" gradientUnits="userSpaceOnUse">
<stop offset="0.0642458" stop-color="#EDB7AC" stop-opacity="0"/>
<stop offset="0.963687" stop-color="#AB6564"/>
</linearGradient>
<linearGradient id="paint48_linear_62_405" x1="437.096" y1="6.99742" x2="486.117" y2="68.0567" gradientUnits="userSpaceOnUse">
<stop offset="0.153631" stop-color="#E8CFAC"/>
<stop offset="0.941341" stop-color="#EDB7AC"/>
</linearGradient>
<linearGradient id="paint49_linear_62_405" x1="447.76" y1="31.4673" x2="451.717" y2="20.9822" gradientUnits="userSpaceOnUse">
<stop offset="0.0642458" stop-color="#EDB7AC" stop-opacity="0"/>
<stop offset="0.963687" stop-color="#AB6564"/>
</linearGradient>
<linearGradient id="paint50_linear_62_405" x1="456.425" y1="36.9451" x2="465.66" y2="17.88" gradientUnits="userSpaceOnUse">
<stop offset="0.0642458" stop-color="#EDB7AC" stop-opacity="0"/>
<stop offset="0.963687" stop-color="#AB6564"/>
</linearGradient>
<linearGradient id="paint51_linear_62_405" x1="456.465" y1="38.6169" x2="475.05" y2="6.22223" gradientUnits="userSpaceOnUse">
<stop offset="0.0642458" stop-color="#EDB7AC" stop-opacity="0"/>
<stop offset="0.963687" stop-color="#AB6564"/>
</linearGradient>
<linearGradient id="paint52_linear_62_405" x1="435.534" y1="45.4692" x2="470.997" y2="19.908" gradientUnits="userSpaceOnUse">
<stop offset="0.0307263" stop-color="#E8E0D9"/>
<stop offset="1" stop-color="#E8CFAC" stop-opacity="0"/>
</linearGradient>
<linearGradient id="paint53_linear_62_405" x1="443.728" y1="120.887" x2="467.482" y2="87.1924" gradientUnits="userSpaceOnUse">
<stop offset="0.0391061" stop-color="#C8DCDC"/>
<stop offset="1" stop-color="#47CAAC"/>
</linearGradient>
<linearGradient id="paint54_linear_62_405" x1="414.547" y1="100.314" x2="438.301" y2="66.6196" gradientUnits="userSpaceOnUse">
<stop offset="0.0391061" stop-color="#C8DCDC"/>
<stop offset="1" stop-color="#47CAAC"/>
</linearGradient>
<linearGradient id="paint55_linear_62_405" x1="350.568" y1="163.043" x2="389.51" y2="126.075" gradientUnits="userSpaceOnUse">
<stop offset="0.153631" stop-color="#E8CFAC"/>
<stop offset="0.941341" stop-color="#EDB7AC"/>
</linearGradient>
<linearGradient id="paint56_linear_62_405" x1="374.629" y1="114.087" x2="411.316" y2="149.08" gradientUnits="userSpaceOnUse">
<stop offset="0.0642458" stop-color="#EDB7AC" stop-opacity="0"/>
<stop offset="0.963687" stop-color="#AB6564"/>
</linearGradient>
<linearGradient id="paint57_linear_62_405" x1="415.551" y1="13.995" x2="390.27" y2="174.431" gradientUnits="userSpaceOnUse">
<stop offset="0.0391061" stop-color="#C8DCDC"/>
<stop offset="1" stop-color="#47CAAC"/>
</linearGradient>
<linearGradient id="paint58_linear_62_405" x1="387.905" y1="92.5259" x2="408.387" y2="117.148" gradientUnits="userSpaceOnUse">
<stop offset="0.0391061" stop-color="#C8DCDC"/>
<stop offset="1" stop-color="#47CAAC"/>
</linearGradient>
<linearGradient id="paint59_linear_62_405" x1="416.188" y1="74.8594" x2="374.751" y2="127.863" gradientUnits="userSpaceOnUse">
<stop offset="0.027933" stop-color="#E1EBF1"/>
<stop offset="1" stop-color="#C3DBDA" stop-opacity="0"/>
</linearGradient>
<linearGradient id="paint60_linear_62_405" x1="465.741" y1="47.0807" x2="440.459" y2="207.516" gradientUnits="userSpaceOnUse">
<stop offset="0.0391061" stop-color="#C8DCDC"/>
<stop offset="1" stop-color="#47CAAC"/>
</linearGradient>
<linearGradient id="paint61_linear_62_405" x1="530.719" y1="225.421" x2="451.012" y2="123.103" gradientUnits="userSpaceOnUse">
<stop offset="0.0391061" stop-color="#47CAAC"/>
<stop offset="1" stop-color="#47CAAC"/>
</linearGradient>
<linearGradient id="paint62_linear_62_405" x1="372.739" y1="139.577" x2="407.541" y2="194.051" gradientUnits="userSpaceOnUse">
<stop offset="0.027933" stop-color="#E1EBF1"/>
<stop offset="1" stop-color="#C3DBDA" stop-opacity="0"/>
</linearGradient>
<linearGradient id="paint63_linear_62_405" x1="396.239" y1="83.1696" x2="424.588" y2="127.544" gradientUnits="userSpaceOnUse">
<stop offset="0.027933" stop-color="#E1EBF1"/>
<stop offset="1" stop-color="#C3DBDA" stop-opacity="0"/>
</linearGradient>
<linearGradient id="paint64_linear_62_405" x1="448.077" y1="39.3827" x2="452.615" y2="30.6771" gradientUnits="userSpaceOnUse">
<stop offset="0.0307263" stop-color="#E8E0D9"/>
<stop offset="1" stop-color="#E8CFAC" stop-opacity="0"/>
</linearGradient>
<linearGradient id="paint65_linear_62_405" x1="453.284" y1="55.9712" x2="453.225" y2="44.2826" gradientUnits="userSpaceOnUse">
<stop offset="0.0642458" stop-color="#EDB7AC" stop-opacity="0"/>
<stop offset="0.963687" stop-color="#AB6564"/>
</linearGradient>
<linearGradient id="paint66_linear_62_405" x1="443.499" y1="38.5596" x2="446.465" y2="32.9645" gradientUnits="userSpaceOnUse">
<stop offset="0.162011" stop-color="#91786B"/>
<stop offset="0.835195" stop-color="#4E413E"/>
</linearGradient>
<linearGradient id="paint67_linear_62_405" x1="453.908" y1="42.1854" x2="456.875" y2="36.5904" gradientUnits="userSpaceOnUse">
<stop offset="0.162011" stop-color="#91786B"/>
<stop offset="0.835195" stop-color="#4E413E"/>
</linearGradient>
<linearGradient id="paint68_linear_62_405" x1="477.479" y1="21.4405" x2="472.973" y2="55.9445" gradientUnits="userSpaceOnUse">
<stop offset="0.153631" stop-color="#E8CFAC"/>
<stop offset="0.941341" stop-color="#EDB7AC"/>
</linearGradient>
<linearGradient id="paint69_linear_62_405" x1="487.982" y1="31.0437" x2="457.033" y2="60.5337" gradientUnits="userSpaceOnUse">
<stop offset="0.0642458" stop-color="#EDB7AC" stop-opacity="0"/>
<stop offset="0.963687" stop-color="#AB6564"/>
</linearGradient>
<linearGradient id="paint70_linear_62_405" x1="457.115" y1="-11.8651" x2="478.324" y2="70.6042" gradientUnits="userSpaceOnUse">
<stop offset="0.162011" stop-color="#91786B"/>
<stop offset="0.835195" stop-color="#4E413E"/>
</linearGradient>
<linearGradient id="paint71_linear_62_405" x1="466.842" y1="-0.804162" x2="488.051" y2="81.6653" gradientUnits="userSpaceOnUse">
<stop offset="0.162011" stop-color="#91786B"/>
<stop offset="0.835195" stop-color="#4E413E"/>
</linearGradient>
<linearGradient id="paint72_linear_62_405" x1="470.573" y1="12.7616" x2="475.911" y2="52.377" gradientUnits="userSpaceOnUse">
<stop offset="0.0530726" stop-color="#956B60" stop-opacity="0"/>
<stop offset="0.941341" stop-color="#442B1D"/>
</linearGradient>
<linearGradient id="paint73_linear_62_405" x1="473.875" y1="12.1676" x2="478.145" y2="43.8599" gradientUnits="userSpaceOnUse">
<stop offset="0.0530726" stop-color="#956B60" stop-opacity="0"/>
<stop offset="0.941341" stop-color="#442B1D"/>
</linearGradient>
<linearGradient id="paint74_linear_62_405" x1="269.432" y1="367.424" x2="371.348" y2="227.923" gradientUnits="userSpaceOnUse">
<stop stop-color="#CAE1F4"/>
<stop offset="1" stop-color="#00C0E4"/>
</linearGradient>
<linearGradient id="paint75_linear_62_405" x1="283.047" y1="350.258" x2="338.535" y2="288.598" gradientUnits="userSpaceOnUse">
<stop stop-color="#CAE1F4"/>
<stop offset="1" stop-color="#00C0E4"/>
</linearGradient>
<linearGradient id="paint76_linear_62_405" x1="322.248" y1="303.886" x2="330.319" y2="252.527" gradientUnits="userSpaceOnUse">
<stop stop-color="#5CA4E6" stop-opacity="0"/>
<stop offset="1" stop-color="#00B2BF"/>
</linearGradient>
<linearGradient id="paint77_linear_62_405" x1="331.267" y1="354.152" x2="363.395" y2="354.152" gradientUnits="userSpaceOnUse">
<stop stop-color="#BCBEC0"/>
<stop offset="1" stop-color="#939598"/>
</linearGradient>
<linearGradient id="paint78_linear_62_405" x1="501.979" y1="438.232" x2="461.265" y2="267.749" gradientUnits="userSpaceOnUse">
<stop stop-color="#BCBEC0"/>
<stop offset="1" stop-color="#939598"/>
</linearGradient>
<linearGradient id="paint79_linear_62_405" x1="301.134" y1="353.724" x2="324.023" y2="353.724" gradientUnits="userSpaceOnUse">
<stop offset="0.153631" stop-color="#E8CFAC"/>
<stop offset="0.941341" stop-color="#EDB7AC"/>
</linearGradient>
<linearGradient id="paint80_linear_62_405" x1="303.219" y1="351.814" x2="342.213" y2="363.787" gradientUnits="userSpaceOnUse">
<stop offset="0.0642458" stop-color="#EDB7AC" stop-opacity="0"/>
<stop offset="0.963687" stop-color="#AB6564"/>
</linearGradient>
<linearGradient id="paint81_linear_62_405" x1="191.116" y1="277.46" x2="217.863" y2="145.992" gradientUnits="userSpaceOnUse">
<stop stop-color="#BCBEC0"/>
<stop offset="1" stop-color="#939598"/>
</linearGradient>
<linearGradient id="paint82_linear_62_405" x1="233.499" y1="338.502" x2="324.924" y2="228.485" gradientUnits="userSpaceOnUse">
<stop stop-color="#CAE1F4"/>
<stop offset="1" stop-color="#00C0E4"/>
</linearGradient>
<linearGradient id="paint83_linear_62_405" x1="205.712" y1="366.103" x2="322.891" y2="254.434" gradientUnits="userSpaceOnUse">
<stop stop-color="#CAE1F4"/>
<stop offset="1" stop-color="#00C0E4"/>
</linearGradient>
<linearGradient id="paint84_linear_62_405" x1="289.724" y1="271.876" x2="325.046" y2="235.823" gradientUnits="userSpaceOnUse">
<stop stop-color="#5CA4E6" stop-opacity="0"/>
<stop offset="1" stop-color="#00B2BF"/>
</linearGradient>
<linearGradient id="paint85_linear_62_405" x1="239.831" y1="326.923" x2="274.601" y2="326.923" gradientUnits="userSpaceOnUse">
<stop offset="0.153631" stop-color="#E8CFAC"/>
<stop offset="0.941341" stop-color="#EDB7AC"/>
</linearGradient>
<linearGradient id="paint86_linear_62_405" x1="248.793" y1="320.151" x2="278.959" y2="354.95" gradientUnits="userSpaceOnUse">
<stop offset="0.0642458" stop-color="#EDB7AC" stop-opacity="0"/>
<stop offset="0.963687" stop-color="#AB6564"/>
</linearGradient>
<linearGradient id="paint87_linear_62_405" x1="240.304" y1="127.905" x2="615.597" y2="450.35" gradientUnits="userSpaceOnUse">
<stop offset="0.162011" stop-color="#F5CEBB"/>
<stop offset="0.835195" stop-color="#B49B94"/>
</linearGradient>
<linearGradient id="paint88_linear_62_405" x1="188.596" y1="68.9407" x2="326.902" y2="212.635" gradientUnits="userSpaceOnUse">
<stop stop-color="#F3F5EA"/>
<stop offset="1" stop-color="#F1F2E6" stop-opacity="0"/>
</linearGradient>
<linearGradient id="paint89_linear_62_405" x1="246.161" y1="133.326" x2="323.594" y2="378.437" gradientUnits="userSpaceOnUse">
<stop offset="0.162011" stop-color="#F5CEBB"/>
<stop offset="0.835195" stop-color="#B49B94"/>
</linearGradient>
<linearGradient id="paint90_linear_62_405" x1="250.804" y1="105.967" x2="376.716" y2="234.683" gradientUnits="userSpaceOnUse">
<stop offset="0.162011" stop-color="#F5CEBB"/>
<stop offset="0.835195" stop-color="#B49B94"/>
</linearGradient>
<linearGradient id="paint91_linear_62_405" x1="182.252" y1="87.3107" x2="435.07" y2="378.187" gradientUnits="userSpaceOnUse">
<stop offset="0.162011" stop-color="#F5CEBB"/>
<stop offset="0.835195" stop-color="#B49B94"/>
</linearGradient>
<linearGradient id="paint92_linear_62_405" x1="317.837" y1="135.099" x2="420.384" y2="255.001" gradientUnits="userSpaceOnUse">
<stop offset="0.162011" stop-color="#F5CEBB"/>
<stop offset="0.835195" stop-color="#B49B94"/>
</linearGradient>
<linearGradient id="paint93_linear_62_405" x1="372.076" y1="188.922" x2="426.24" y2="295.441" gradientUnits="userSpaceOnUse">
<stop stop-color="#E6E7E8"/>
<stop offset="1" stop-color="#BCBEC0"/>
</linearGradient>
<linearGradient id="paint94_linear_62_405" x1="329.101" y1="137.848" x2="374.136" y2="262.321" gradientUnits="userSpaceOnUse">
<stop stop-color="#E6E7E8"/>
<stop offset="1" stop-color="#BCBEC0"/>
</linearGradient>
<linearGradient id="paint95_linear_62_405" x1="407.193" y1="188.065" x2="423.421" y2="229.184" gradientUnits="userSpaceOnUse">
<stop stop-color="#E6E7E8"/>
<stop offset="1" stop-color="#BCBEC0"/>
</linearGradient>
<linearGradient id="paint96_linear_62_405" x1="258.494" y1="154.777" x2="299.679" y2="222.883" gradientUnits="userSpaceOnUse">
<stop stop-color="#E6E7E8"/>
<stop offset="1" stop-color="#BCBEC0"/>
</linearGradient>
<linearGradient id="paint97_linear_62_405" x1="266.354" y1="174.106" x2="288.248" y2="234.618" gradientUnits="userSpaceOnUse">
<stop stop-color="#E6E7E8"/>
<stop offset="1" stop-color="#BCBEC0"/>
</linearGradient>
<linearGradient id="paint98_linear_62_405" x1="297.925" y1="184.603" x2="311.12" y2="218.035" gradientUnits="userSpaceOnUse">
<stop stop-color="#E6E7E8"/>
<stop offset="1" stop-color="#BCBEC0"/>
</linearGradient>
<linearGradient id="paint99_linear_62_405" x1="290.954" y1="107.501" x2="344.565" y2="351.266" gradientUnits="userSpaceOnUse">
<stop stop-color="#E6E7E8"/>
<stop offset="1" stop-color="#BCBEC0"/>
</linearGradient>
<linearGradient id="paint100_linear_62_405" x1="294.322" y1="117.682" x2="317.856" y2="225.306" gradientUnits="userSpaceOnUse">
<stop stop-color="#E6E7E8"/>
<stop offset="1" stop-color="#BCBEC0"/>
</linearGradient>
<linearGradient id="paint101_linear_62_405" x1="322.724" y1="31.5478" x2="362.103" y2="161.827" gradientUnits="userSpaceOnUse">
<stop stop-color="#E6E7E8"/>
<stop offset="1" stop-color="#BCBEC0"/>
</linearGradient>
<linearGradient id="paint102_linear_62_405" x1="290.202" y1="76.0477" x2="341.231" y2="291.46" gradientUnits="userSpaceOnUse">
<stop stop-color="#E6E7E8"/>
<stop offset="1" stop-color="#BCBEC0"/>
</linearGradient>
<linearGradient id="paint103_linear_62_405" x1="341.117" y1="299.037" x2="308.131" y2="191.485" gradientUnits="userSpaceOnUse">
<stop stop-color="#E6E7E8"/>
<stop offset="1" stop-color="#BCBEC0"/>
</linearGradient>
<linearGradient id="paint104_linear_62_405" x1="253.867" y1="12.61" x2="352.632" y2="285.423" gradientUnits="userSpaceOnUse">
<stop stop-color="white"/>
<stop offset="1" stop-color="#BCBEC0"/>
</linearGradient>
<linearGradient id="paint105_linear_62_405" x1="282.939" y1="119.564" x2="293.254" y2="250.558" gradientUnits="userSpaceOnUse">
<stop stop-color="#E6E7E8"/>
<stop offset="1" stop-color="#BCBEC0"/>
</linearGradient>
<linearGradient id="paint106_linear_62_405" x1="296.191" y1="110.321" x2="299.908" y2="174.08" gradientUnits="userSpaceOnUse">
<stop stop-color="#E6E7E8"/>
<stop offset="1" stop-color="#BCBEC0"/>
</linearGradient>
<linearGradient id="paint107_linear_62_405" x1="487.793" y1="121.651" x2="487.556" y2="175.37" gradientUnits="userSpaceOnUse">
<stop offset="0.0391061" stop-color="#4D5B55"/>
<stop offset="1" stop-color="#47CAAC"/>
</linearGradient>
<linearGradient id="paint108_linear_62_405" x1="475.713" y1="176.833" x2="501.089" y2="176.833" gradientUnits="userSpaceOnUse">
<stop offset="0.153631" stop-color="#E8CFAC"/>
<stop offset="0.941341" stop-color="#EDB7AC"/>
</linearGradient>
<linearGradient id="paint109_linear_62_405" x1="382.384" y1="194.614" x2="543.653" y2="225.783" gradientUnits="userSpaceOnUse">
<stop offset="0.153631" stop-color="#E8CFAC"/>
<stop offset="0.941341" stop-color="#EDB7AC"/>
</linearGradient>
<linearGradient id="paint110_linear_62_405" x1="455.77" y1="197.951" x2="468.819" y2="248.264" gradientUnits="userSpaceOnUse">
<stop offset="0.0642458" stop-color="#EDB7AC" stop-opacity="0"/>
<stop offset="0.963687" stop-color="#AB6564"/>
</linearGradient>
<linearGradient id="paint111_linear_62_405" x1="418.216" y1="211.831" x2="423.51" y2="232.244" gradientUnits="userSpaceOnUse">
<stop offset="0.0642458" stop-color="#EDB7AC" stop-opacity="0"/>
<stop offset="0.963687" stop-color="#AB6564"/>
</linearGradient>
<linearGradient id="paint112_linear_62_405" x1="411.217" y1="208.658" x2="417.609" y2="233.301" gradientUnits="userSpaceOnUse">
<stop offset="0.0642458" stop-color="#EDB7AC" stop-opacity="0"/>
<stop offset="0.963687" stop-color="#AB6564"/>
</linearGradient>
<linearGradient id="paint113_linear_62_405" x1="408.859" y1="204.143" x2="414.931" y2="227.556" gradientUnits="userSpaceOnUse">
<stop offset="0.0642458" stop-color="#EDB7AC" stop-opacity="0"/>
<stop offset="0.963687" stop-color="#AB6564"/>
</linearGradient>
<linearGradient id="paint114_linear_62_405" x1="485.045" y1="182.131" x2="489.312" y2="143.038" gradientUnits="userSpaceOnUse">
<stop offset="0.0642458" stop-color="#EDB7AC" stop-opacity="0"/>
<stop offset="0.963687" stop-color="#AB6564"/>
</linearGradient>
<linearGradient id="paint115_linear_62_405" x1="501.23" y1="52.6771" x2="475.95" y2="213.104" gradientUnits="userSpaceOnUse">
<stop offset="0.0391061" stop-color="#C8DCDC"/>
<stop offset="1" stop-color="#47CAAC"/>
</linearGradient>
<linearGradient id="paint116_linear_62_405" x1="457.399" y1="33.4228" x2="459.365" y2="29.7148" gradientUnits="userSpaceOnUse">
<stop offset="0.162011" stop-color="#91786B"/>
<stop offset="0.835195" stop-color="#4E413E"/>
</linearGradient>
<linearGradient id="paint117_linear_62_405" x1="449.17" y1="31.2114" x2="448.283" y2="27.7272" gradientUnits="userSpaceOnUse">
<stop offset="0.162011" stop-color="#91786B"/>
<stop offset="0.835195" stop-color="#4E413E"/>
</linearGradient>
<linearGradient id="paint118_linear_62_405" x1="438.848" y1="55.5413" x2="447.208" y2="39.7735" gradientUnits="userSpaceOnUse">
<stop offset="0.162011" stop-color="#91786B"/>
<stop offset="0.835195" stop-color="#4E413E"/>
</linearGradient>
<linearGradient id="paint119_linear_62_405" x1="455.464" y1="54.9036" x2="445.218" y2="26.9609" gradientUnits="userSpaceOnUse">
<stop offset="0.0642458" stop-color="#EDB7AC" stop-opacity="0"/>
<stop offset="0.963687" stop-color="#AB6564"/>
</linearGradient>
<linearGradient id="paint120_linear_62_405" x1="275.605" y1="363.141" x2="307.048" y2="406.594" gradientUnits="userSpaceOnUse">
<stop stop-color="#CAE1F4"/>
<stop offset="1" stop-color="#00C0E4"/>
</linearGradient>
<linearGradient id="paint121_linear_62_405" x1="309.793" y1="400.96" x2="319.041" y2="322.014" gradientUnits="userSpaceOnUse">
<stop stop-color="#5CA4E6" stop-opacity="0"/>
<stop offset="1" stop-color="#00B2BF"/>
</linearGradient>
<linearGradient id="paint122_linear_62_405" x1="290.392" y1="288.811" x2="290.392" y2="470.869" gradientUnits="userSpaceOnUse">
<stop stop-color="#D6E6FC"/>
<stop offset="1" stop-color="#A1D4FC"/>
</linearGradient>
<linearGradient id="paint123_linear_62_405" x1="212.777" y1="322.232" x2="252.663" y2="391.67" gradientUnits="userSpaceOnUse">
<stop stop-color="#CAE1F4"/>
<stop offset="1" stop-color="#00C0E4"/>
</linearGradient>
<linearGradient id="paint124_linear_62_405" x1="238.753" y1="362.762" x2="296.497" y2="309.467" gradientUnits="userSpaceOnUse">
<stop stop-color="#5CA4E6" stop-opacity="0"/>
<stop offset="1" stop-color="#00B2BF"/>
</linearGradient>
<linearGradient id="paint125_linear_62_405" x1="225.976" y1="296.945" x2="225.976" y2="394.493" gradientUnits="userSpaceOnUse">
<stop stop-color="#D6E6FC"/>
<stop offset="1" stop-color="#A1D4FC"/>
</linearGradient>
<linearGradient id="paint126_linear_62_405" x1="513.585" y1="126.798" x2="471.022" y2="124.33" gradientUnits="userSpaceOnUse">
<stop offset="0.027933" stop-color="#E1EBF1"/>
<stop offset="1" stop-color="#C3DBDA" stop-opacity="0"/>
</linearGradient>
<linearGradient id="paint127_linear_62_405" x1="352.466" y1="430.084" x2="574.176" y2="343.356" gradientUnits="userSpaceOnUse">
<stop stop-color="#E8F3F8" stop-opacity="0"/>
<stop offset="1" stop-color="#D8E6F7"/>
</linearGradient>
<linearGradient id="paint128_linear_62_405" x1="611.65" y1="56.7441" x2="590.723" y2="117.719" gradientUnits="userSpaceOnUse">
<stop stop-color="#E8F3F8" stop-opacity="0"/>
<stop offset="1" stop-color="#99D1D0"/>
</linearGradient>
<linearGradient id="paint129_linear_62_405" x1="589.402" y1="92.7954" x2="608.157" y2="164.599" gradientUnits="userSpaceOnUse">
<stop offset="0.0391061" stop-color="#C8DCDC"/>
<stop offset="1" stop-color="#47CAAC"/>
</linearGradient>
<linearGradient id="paint130_linear_62_405" x1="665.651" y1="82.6712" x2="665.651" y2="156.444" gradientUnits="userSpaceOnUse">
<stop stop-color="#E8F3F8" stop-opacity="0"/>
<stop offset="1" stop-color="#99D1D0"/>
</linearGradient>
<linearGradient id="paint131_linear_62_405" x1="676.88" y1="82.6712" x2="676.88" y2="156.444" gradientUnits="userSpaceOnUse">
<stop stop-color="#E8F3F8" stop-opacity="0"/>
<stop offset="1" stop-color="#99D1D0"/>
</linearGradient>
<linearGradient id="paint132_linear_62_405" x1="649.565" y1="82.6711" x2="649.565" y2="156.443" gradientUnits="userSpaceOnUse">
<stop stop-color="#E8F3F8" stop-opacity="0"/>
<stop offset="1" stop-color="#99D1D0"/>
</linearGradient>
<linearGradient id="paint133_linear_62_405" x1="594.426" y1="222.213" x2="658.013" y2="222.213" gradientUnits="userSpaceOnUse">
<stop stop-color="#E8F3F8" stop-opacity="0"/>
<stop offset="1" stop-color="#99D1D0"/>
</linearGradient>
<linearGradient id="paint134_linear_62_405" x1="660.08" y1="279.796" x2="600.23" y2="180.235" gradientUnits="userSpaceOnUse">
<stop offset="0.0391061" stop-color="#C8DCDC"/>
<stop offset="1" stop-color="#47CAAC"/>
</linearGradient>
</defs>
</svg>
