<svg width="142" height="135" viewBox="0 0 142 135" fill="none" xmlns="http://www.w3.org/2000/svg">
<path opacity="0.7" d="M64.1512 134.387C99.1239 134.387 127.475 106.036 127.475 71.0636C127.475 36.0909 99.1239 7.73996 64.1512 7.73996C29.1786 7.73996 0.827637 36.0909 0.827637 71.0636C0.827637 106.036 29.1786 134.387 64.1512 134.387Z" fill="white"/>
<path d="M73.4943 24.7906C74.0476 24.9205 74.5953 25.056 75.1486 25.2084L74.5332 26.8006C74.2565 26.7216 73.9798 26.6538 73.7032 26.5861C73.4265 26.5183 73.1498 26.4506 72.8675 26.3941C72.8336 26.3828 72.7998 26.3772 72.7659 26.3715C64.2456 24.4857 55.381 25.3496 47.2447 28.9293C37.5331 33.2035 29.967 40.8712 25.8339 50.5998C25.6646 51.0063 25.4952 51.4128 25.3371 51.825L23.7561 51.2095C23.9142 50.7974 24.0836 50.3909 24.253 49.9843C28.5555 39.8322 36.432 31.8372 46.5671 27.3766C52.795 24.6381 59.4294 23.4242 66.0299 23.7516C68.4295 23.8702 70.8292 24.1977 73.2007 24.7228C73.2966 24.7454 73.3927 24.768 73.4943 24.7906Z" fill="url(#paint0_linear_10_4870)"/>
<path d="M104.554 81.2082C104.407 81.6204 104.255 82.0326 104.097 82.4448L102.516 81.8294C102.674 81.4172 102.832 81.005 102.973 80.5928C109.67 61.6326 101.658 40.7865 84.6398 30.9732C84.1486 30.6853 83.6517 30.4143 83.1436 30.1489L83.759 28.5623C84.2672 28.822 84.7697 29.093 85.2609 29.3753C85.3287 29.4149 85.3964 29.4488 85.4642 29.4883C87.5816 30.7079 89.5634 32.0912 91.4041 33.6213C104.983 44.8744 110.72 63.812 104.554 81.2082Z" fill="url(#paint1_linear_10_4870)"/>
<path d="M104.555 81.2082L102.974 80.5928L98.1572 78.7183L93.5781 90.4907L105.351 95.0699L109.93 83.2974L104.555 81.2082ZM104.385 92.8735L95.7745 89.5252L99.1227 80.909L107.739 84.2573L104.385 92.8735Z" fill="url(#paint2_linear_10_4870)"/>
<path d="M75.6399 19.2686L73.4943 24.7907L73.4774 24.8301L72.8676 26.3942L72.862 26.4111L71.0608 31.041L82.8333 35.6202L84.6401 30.9733L85.2612 29.3754L87.4124 23.8477L75.6399 19.2686ZM83.1438 30.149L81.8678 33.4238L73.2572 30.0755L74.5332 26.8007L75.1487 25.2085L76.6055 21.4649L85.2161 24.8132L83.7593 28.5623L83.1438 30.149Z" fill="url(#paint3_linear_10_4870)"/>
<path d="M25.834 50.5997L24.253 49.9842L19.1375 47.9967L14.5583 59.7693L26.3308 64.3484L30.91 52.576L25.834 50.5997ZM25.3654 62.152L16.7548 58.8038L20.103 50.1932L28.7193 53.5414L25.3654 62.152Z" fill="url(#paint4_linear_10_4870)"/>
<path d="M131.681 49.2779L84.8174 31.0587L85.4311 29.4795L132.294 47.6987L131.681 49.2779Z" fill="url(#paint5_linear_10_4870)"/>
<path d="M73.6519 26.7181L26.7886 8.49891L27.4023 6.91971L74.2656 25.1389L73.6519 26.7181Z" fill="url(#paint6_linear_10_4870)"/>
<path d="M24.6484 0.664005C21.7292 -0.465279 18.4374 0.985806 17.3025 3.89932C16.7492 5.31653 16.7831 6.85796 17.3985 8.24692C18.0083 9.63588 19.1207 10.703 20.5378 11.2508C21.2098 11.5161 21.9043 11.6347 22.5875 11.6347C23.7224 11.6347 24.829 11.2903 25.7607 10.6692C26.4721 10.1948 27.0763 9.55688 27.5167 8.78327C27.6578 8.54054 27.782 8.28648 27.8837 8.01538C27.9853 7.7444 28.07 7.47338 28.1321 7.20229C28.7363 4.50909 27.2965 1.69157 24.6484 0.664005ZM26.3084 7.39996C25.5122 9.44959 23.1973 10.4715 21.1477 9.66979C20.1596 9.28583 19.3747 8.54054 18.9456 7.56372C18.5165 6.59259 18.4939 5.5084 18.8778 4.51474C19.4933 2.93937 21.0008 1.97389 22.5988 1.97389C23.0787 1.97389 23.5643 2.05862 24.0386 2.24491C25.6139 2.85468 26.5794 4.36793 26.5794 5.96579C26.5794 6.44578 26.4947 6.93127 26.3084 7.39996Z" fill="url(#paint7_linear_10_4870)"/>
<path d="M140.713 47.5733C140.103 46.1843 138.991 45.1172 137.574 44.5695C136.162 44.0218 134.621 44.05 133.232 44.6655C132.103 45.1624 131.188 45.9867 130.589 47.0369C130.454 47.2797 130.33 47.5394 130.228 47.8049C130.126 48.0702 130.042 48.3412 129.98 48.6179C129.709 49.7923 129.827 51.0176 130.324 52.1468C130.934 53.5358 132.046 54.6029 133.463 55.1507C134.13 55.4104 134.824 55.5402 135.519 55.5402C136.298 55.5402 137.071 55.3821 137.805 55.0602C139.194 54.4449 140.261 53.3325 140.809 51.921C141.362 50.5037 141.329 48.9623 140.713 47.5733ZM139.234 51.3055C138.844 52.2936 138.099 53.0784 137.122 53.5075C136.151 53.9366 135.067 53.9593 134.073 53.5753C133.085 53.1857 132.3 52.4404 131.871 51.4636C131.56 50.7578 131.459 49.9899 131.583 49.2389C131.628 48.9623 131.702 48.6856 131.803 48.4146C131.911 48.1435 132.04 47.8895 132.199 47.658C132.616 47.0256 133.204 46.5231 133.915 46.2126C134.429 45.9867 134.971 45.8738 135.519 45.8738C136.004 45.8738 136.495 45.9642 136.964 46.1448C137.952 46.5344 138.737 47.2797 139.166 48.2565C139.595 49.2276 139.618 50.3118 139.234 51.3055Z" fill="url(#paint8_linear_10_4870)"/>
<path d="M79.7335 88.0404C79.7335 88.0404 69.0507 96.1653 63.9408 100.812C60.8523 103.618 57.7525 106.617 55.4319 110.332L47.8432 107.328L40.5708 104.448C42.1179 90.2084 38.1711 73.1793 38.1711 73.1793L71.2019 41.0575L57.8654 75.8895C55.9174 76.121 54.1558 77.3801 53.3992 79.3337C52.2981 82.1512 53.6984 85.3244 56.5103 86.4141C56.6797 86.4819 56.8547 86.5383 57.0297 86.5835C59.7061 87.3346 62.5687 85.9399 63.5964 83.2974C64.353 81.3494 63.9126 79.2264 62.6309 77.7415L75.9504 42.9716C75.9617 42.9377 75.9674 42.9208 75.9674 42.9208L79.7335 88.0404Z" fill="url(#paint9_linear_10_4870)"/>
<path d="M79.7337 88.0404C79.7337 88.0404 69.0509 96.1653 63.941 100.812C60.8525 103.618 57.7527 106.617 55.4321 110.332L47.8435 107.328C48.2952 106.543 52.2363 97.5825 57.03 86.5835C59.7063 87.3345 62.569 85.9399 63.5966 83.2974C64.3532 81.3494 63.9128 79.2264 62.6311 77.7414L75.9507 42.9716C75.962 42.9377 75.9677 42.9208 75.9677 42.9208L79.7337 88.0404Z" fill="url(#paint10_linear_10_4870)"/>
<path d="M60.8524 111.292L54.3479 125.498L49.6107 123.403L30.7295 115.058L37.5784 101.196L56.0982 109.231L60.8524 111.292Z" fill="url(#paint11_linear_10_4870)"/>
<path d="M56.0982 109.231L49.6107 123.403L30.7295 115.058L37.5784 101.196L56.0982 109.231Z" fill="url(#paint12_linear_10_4870)"/>
<defs>
<linearGradient id="paint0_linear_10_4870" x1="52.4613" y1="6.37057" x2="33.0221" y2="212.064" gradientUnits="userSpaceOnUse">
<stop offset="0.162011" stop-color="#88776B"/>
<stop offset="0.835195" stop-color="#4C4340"/>
</linearGradient>
<linearGradient id="paint1_linear_10_4870" x1="98.7491" y1="10.745" x2="79.3099" y2="216.438" gradientUnits="userSpaceOnUse">
<stop offset="0.162011" stop-color="#88776B"/>
<stop offset="0.835195" stop-color="#4C4340"/>
</linearGradient>
<linearGradient id="paint2_linear_10_4870" x1="108.86" y1="11.7006" x2="89.421" y2="217.394" gradientUnits="userSpaceOnUse">
<stop offset="0.162011" stop-color="#88776B"/>
<stop offset="0.835195" stop-color="#4C4340"/>
</linearGradient>
<linearGradient id="paint3_linear_10_4870" x1="80.9736" y1="9.06517" x2="61.5344" y2="214.758" gradientUnits="userSpaceOnUse">
<stop offset="0.162011" stop-color="#88776B"/>
<stop offset="0.835195" stop-color="#4C4340"/>
</linearGradient>
<linearGradient id="paint4_linear_10_4870" x1="27.6622" y1="4.02692" x2="8.22307" y2="209.72" gradientUnits="userSpaceOnUse">
<stop offset="0.162011" stop-color="#88776B"/>
<stop offset="0.835195" stop-color="#4C4340"/>
</linearGradient>
<linearGradient id="paint5_linear_10_4870" x1="111.151" y1="11.9171" x2="91.7121" y2="217.61" gradientUnits="userSpaceOnUse">
<stop offset="0.162011" stop-color="#88776B"/>
<stop offset="0.835195" stop-color="#4C4340"/>
</linearGradient>
<linearGradient id="paint6_linear_10_4870" x1="51.5229" y1="6.28187" x2="32.0838" y2="211.975" gradientUnits="userSpaceOnUse">
<stop offset="0.162011" stop-color="#88776B"/>
<stop offset="0.835195" stop-color="#4C4340"/>
</linearGradient>
<linearGradient id="paint7_linear_10_4870" x1="22.8164" y1="3.56892" x2="3.37729" y2="209.262" gradientUnits="userSpaceOnUse">
<stop offset="0.162011" stop-color="#88776B"/>
<stop offset="0.835195" stop-color="#4C4340"/>
</linearGradient>
<linearGradient id="paint8_linear_10_4870" x1="138.858" y1="14.5355" x2="119.419" y2="220.229" gradientUnits="userSpaceOnUse">
<stop offset="0.162011" stop-color="#88776B"/>
<stop offset="0.835195" stop-color="#4C4340"/>
</linearGradient>
<linearGradient id="paint9_linear_10_4870" x1="59.3885" y1="52.982" x2="58.5416" y2="106.622" gradientUnits="userSpaceOnUse">
<stop stop-color="#E5E5E6"/>
<stop offset="1" stop-color="#BABCBE"/>
</linearGradient>
<linearGradient id="paint10_linear_10_4870" x1="62.9379" y1="-16.315" x2="63.5025" y2="59.3453" gradientUnits="userSpaceOnUse">
<stop stop-color="#E5E5E6"/>
<stop offset="1" stop-color="#BABCBE"/>
</linearGradient>
<linearGradient id="paint11_linear_10_4870" x1="45.791" y1="83.0101" x2="45.791" y2="190.556" gradientUnits="userSpaceOnUse">
<stop offset="0.162011" stop-color="#88776B"/>
<stop offset="0.835195" stop-color="#4C4340"/>
</linearGradient>
<linearGradient id="paint12_linear_10_4870" x1="41.1293" y1="97.1967" x2="49.0406" y2="148.959" gradientUnits="userSpaceOnUse">
<stop offset="0.162011" stop-color="#88776B"/>
<stop offset="0.835195" stop-color="#4C4340"/>
</linearGradient>
</defs>
</svg>
