<svg width="251" height="206" viewBox="0 0 251 206" fill="none" xmlns="http://www.w3.org/2000/svg">
<path d="M75.4367 12.7283C27.7419 42.8649 29.5221 110.521 59.9047 157.392C91.9855 206.883 139.909 207.372 186.186 200.441C220.415 195.315 267.567 151.487 243.354 82.3258C214.51 -0.0640828 117.742 -14.0027 75.4367 12.7283Z" fill="url(#paint0_linear_62_60)"/>
<path d="M62.8951 117.94L49.1845 123.516C48.0681 123.97 46.7766 123.476 46.2998 122.413L40.4437 109.359C39.9669 108.296 40.4853 107.067 41.6017 106.613L55.3124 101.037C56.4287 100.583 57.7202 101.076 58.1971 102.139L64.0531 115.194C64.53 116.257 64.0115 117.486 62.8951 117.94Z" fill="url(#paint1_linear_62_60)"/>
<path d="M53.8414 112.154C53.3646 112.154 52.88 112.069 52.4111 111.89C51.4561 111.525 50.7074 110.828 50.3033 109.927C49.8992 109.026 49.8875 108.029 50.2712 107.119C50.6543 106.21 51.3866 105.497 52.333 105.113C53.2795 104.728 54.3264 104.717 55.2814 105.082C57.2531 105.835 58.213 107.975 57.4216 109.852C56.8187 111.283 55.3698 112.154 53.8414 112.154ZM53.8457 105.858C53.4783 105.858 53.1113 105.929 52.7631 106.071C52.0854 106.347 51.5612 106.857 51.2868 107.508C51.0124 108.159 51.0206 108.872 51.31 109.517C51.5993 110.162 52.1353 110.662 52.8187 110.923C54.2302 111.462 55.8394 110.808 56.406 109.464C56.9723 108.12 56.2848 106.588 54.8737 106.049C54.5413 105.922 54.1935 105.858 53.8457 105.858Z" fill="white"/>
<path d="M52.107 111.212L51.1125 113.571L52.1281 113.959L53.1226 111.601L52.107 111.212Z" fill="white"/>
<path d="M50.329 120.42L47.7206 119.423L50.5439 112.727L53.1526 113.724L50.329 120.42ZM49.1445 118.844L49.7211 119.065L51.7287 114.303L51.1518 114.083L49.1445 118.844Z" fill="white"/>
<path d="M85.3446 108.612L71.6339 114.188C70.5175 114.642 69.226 114.148 68.7492 113.085L62.8931 100.031C62.4162 98.9678 62.9347 97.7381 64.0511 97.2842L77.7618 91.7084C78.8781 91.2544 80.1697 91.7481 80.6465 92.811L86.5026 105.865C86.9794 106.928 86.461 108.158 85.3446 108.612Z" fill="url(#paint2_linear_62_60)"/>
<path d="M70.9753 111.777L70.2166 107.608L74.3669 97.7651L78.701 99.4216L74.5508 109.265L70.9753 111.777ZM71.3484 107.722L71.7514 109.937L73.6507 108.602L77.2771 100L74.9748 99.1205L71.3484 107.722Z" fill="white"/>
<path d="M78.2813 100.416L73.9474 98.7592L74.7542 96.8462C75.112 95.9977 76.1283 95.5839 77.0198 95.9247L78.1202 96.3453C79.0114 96.6861 79.4458 97.6537 79.0884 98.5024L78.2813 100.416ZM75.3714 98.1804L77.6733 99.0604L78.0725 98.1143C78.205 97.7991 78.0436 97.4391 77.7125 97.3126L76.6122 96.892C76.2815 96.7656 75.903 96.9192 75.7698 97.2345L75.3714 98.1804Z" fill="white"/>
<path d="M71.0803 106.958L70.6725 107.925L73.9905 109.194L74.3983 108.226L71.0803 106.958Z" fill="white"/>
<path d="M107.926 99.578L94.2152 105.154C93.0988 105.608 91.8073 105.114 91.3305 104.051L85.4744 90.9969C84.9976 89.934 85.516 88.7043 86.6324 88.2503L100.343 82.6746C101.459 82.2206 102.751 82.7142 103.228 83.7771L109.084 96.8314C109.561 97.8943 109.042 99.124 107.926 99.578Z" fill="url(#paint3_linear_62_60)"/>
<path d="M94.5846 99.5487C94.3704 99.5487 94.1559 99.5097 93.951 99.4315C93.5298 99.2703 93.1995 98.9627 93.0213 98.5653L90.806 93.6271C90.6278 93.2298 90.6224 92.7899 90.7917 92.3887C90.961 91.9875 91.2838 91.6732 91.7015 91.5033L99.3068 88.4105C100.169 88.06 101.169 88.4429 101.537 89.2629L103.753 94.2013C104.121 95.0218 103.719 95.9744 102.857 96.3248L95.2516 99.4179C95.0371 99.5051 94.8109 99.5487 94.5846 99.5487ZM99.9735 89.3226C99.8944 89.3226 99.8139 89.3376 99.7365 89.3689L92.1312 92.4618C91.9826 92.5222 91.8678 92.6342 91.8076 92.7768C91.7474 92.9197 91.7492 93.0761 91.8126 93.2174L94.0283 98.1559C94.0917 98.2974 94.209 98.4068 94.359 98.4642C94.5083 98.5213 94.6733 98.5198 94.8219 98.4594L102.427 95.3664C102.734 95.2415 102.877 94.9026 102.746 94.6106L100.53 89.6724C100.432 89.4539 100.208 89.3226 99.9735 89.3226Z" fill="white"/>
<path d="M92.9422 96.432L92.0863 95.7827L94.5903 92.7906L97.8682 94.0757L99.5576 91.3861L102.307 91.6606L102.193 92.6971L100.138 92.4922L98.3236 95.3816L94.9338 94.0523L92.9422 96.432Z" fill="white"/>
<path d="M76.0087 56.3016L72.9436 57.7607C67.5043 48.1324 56.4007 43.088 45.5293 44.5162L68.5388 33.5897C68.539 33.59 68.5392 33.5903 68.5393 33.5906C69.2144 34.5043 70.3164 35.022 71.4512 35.022C71.9839 35.022 72.5239 34.9073 73.0348 34.6641C74.7936 33.8303 75.5088 31.7875 74.633 30.1129C74.2098 29.3034 73.4764 28.6989 72.5751 28.4105C71.6702 28.1222 70.7068 28.1882 69.853 28.5912C68.2621 29.3451 67.525 31.0892 68.0504 32.656L68.0507 32.6567L41.0176 45.4938C40.9743 45.5075 40.9275 45.5212 40.8842 45.535L39.2312 42.3769L32.1414 45.7434L33.7944 48.9015C33.7547 48.9289 33.7153 48.953 33.6756 48.9803L6.64943 61.8144C5.6567 60.4739 3.74881 59.9844 2.1546 60.7382C1.30072 61.1447 0.665809 61.8395 0.366567 62.7011C0.0637785 63.5592 0.129423 64.4799 0.556321 65.2894C0.979608 66.1024 1.71304 66.7069 2.61436 66.9952C2.98651 67.1134 3.36967 67.1724 3.74912 67.1724C4.29281 67.1724 4.83286 67.0508 5.33645 66.8111C6.18662 66.4081 6.82152 65.7132 7.12438 64.8517C7.36883 64.1604 7.37249 63.4309 7.13907 62.7466L30.1495 51.8196C22.4127 59.2232 19.962 70.7036 24.7706 80.635L21.5449 82.1672L25.0808 88.9176L32.1743 85.5511L28.6348 78.7972L25.7485 80.1695C20.5196 69.3299 24.2962 56.5795 34.2906 49.843L35.6772 52.4938L42.767 49.1273L41.3846 46.4843L41.4341 46.4609C53.0872 42.9416 66.0263 47.7464 71.9621 58.2263L68.9189 59.6716L72.4546 66.422L79.5445 63.0555L76.0087 56.3016ZM30.7037 85.082L25.5733 87.5175L23.0154 82.6327L28.1458 80.1973L30.7037 85.082ZM6.08809 64.5216C5.87647 65.1157 5.43863 65.5986 4.84746 65.88C4.25637 66.1614 3.58861 66.2066 2.96099 66.0051C2.33705 65.8071 1.82979 65.3867 1.53425 64.8239C1.24236 64.2645 1.19488 63.6252 1.40289 63.0312C1.6109 62.4336 2.05242 61.9541 2.64349 61.6727C2.99382 61.506 3.36967 61.4261 3.74183 61.4261C4.47143 61.4261 5.18281 61.7351 5.65353 62.2874L5.61724 62.3046L6.10578 63.2373L6.14302 63.2196C6.25589 63.6467 6.23762 64.0945 6.08809 64.5216ZM70.3419 29.5223C70.6886 29.359 71.0644 29.2756 71.4403 29.2756C71.703 29.2756 71.9694 29.3173 72.2284 29.3972C72.8524 29.5987 73.3596 30.0156 73.6552 30.5784C73.9471 31.1413 73.9945 31.7771 73.7865 32.3746C73.5749 32.9687 73.137 33.4516 72.5459 33.733C71.3272 34.3098 69.8421 33.8373 69.2327 32.6769C68.6269 31.5165 69.1232 30.1025 70.3419 29.5223ZM36.1698 51.0972L35.2028 49.2559L34.7139 48.3178L33.6083 46.2124L38.7423 43.7736L39.8443 45.8824L40.3368 46.8204L41.3002 48.6618L36.1698 51.0972ZM70.3858 60.1371L75.5161 57.7017L78.0776 62.5864L72.9473 65.0219L70.3858 60.1371Z" fill="url(#paint4_linear_62_60)"/>
<path d="M56.0385 75.627C55.1958 74.0181 53.1445 73.3676 51.4581 74.1685C49.7718 74.9693 49.0835 76.9206 49.9263 78.5296C50.5099 79.6437 51.677 80.2966 52.8999 80.3256L58.5694 91.1489L45.6033 85.8488L41.8029 55.7363L64.7798 76.7424L61.4277 89.7876L55.7598 78.9675C56.4711 78.02 56.6222 76.7411 56.0385 75.627Z" fill="url(#paint5_linear_62_60)"/>
<path d="M163.285 105.616C163.285 105.616 163.168 115.297 146.025 116.196C132.084 116.928 125.576 113.721 121.969 109.331C121.969 109.331 124.391 105.259 135.804 103.121C137.12 102.875 138.552 102.652 140.116 102.466C143.819 102.024 147.099 101.987 149.937 102.186C158.7 102.79 163.285 105.616 163.285 105.616Z" fill="url(#paint6_linear_62_60)"/>
<path d="M150.873 120.305C150.873 120.305 149.454 123.175 145.553 123.513C141.652 123.85 137.396 122.5 137.396 122.5L136.031 106.092L135.091 94.811L149.1 84.1744L149.717 96.7694L150.873 120.305Z" fill="url(#paint7_linear_62_60)"/>
<path d="M149.717 96.7694C147.681 99.437 144.943 102.381 141.829 104.097C139.822 105.201 137.836 105.799 136.031 106.092L135.091 94.811L149.1 84.1744L149.717 96.7694Z" fill="url(#paint8_linear_62_60)"/>
<path d="M108.788 132.292C108.788 132.292 97.6236 137.041 92.6586 148.015C85.1266 164.663 80.6525 176.639 80.416 179.791C80.1796 182.943 94.1291 191.947 101.459 195.099C108.788 198.25 108.788 198.25 108.788 198.25L108.551 138.595L108.788 132.292Z" fill="url(#paint9_linear_62_60)"/>
<path d="M203.124 195.098C203.124 195.098 185.863 204.103 153.473 205.003C121.083 205.904 104.061 195.549 104.061 195.549C104.061 195.549 97.1692 189.32 95.5923 183.571C95.55 183.414 95.5116 183.252 95.4731 183.091C95.2885 182.271 95.227 181.466 95.3116 180.693C95.8923 175.53 100.119 151.344 103.192 140.406C103.869 137.989 104.488 136.217 105.003 135.444C105.119 135.272 105.265 135.086 105.446 134.891C106.742 133.467 109.676 131.468 113.472 129.388C122.048 124.682 135.036 119.556 143.543 119.684C155.569 119.864 166.438 121.643 175.375 124.316C175.699 124.411 176.018 124.51 176.333 124.609C189.363 128.659 198.101 134.609 200.051 140.172C202.351 146.745 202.939 170.737 203.085 184.743C203.147 190.88 203.124 195.098 203.124 195.098Z" fill="url(#paint10_linear_62_60)"/>
<path d="M176.333 124.609C168.261 133.09 154.423 143.325 136.155 140.662C122.075 138.615 115.341 134.133 113.472 129.388C122.048 124.682 135.036 119.556 143.543 119.684C155.569 119.864 166.438 121.643 175.375 124.316C175.699 124.411 176.018 124.51 176.333 124.609Z" fill="url(#paint11_linear_62_60)"/>
<path d="M163.287 105.617L162.932 122.501C162.932 122.501 157.435 129.93 144.313 131.449C131.191 132.969 125.694 126.384 125.694 126.384L124.964 123.038L121.974 109.345C121.97 109.339 121.97 109.332 121.97 109.332C121.97 109.332 127.645 115.072 137.929 115.579C148.214 116.085 152.293 114.789 156.548 112.931C160.804 111.074 163.287 105.617 163.287 105.617Z" fill="url(#paint12_linear_62_60)"/>
<path d="M163.285 105.616C163.285 105.616 163.168 115.297 146.025 116.195C132.084 116.928 125.576 113.72 121.969 109.331C121.969 109.331 124.391 105.258 135.804 103.121L135.978 104.519C135.978 104.519 132.431 105.363 129.949 106.967C127.466 108.571 128.53 109.922 135.18 111.019C141.829 112.116 148.568 112.032 153.533 109.837C158.498 107.642 158.054 105.616 156.636 104.941C155.217 104.266 149.986 103.59 149.986 103.59L149.937 102.186C158.7 102.79 163.285 105.616 163.285 105.616Z" fill="url(#paint13_linear_62_60)"/>
<path d="M203.124 195.1C203.124 195.1 185.864 204.102 153.474 205.004C121.084 205.905 104.061 195.549 104.061 195.549C104.061 195.549 97.1697 189.319 95.5915 183.572C104.876 187.134 141.702 195.071 174.008 190.676C185.956 189.051 193.747 186.999 203.085 184.744C203.146 190.879 203.124 195.1 203.124 195.1Z" fill="url(#paint14_linear_62_60)"/>
<path d="M146.487 115.94C145.856 116.136 128.602 121.474 125.701 122.801C125.463 122.909 125.215 122.987 124.963 123.038L121.974 109.345C122.08 109.656 125.622 114.421 135.901 115.549C142.856 116.312 146.292 115.984 146.487 115.94Z" fill="url(#paint15_linear_62_60)"/>
<path d="M127.354 191.801C127.354 191.801 106.905 188.985 99.9288 185.946C98.1094 185.152 96.6447 184.146 95.4744 183.092C95.29 182.272 95.2261 181.465 95.3112 180.692C95.8929 175.529 100.12 151.345 103.192 140.408C103.255 148.14 104.206 165.277 110.923 174.917C116.551 182.991 127.354 191.801 127.354 191.801Z" fill="url(#paint16_linear_62_60)"/>
<path d="M184.566 56.6557C184.034 66.5325 175.079 69.7404 169.582 69.9092C164.085 70.078 159.74 65.1818 159.74 65.1818L158.637 57.3412L157.08 46.2724C157.08 46.2724 157.559 45.4485 158.495 44.3038C160.563 41.7712 164.858 37.6685 171.089 37.493C176.451 37.341 180.381 40.6367 182.58 45.4046C183.08 46.4851 183.487 47.6433 183.807 48.8555C184.449 51.3036 184.711 53.9678 184.566 56.6557Z" fill="url(#paint17_linear_62_60)"/>
<path d="M184.566 56.6557C184.034 66.5325 175.079 69.7403 169.582 69.9092C164.085 70.078 159.74 65.1818 159.74 65.1818L158.637 57.3411C162.457 58.7323 168.34 59.8838 174.228 57.1824C179.115 54.9403 182.069 51.6345 183.807 48.8555C184.449 51.3036 184.711 53.9678 184.566 56.6557Z" fill="url(#paint18_linear_62_60)"/>
<path d="M182.58 45.4045C181.218 43.679 178.278 41.0587 172.986 41.0587C165.095 41.0587 160.84 47.5588 160.84 47.5588C160.84 47.5588 159.691 45.9752 158.495 44.3037C160.563 41.7712 164.858 37.6685 171.089 37.4929C176.451 37.341 180.381 40.6366 182.58 45.4045Z" fill="url(#paint19_linear_62_60)"/>
<path d="M159.155 44.2385C159.155 44.2385 163.647 43.4506 165.421 50.4291C167.194 57.4076 165.657 67.2 164.357 67.6502C163.056 68.1004 160.81 68.5506 160.81 68.5506L160.456 62.6977L159.155 44.2385Z" fill="url(#paint20_linear_62_60)"/>
<path d="M153.002 80.2926C149.101 93.124 138.284 98.189 131.9 98.6955C125.517 99.202 118.069 90.7603 115.764 78.6042C114.973 74.4408 114.523 70.6622 114.555 67.2383C114.611 60.6706 116.441 55.4131 121.084 51.253C130.304 42.9801 143.072 47.7075 149.987 52.4349C153.686 54.964 155.403 59.0802 155.609 64.3242C155.789 68.8929 154.818 74.3192 153.002 80.2926Z" fill="url(#paint21_linear_62_60)"/>
<path d="M134.622 78.923C136.713 78.923 138.408 76.5333 138.408 73.5854C138.408 70.6375 136.713 68.2478 134.622 68.2478C132.53 68.2478 130.835 70.6375 130.835 73.5854C130.835 76.5333 132.53 78.923 134.622 78.923Z" fill="url(#paint22_linear_62_60)"/>
<path d="M121.854 79.0512C123.946 79.0512 125.641 76.6615 125.641 73.7136C125.641 70.7658 123.946 68.376 121.854 68.376C119.763 68.376 118.068 70.7658 118.068 73.7136C118.068 76.6615 119.763 79.0512 121.854 79.0512Z" fill="url(#paint23_linear_62_60)"/>
<path d="M155.609 64.3242C155.407 64.591 155.222 64.8104 155.077 64.9489C154.367 65.6242 146.618 69.656 146.618 69.656C146.466 69.656 136.146 69.6357 129.719 64.1891C123.247 58.702 122.715 56.0851 122.715 56.0851C122.715 56.0851 117.452 61.2345 114.764 66.8061C114.693 66.9546 114.622 67.0965 114.554 67.2383C114.611 60.6706 116.441 55.4131 121.084 51.253C130.304 42.9801 143.072 47.7075 149.988 52.4349C153.686 54.964 155.403 59.0802 155.609 64.3242Z" fill="url(#paint24_linear_62_60)"/>
<path d="M131.049 43.1691L127.113 49.058C127.113 49.058 126.751 49.3079 126.148 49.7739C123.421 51.891 115.782 58.506 114.764 66.8059C114.764 66.8059 110.962 63.6419 110.781 57.4693C110.742 56.095 110.88 54.5755 111.281 52.9074C111.529 51.8742 111.877 50.7869 112.341 49.6422C116.952 38.3303 131.049 43.1691 131.049 43.1691Z" fill="url(#paint25_linear_62_60)"/>
<path d="M131.049 43.1691L128.567 44.1821C128.567 44.1821 124.931 42.9158 118.193 46.2925C115.101 47.8424 112.831 50.4897 111.281 52.9074C111.529 51.8742 111.877 50.7869 112.341 49.6422C116.952 38.3303 131.049 43.1691 131.049 43.1691Z" fill="url(#paint26_linear_62_60)"/>
<path d="M159.031 76.9157C154.598 85.5263 149.108 88.3593 149.108 88.3593L151.583 70.1623L148.923 79.7859L146.618 69.6558C146.618 69.6558 139.171 70.6688 131.723 63.9154C126.988 59.6237 125.119 55.6729 124.389 53.3633C124.215 52.8095 124.102 52.3536 124.034 52.0058C123.935 51.5196 123.921 51.2528 123.921 51.2528C124.275 45.8501 129.063 41.6293 135.092 38.9279C141.121 36.2266 156.017 36.3954 160.804 46.5255C161.368 47.7107 161.833 48.9229 162.209 50.1453C163.028 52.7892 163.436 55.5007 163.51 58.1987C163.695 64.8812 161.819 71.4995 159.031 76.9157Z" fill="url(#paint27_linear_62_60)"/>
<path d="M159.031 76.9158C154.598 85.5264 149.108 88.3594 149.108 88.3594L150.555 75.0789L148.923 79.786L146.618 69.6559C146.618 69.6559 139.171 70.6689 131.723 63.9156C126.988 59.6238 125.119 55.673 124.389 53.3634C125.868 55.8588 128.783 59.3638 134.33 62.136C144.022 66.9748 147.689 65.1751 147.689 65.1751C147.689 65.1751 146.271 65.1751 144.614 63.4867C142.958 61.7984 142.015 59.9952 142.015 59.9952C142.015 59.9952 147.097 64.3849 154.428 63.5981C159.439 63.0612 162.237 60.0492 163.51 58.1988C163.695 64.8813 161.818 71.4996 159.031 76.9158Z" fill="url(#paint28_linear_62_60)"/>
<path d="M134.648 78.7156C135.97 78.7156 137.042 77.5062 137.042 76.0142C137.042 74.5223 135.97 73.3129 134.648 73.3129C133.326 73.3129 132.254 74.5223 132.254 76.0142C132.254 77.5062 133.326 78.7156 134.648 78.7156Z" fill="url(#paint29_linear_62_60)"/>
<path d="M121.832 78.9618C123.024 78.9618 123.99 77.8718 123.99 76.5272C123.99 75.1827 123.024 74.0927 121.832 74.0927C120.641 74.0927 119.675 75.1827 119.675 76.5272C119.675 77.8718 120.641 78.9618 121.832 78.9618Z" fill="url(#paint30_linear_62_60)"/>
<path d="M127.791 89.6897C127.791 89.6897 130.481 88.536 132.786 87.1572C135.091 85.7784 135.712 85.1593 135.712 85.1593C135.712 85.1593 137.189 89.4646 134.145 91.3218C131.448 92.9671 127.791 89.6897 127.791 89.6897Z" fill="white"/>
<path d="M135.505 93.0749C134.434 93.7266 133.112 93.0749 132.349 92.5684C133.168 92.6933 134.016 92.6055 134.785 92.1362C135.747 91.5486 136.278 90.7315 136.552 89.8738C136.711 90.6572 136.839 92.2611 135.505 93.0749Z" fill="url(#paint31_linear_62_60)"/>
<path d="M130.93 67.7013C130.93 67.7013 132.585 65.4701 135.8 66.4338C138.43 67.2221 138.43 69.9117 138.43 69.9117C138.43 69.9117 137.391 68.6287 135.508 68.0104C133.625 67.3921 130.93 67.7013 130.93 67.7013Z" fill="url(#paint32_linear_62_60)"/>
<path d="M117.906 70.4994C117.906 70.4994 117.583 68.2013 120.168 67.0341C122.282 66.0794 123.913 67.7531 123.913 67.7531C123.913 67.7531 122.489 67.5257 120.942 68.1759C119.395 68.826 117.906 70.4994 117.906 70.4994Z" fill="url(#paint33_linear_62_60)"/>
<path d="M125.575 85.1312L132.143 84.6461L129.298 86.9321L125.575 85.1312Z" fill="url(#paint34_linear_62_60)"/>
<path d="M126.875 76.9709C126.875 76.9709 127.503 80.1157 127.384 81.4663C127.266 82.817 125.575 85.1312 125.575 85.1312L132.143 84.6461C132.143 84.6461 128.73 78.9192 126.875 76.9709Z" fill="url(#paint35_linear_62_60)"/>
<path d="M150.821 75.4163C150.821 75.4163 152.683 72.2085 155.875 72.8838C159.066 73.5591 160.662 76.4293 158.003 80.7346C155.343 85.0399 149.1 84.1744 149.1 84.1744C149.1 84.1744 149.757 76.767 150.821 75.4163Z" fill="url(#paint36_linear_62_60)"/>
<path d="M152.649 76.2977C152.649 76.2977 154.397 74.8761 156.108 76.4017C157.82 77.9273 155.853 80.701 154.469 81.4985C153.086 82.296 151.993 81.7759 151.884 81.1171C151.775 80.4583 153.814 80.2503 153.377 79.1408C152.94 78.0313 151.957 78.8634 151.993 77.9619C152.03 77.0605 152.212 76.8871 152.649 76.2977Z" fill="url(#paint37_linear_62_60)"/>
<path d="M126.173 49.1627C126.173 49.1627 126.166 49.4058 126.148 49.7739C123.421 51.891 115.782 58.506 114.764 66.8059C114.764 66.8059 110.962 63.6419 110.781 57.4693C111.008 56.9155 111.27 56.3651 111.572 55.8316C113.891 51.7492 117.8 50.8578 117.952 50.8274C117.863 50.8814 116.448 51.7728 115.473 53.3565C114.494 54.9503 113.625 57.888 113.586 58.0231C113.618 57.9657 114.211 56.9966 117.218 53.8056C120.321 50.5133 126.173 49.1627 126.173 49.1627Z" fill="url(#paint38_linear_62_60)"/>
<path d="M162.209 50.1453C160.786 47.4541 157.509 43.6789 150.051 41.6495C137.639 38.2728 133.266 43.5641 133.383 46.6031C133.503 49.6422 137.05 52.5664 137.05 52.5664C137.05 52.5664 132.439 50.3175 131.255 47.2785C130.12 44.3576 130.95 42.8888 131.017 42.7807C130.819 42.9799 125.79 48.1328 124.282 51.4419C124.194 51.6378 124.112 51.8235 124.034 52.0058C123.935 51.5196 123.921 51.2528 123.921 51.2528C124.275 45.8501 129.063 41.6293 135.092 38.9279C141.121 36.2266 156.016 36.3954 160.804 46.5255C161.368 47.7107 161.833 48.9229 162.209 50.1453Z" fill="url(#paint39_linear_62_60)"/>
<path d="M126.875 76.9709C126.875 76.9709 127.061 81.1427 126.056 82.9436C125.051 84.7445 124.333 85.5379 124.333 85.5379L129.298 86.9321L126.041 85.0967C126.041 85.0967 126.993 83.9494 127.407 82.0359C127.821 80.1224 126.875 76.9709 126.875 76.9709Z" fill="#3C3530"/>
<path d="M211.032 146.844C211.032 146.844 206.89 153.747 199.468 153.582C192.046 153.418 186.695 150.131 186.695 150.131L184.796 136.491C184.796 136.491 187.399 133.007 194.29 131.396C204.128 129.095 208.961 131.232 208.961 131.232L211.032 146.844Z" fill="url(#paint40_linear_62_60)"/>
<path d="M217.073 183.656C217.073 183.656 209.48 199.928 184.796 197.132C184.796 197.132 184.048 177.193 183.938 163.997C183.892 158.79 183.948 154.63 184.186 153.164C184.214 152.989 184.246 152.854 184.278 152.759C185.314 149.801 186.867 148.815 186.867 148.815C186.867 148.815 192.91 152.266 201.195 150.787C209.48 149.308 210.689 145.364 210.689 145.364C210.689 145.364 211.661 145.982 212.668 146.782C213.608 147.525 214.583 148.434 214.831 149.146C215.228 150.281 216.335 169.997 216.831 179.107C216.98 181.87 217.073 183.656 217.073 183.656Z" fill="url(#paint41_linear_62_60)"/>
<path d="M188.752 108.807C187.918 108.456 184.335 105.404 183.5 103.815C182.666 102.226 181.609 100.551 178.858 96.0383C175.439 90.4288 173.035 85.8687 173.452 85.131C173.869 84.3933 176.036 84.2174 178.062 85.8063C180.089 87.3953 181.488 90.1336 181.845 90.8714C182.203 91.6091 184.163 95.6126 185.236 89.9094C186.309 84.2062 184.968 74.5873 185.146 72.0336C185.325 69.4799 185.683 64.8832 187.203 64.5427C188.722 64.2022 189.125 66.7134 189.169 67.9477C189.214 69.1819 190.108 75.5236 190.153 77.0133C190.198 78.5029 190.421 82.2058 190.779 82.4611C191.136 82.7165 191.762 82.2058 191.762 82.2058C191.762 82.2058 191.315 69.6927 191.315 67.82C191.315 65.9473 191.27 62.8828 192.746 62.4998C194.221 62.1167 195.025 63.3085 195.383 65.0109C195.741 66.7134 196.232 72.8848 196.366 74.9703C196.501 77.0558 196.748 81.0441 196.748 81.0441C196.748 81.0441 197.395 71.5228 197.484 69.2245C197.573 66.9262 198.378 64.8407 199.361 65.0535C200.345 65.2663 200.747 66.3303 200.971 70.246C201.194 74.1616 201.06 77.8645 201.194 80.1628C201.328 82.4611 201.105 85.0999 201.507 85.3553C201.909 85.6107 202.759 85.0574 202.938 84.3338C203.116 83.6103 206.201 73.6935 207.005 73.6509C207.81 73.6083 209.017 74.6298 208.883 76.5451C208.749 78.4603 206.424 87.1429 205.843 88.8454C205.262 90.5478 205.322 97.9677 204.547 101.6C203.772 105.232 202.759 108.466 200.196 108.977C197.633 109.488 191.852 110.112 188.752 108.807Z" fill="url(#paint42_linear_62_60)"/>
<path d="M206.433 140.735C206.433 140.735 195.56 150.75 190.357 142.761L189.899 133.019L188.701 107.417C188.701 107.417 190.119 103.929 195.084 104.378C200.049 104.827 201.113 106.63 201.234 108.542C201.294 109.555 202.745 118.489 204.096 126.691C205.305 134.005 206.433 140.735 206.433 140.735Z" fill="url(#paint43_linear_62_60)"/>
<path d="M189.005 83.6891C189.005 83.6891 190.512 83.5202 196.452 84.8709C202.393 86.2216 203.279 86.8125 203.279 86.8125C203.279 86.8125 200.974 84.7021 196.364 83.6047C191.753 82.5072 189.005 83.6891 189.005 83.6891Z" fill="url(#paint44_linear_62_60)"/>
<path d="M206.433 140.735C206.433 140.735 195.56 150.75 190.357 142.761L189.899 133.019C190.892 132.914 191.956 132.773 193.084 132.594C198.01 131.814 201.787 128.957 204.096 126.691C205.305 134.005 206.433 140.735 206.433 140.735Z" fill="url(#paint45_linear_62_60)"/>
<path d="M186.995 91.5117C186.995 91.5117 190.807 93.8927 192.581 97.7442C194.354 101.596 194.974 103.837 194.974 103.837C194.974 103.837 189.921 94.3829 186.995 91.5117Z" fill="url(#paint46_linear_62_60)"/>
<path d="M211.033 146.843C211.033 146.843 206.891 153.745 199.468 153.583C192.045 153.418 186.693 150.132 186.693 150.132L185.427 141.018L184.796 136.49C184.796 136.49 189.8 138.408 197.971 137.534C206.142 136.656 208.962 131.233 208.962 131.233L210.682 144.193L211.033 146.843Z" fill="url(#paint47_linear_62_60)"/>
<path d="M212.668 146.782C211.398 150.169 208.121 155.97 200.177 158.594C191.917 161.326 186.3 156.956 184.186 153.164C184.214 152.989 184.246 152.854 184.278 152.759C185.314 149.801 186.867 148.815 186.867 148.815C186.867 148.815 192.91 152.266 201.195 150.787C209.48 149.308 210.689 145.364 210.689 145.364C210.689 145.364 211.661 145.982 212.668 146.782Z" fill="url(#paint48_linear_62_60)"/>
<path d="M211.033 146.843C211.033 146.843 206.891 153.745 199.468 153.583C192.045 153.418 186.694 150.132 186.694 150.132L185.427 141.019C187.814 141.9 194.017 143.842 203.014 144.189C206.125 144.307 208.65 144.284 210.682 144.193L211.033 146.843Z" fill="url(#paint49_linear_62_60)"/>
<path d="M216.825 186.282C216.825 186.282 205.672 197.511 184.263 201.051C184.263 201.051 184.048 177.193 183.938 163.997C187.261 167.914 194.772 174.846 207.919 177.561C211.494 178.301 214.423 178.794 216.831 179.108C216.98 181.87 216.825 186.282 216.825 186.282Z" fill="url(#paint50_linear_62_60)"/>
<path d="M110.293 165.232C113.78 165.232 116.606 162.541 116.606 159.221C116.606 155.901 113.78 153.209 110.293 153.209C106.806 153.209 103.979 155.901 103.979 159.221C103.979 162.541 106.806 165.232 110.293 165.232Z" fill="#E6E7E8"/>
<defs>
<linearGradient id="paint0_linear_62_60" x1="104.575" y1="-186.878" x2="141.269" y2="110.312" gradientUnits="userSpaceOnUse">
<stop stop-color="#E8F3F8" stop-opacity="0"/>
<stop offset="1" stop-color="#D8E6F7"/>
</linearGradient>
<linearGradient id="paint1_linear_62_60" x1="34.8012" y1="81.8572" x2="88.6251" y2="185.374" gradientUnits="userSpaceOnUse">
<stop offset="0.0391061" stop-color="#DFD3D5"/>
<stop offset="1" stop-color="#DF84B6"/>
</linearGradient>
<linearGradient id="paint2_linear_62_60" x1="60.5221" y1="77.3747" x2="113.722" y2="183.243" gradientUnits="userSpaceOnUse">
<stop stop-color="#D8D5E9"/>
<stop offset="1" stop-color="#8173AC"/>
</linearGradient>
<linearGradient id="paint3_linear_62_60" x1="82.7826" y1="61.2129" x2="128.712" y2="175.502" gradientUnits="userSpaceOnUse">
<stop offset="0.0391061" stop-color="#C8DCDC"/>
<stop offset="1" stop-color="#47CAAC"/>
</linearGradient>
<linearGradient id="paint4_linear_62_60" x1="34.2578" y1="27.5881" x2="44.7479" y2="97.3664" gradientUnits="userSpaceOnUse">
<stop offset="0.0391061" stop-color="#E4C7C2"/>
<stop offset="1" stop-color="#E17876"/>
</linearGradient>
<linearGradient id="paint5_linear_62_60" x1="35.8044" y1="40.3058" x2="67.9211" y2="115.21" gradientUnits="userSpaceOnUse">
<stop offset="0.0391061" stop-color="#E4C7C2"/>
<stop offset="1" stop-color="#E17876"/>
</linearGradient>
<linearGradient id="paint6_linear_62_60" x1="142.837" y1="84.9518" x2="142.676" y2="104.03" gradientUnits="userSpaceOnUse">
<stop stop-color="#CAE1F4"/>
<stop offset="1" stop-color="#00C0E4"/>
</linearGradient>
<linearGradient id="paint7_linear_62_60" x1="138.72" y1="64.5342" x2="143.44" y2="109.157" gradientUnits="userSpaceOnUse">
<stop stop-color="#E5889E"/>
<stop offset="0.941341" stop-color="#E4A9A4"/>
</linearGradient>
<linearGradient id="paint8_linear_62_60" x1="146.104" y1="105.616" x2="142.212" y2="92.8984" gradientUnits="userSpaceOnUse">
<stop offset="0.0530726" stop-color="#956B60" stop-opacity="0"/>
<stop offset="1" stop-color="#CA746D"/>
</linearGradient>
<linearGradient id="paint9_linear_62_60" x1="94.0417" y1="125.361" x2="95.4363" y2="209.95" gradientUnits="userSpaceOnUse">
<stop stop-color="#CAE1F4"/>
<stop offset="1" stop-color="#00C0E4"/>
</linearGradient>
<linearGradient id="paint10_linear_62_60" x1="124.196" y1="101.168" x2="173.915" y2="242.269" gradientUnits="userSpaceOnUse">
<stop stop-color="#CAE1F4"/>
<stop offset="1" stop-color="#00C0E4"/>
</linearGradient>
<linearGradient id="paint11_linear_62_60" x1="134.053" y1="167.594" x2="147.377" y2="112.599" gradientUnits="userSpaceOnUse">
<stop stop-color="#CAE1F4"/>
<stop offset="1" stop-color="#00C0E4"/>
</linearGradient>
<linearGradient id="paint12_linear_62_60" x1="141.264" y1="105.834" x2="148.643" y2="131.484" gradientUnits="userSpaceOnUse">
<stop stop-color="#CAE1F4"/>
<stop offset="1" stop-color="#00C0E4"/>
</linearGradient>
<linearGradient id="paint13_linear_62_60" x1="142.653" y1="103.678" x2="142.492" y2="130.016" gradientUnits="userSpaceOnUse">
<stop stop-color="#CAE1F4"/>
<stop offset="1" stop-color="#00C0E4"/>
</linearGradient>
<linearGradient id="paint14_linear_62_60" x1="160.453" y1="223.602" x2="153.335" y2="195.738" gradientUnits="userSpaceOnUse">
<stop stop-color="#CAE1F4"/>
<stop offset="1" stop-color="#00C0E4"/>
</linearGradient>
<linearGradient id="paint15_linear_62_60" x1="126.046" y1="114.699" x2="143.083" y2="123.999" gradientUnits="userSpaceOnUse">
<stop stop-color="#C8EAFC"/>
<stop offset="1" stop-color="#A1D4FC" stop-opacity="0"/>
</linearGradient>
<linearGradient id="paint16_linear_62_60" x1="80.7572" y1="145.333" x2="120.869" y2="184.44" gradientUnits="userSpaceOnUse">
<stop stop-color="#C8EAFC"/>
<stop offset="1" stop-color="#A1D4FC" stop-opacity="0"/>
</linearGradient>
<linearGradient id="paint17_linear_62_60" x1="170.752" y1="25.0206" x2="170.966" y2="92.1045" gradientUnits="userSpaceOnUse">
<stop offset="0.162011" stop-color="#91786B"/>
<stop offset="0.835195" stop-color="#4E413E"/>
</linearGradient>
<linearGradient id="paint18_linear_62_60" x1="172.539" y1="33.2672" x2="171.253" y2="69.2337" gradientUnits="userSpaceOnUse">
<stop offset="0.162011" stop-color="#91786B"/>
<stop offset="0.835195" stop-color="#4E413E"/>
</linearGradient>
<linearGradient id="paint19_linear_62_60" x1="170.103" y1="43.6825" x2="174.166" y2="55.7558" gradientUnits="userSpaceOnUse">
<stop offset="0.162011" stop-color="#91786B"/>
<stop offset="0.835195" stop-color="#4E413E"/>
</linearGradient>
<linearGradient id="paint20_linear_62_60" x1="162.12" y1="41.7294" x2="163.567" y2="65.8816" gradientUnits="userSpaceOnUse">
<stop offset="0.0391061" stop-color="#E275B2"/>
<stop offset="1" stop-color="#B04383"/>
</linearGradient>
<linearGradient id="paint21_linear_62_60" x1="151.512" y1="35.4905" x2="132.978" y2="76.7133" gradientUnits="userSpaceOnUse">
<stop stop-color="#E5889E"/>
<stop offset="0.941341" stop-color="#E4A9A4"/>
</linearGradient>
<linearGradient id="paint22_linear_62_60" x1="134.651" y1="74.673" x2="134.217" y2="56.9968" gradientUnits="userSpaceOnUse">
<stop offset="0.0530726" stop-color="#956B60" stop-opacity="0"/>
<stop offset="1" stop-color="#CA746D"/>
</linearGradient>
<linearGradient id="paint23_linear_62_60" x1="121.889" y1="74.9865" x2="121.455" y2="57.3103" gradientUnits="userSpaceOnUse">
<stop offset="0.0530726" stop-color="#956B60" stop-opacity="0"/>
<stop offset="1" stop-color="#CA746D"/>
</linearGradient>
<linearGradient id="paint24_linear_62_60" x1="138.917" y1="75.7657" x2="132.908" y2="56.1287" gradientUnits="userSpaceOnUse">
<stop offset="0.0530726" stop-color="#956B60" stop-opacity="0"/>
<stop offset="1" stop-color="#CA746D"/>
</linearGradient>
<linearGradient id="paint25_linear_62_60" x1="116.888" y1="34.6586" x2="125.826" y2="74.6968" gradientUnits="userSpaceOnUse">
<stop offset="0.162011" stop-color="#91786B"/>
<stop offset="0.835195" stop-color="#4E413E"/>
</linearGradient>
<linearGradient id="paint26_linear_62_60" x1="120.529" y1="46.3257" x2="122.91" y2="53.4003" gradientUnits="userSpaceOnUse">
<stop offset="0.162011" stop-color="#91786B"/>
<stop offset="0.835195" stop-color="#4E413E"/>
</linearGradient>
<linearGradient id="paint27_linear_62_60" x1="140.705" y1="30.3511" x2="146.431" y2="80.2421" gradientUnits="userSpaceOnUse">
<stop offset="0.162011" stop-color="#91786B"/>
<stop offset="0.835195" stop-color="#4E413E"/>
</linearGradient>
<linearGradient id="paint28_linear_62_60" x1="130.795" y1="7.30448" x2="144.54" y2="63.1778" gradientUnits="userSpaceOnUse">
<stop offset="0.162011" stop-color="#91786B"/>
<stop offset="0.835195" stop-color="#4E413E"/>
</linearGradient>
<linearGradient id="paint29_linear_62_60" x1="134.423" y1="79.7343" x2="134.859" y2="71.7675" gradientUnits="userSpaceOnUse">
<stop offset="0.162011" stop-color="#36312C"/>
<stop offset="0.835195" stop-color="#4E413E"/>
</linearGradient>
<linearGradient id="paint30_linear_62_60" x1="121.697" y1="78.7657" x2="122.133" y2="70.7989" gradientUnits="userSpaceOnUse">
<stop offset="0.162011" stop-color="#36312C"/>
<stop offset="0.835195" stop-color="#4E413E"/>
</linearGradient>
<linearGradient id="paint31_linear_62_60" x1="136.461" y1="95.3868" x2="132.293" y2="85.8613" gradientUnits="userSpaceOnUse">
<stop offset="0.0530726" stop-color="#956B60" stop-opacity="0"/>
<stop offset="1" stop-color="#CA746D"/>
</linearGradient>
<linearGradient id="paint32_linear_62_60" x1="130.93" y1="68.052" x2="138.43" y2="68.052" gradientUnits="userSpaceOnUse">
<stop offset="0.162011" stop-color="#36312C"/>
<stop offset="0.835195" stop-color="#4E413E"/>
</linearGradient>
<linearGradient id="paint33_linear_62_60" x1="117.893" y1="68.6196" x2="123.913" y2="68.6196" gradientUnits="userSpaceOnUse">
<stop offset="0.162011" stop-color="#36312C"/>
<stop offset="0.835195" stop-color="#4E413E"/>
</linearGradient>
<linearGradient id="paint34_linear_62_60" x1="132.007" y1="90.2075" x2="126.909" y2="80.7075" gradientUnits="userSpaceOnUse">
<stop offset="0.0530726" stop-color="#956B60" stop-opacity="0"/>
<stop offset="1" stop-color="#CA746D"/>
</linearGradient>
<linearGradient id="paint35_linear_62_60" x1="129.291" y1="77.07" x2="128.889" y2="85.0917" gradientUnits="userSpaceOnUse">
<stop stop-color="#E4A9A4"/>
<stop offset="0.941341" stop-color="#F3CCC0"/>
</linearGradient>
<linearGradient id="paint36_linear_62_60" x1="158.64" y1="69.5741" x2="153.848" y2="80.2334" gradientUnits="userSpaceOnUse">
<stop stop-color="#E5889E"/>
<stop offset="0.941341" stop-color="#E4A9A4"/>
</linearGradient>
<linearGradient id="paint37_linear_62_60" x1="159.959" y1="68.2278" x2="152.313" y2="83.0123" gradientUnits="userSpaceOnUse">
<stop offset="0.0530726" stop-color="#956B60" stop-opacity="0"/>
<stop offset="1" stop-color="#CA746D"/>
</linearGradient>
<linearGradient id="paint38_linear_62_60" x1="121.062" y1="42.725" x2="117.079" y2="61.1561" gradientUnits="userSpaceOnUse">
<stop offset="0.162011" stop-color="#91786B"/>
<stop offset="0.835195" stop-color="#4E413E"/>
</linearGradient>
<linearGradient id="paint39_linear_62_60" x1="141.753" y1="47.3239" x2="148.413" y2="67.1142" gradientUnits="userSpaceOnUse">
<stop offset="0.162011" stop-color="#91786B"/>
<stop offset="0.835195" stop-color="#4E413E"/>
</linearGradient>
<linearGradient id="paint40_linear_62_60" x1="193.875" y1="117.212" x2="195.701" y2="129.171" gradientUnits="userSpaceOnUse">
<stop stop-color="#CAE1F4"/>
<stop offset="1" stop-color="#00C0E4"/>
</linearGradient>
<linearGradient id="paint41_linear_62_60" x1="196.963" y1="140.281" x2="201.15" y2="192.801" gradientUnits="userSpaceOnUse">
<stop stop-color="#CAE1F4"/>
<stop offset="1" stop-color="#00C0E4"/>
</linearGradient>
<linearGradient id="paint42_linear_62_60" x1="204.784" y1="207.779" x2="195.774" y2="115.169" gradientUnits="userSpaceOnUse">
<stop stop-color="#E5889E"/>
<stop offset="0.941341" stop-color="#E4A9A4"/>
</linearGradient>
<linearGradient id="paint43_linear_62_60" x1="205.475" y1="207.712" x2="196.464" y2="115.102" gradientUnits="userSpaceOnUse">
<stop stop-color="#E5889E"/>
<stop offset="0.941341" stop-color="#E4A9A4"/>
</linearGradient>
<linearGradient id="paint44_linear_62_60" x1="197.597" y1="89.5601" x2="195.982" y2="84.2834" gradientUnits="userSpaceOnUse">
<stop offset="0.0530726" stop-color="#956B60" stop-opacity="0"/>
<stop offset="1" stop-color="#CA746D"/>
</linearGradient>
<linearGradient id="paint45_linear_62_60" x1="196.519" y1="122.753" x2="199.736" y2="158.688" gradientUnits="userSpaceOnUse">
<stop offset="0.0530726" stop-color="#956B60" stop-opacity="0"/>
<stop offset="1" stop-color="#CA746D"/>
</linearGradient>
<linearGradient id="paint46_linear_62_60" x1="194.654" y1="108.559" x2="190.681" y2="95.5299" gradientUnits="userSpaceOnUse">
<stop offset="0.0530726" stop-color="#956B60" stop-opacity="0"/>
<stop offset="1" stop-color="#CA746D"/>
</linearGradient>
<linearGradient id="paint47_linear_62_60" x1="205.369" y1="129.977" x2="187.129" y2="161.53" gradientUnits="userSpaceOnUse">
<stop stop-color="#CAE1F4"/>
<stop offset="1" stop-color="#00C0E4"/>
</linearGradient>
<linearGradient id="paint48_linear_62_60" x1="198.887" y1="172.658" x2="198.423" y2="147.391" gradientUnits="userSpaceOnUse">
<stop stop-color="#CAE1F4"/>
<stop offset="1" stop-color="#00C0E4"/>
</linearGradient>
<linearGradient id="paint49_linear_62_60" x1="202.879" y1="128.58" x2="191.993" y2="168.229" gradientUnits="userSpaceOnUse">
<stop stop-color="#CAE1F4"/>
<stop offset="1" stop-color="#00C0E4"/>
</linearGradient>
<linearGradient id="paint50_linear_62_60" x1="196.507" y1="144.147" x2="199.48" y2="181.434" gradientUnits="userSpaceOnUse">
<stop stop-color="#CAE1F4"/>
<stop offset="1" stop-color="#00C0E4"/>
</linearGradient>
</defs>
</svg>
