<svg width="115" height="17" viewBox="0 0 115 17" fill="none" xmlns="http://www.w3.org/2000/svg">
<path d="M9.08551 13.7122L13.2355 16.2222C13.9955 16.6822 14.9255 16.0022 14.7255 15.1422L13.6255 10.4222L17.2955 7.24223C17.9655 6.66223 17.6055 5.56227 16.7255 5.49227L11.8955 5.08227L10.0055 0.622271C9.66551 -0.187729 8.50551 -0.187729 8.16551 0.622271L6.27552 5.07227L1.44552 5.48227C0.565522 5.55227 0.205522 6.65223 0.875522 7.23223L4.54552 10.4122L3.44552 15.1322C3.24552 15.9922 4.17552 16.6722 4.93552 16.2122L9.08551 13.7122Z" fill="#FFBB00"/>
<path d="M33.1995 13.7122L37.3495 16.2222C38.1095 16.6822 39.0395 16.0022 38.8395 15.1422L37.7395 10.4222L41.4095 7.24223C42.0795 6.66223 41.7195 5.56227 40.8395 5.49227L36.0095 5.08227L34.1195 0.622271C33.7795 -0.187729 32.6195 -0.187729 32.2795 0.622271L30.3895 5.07227L25.5595 5.48227C24.6795 5.55227 24.3195 6.65223 24.9895 7.23223L28.6595 10.4122L27.5595 15.1322C27.3595 15.9922 28.2895 16.6722 29.0495 16.2122L33.1995 13.7122Z" fill="#FFBB00"/>
<path d="M57.3133 13.7122L61.4633 16.2222C62.2233 16.6822 63.1533 16.0022 62.9533 15.1422L61.8533 10.4222L65.5233 7.24223C66.1933 6.66223 65.8333 5.56227 64.9533 5.49227L60.1233 5.08227L58.2333 0.622271C57.8933 -0.187729 56.7333 -0.187729 56.3933 0.622271L54.5033 5.07227L49.6733 5.48227C48.7933 5.55227 48.4333 6.65223 49.1033 7.23223L52.7733 10.4122L51.6733 15.1322C51.4733 15.9922 52.4033 16.6722 53.1633 16.2122L57.3133 13.7122Z" fill="#FFBB00"/>
<path d="M81.4273 13.7122L85.5773 16.2222C86.3373 16.6822 87.2673 16.0022 87.0673 15.1422L85.9673 10.4222L89.6373 7.24223C90.3073 6.66223 89.9473 5.56227 89.0673 5.49227L84.2373 5.08227L82.3473 0.622271C82.0073 -0.187729 80.8473 -0.187729 80.5073 0.622271L78.6173 5.07227L73.7873 5.48227C72.9073 5.55227 72.5473 6.65223 73.2173 7.23223L76.8873 10.4122L75.7873 15.1322C75.5873 15.9922 76.5173 16.6722 77.2773 16.2122L81.4273 13.7122Z" fill="#FFBB00"/>
<path d="M105.541 13.7122L109.691 16.2222C110.451 16.6822 111.381 16.0022 111.181 15.1422L110.081 10.4222L113.751 7.24223C114.421 6.66223 114.061 5.56227 113.181 5.49227L108.351 5.08227L106.461 0.622271C106.121 -0.187729 104.961 -0.187729 104.621 0.622271L102.731 5.07227L97.9011 5.48227C97.0211 5.55227 96.6611 6.65223 97.3311 7.23223L101.001 10.4122L99.9011 15.1322C99.7011 15.9922 100.631 16.6722 101.391 16.2122L105.541 13.7122Z" fill="#FFBB00"/>
</svg>
