<?xml version="1.0" encoding="UTF-8"?> <svg xmlns="http://www.w3.org/2000/svg" xmlns:xlink="http://www.w3.org/1999/xlink" viewBox="0 0 471.08 360.95"><defs><style>.cls-1{fill:none;}.cls-2{opacity:0.4;}.cls-3{clip-path:url(#clip-path);}.cls-4{fill:#88cbc8;}.cls-5{fill:#89cbc8;}.cls-6{fill:#8accc9;}.cls-7{fill:#8bccc9;}.cls-8{fill:#8ccdca;}.cls-9{fill:#8dcdca;}.cls-10{fill:#8ecdcb;}.cls-11{fill:#8fcecb;}.cls-12{fill:#90cecc;}.cls-13{fill:#91cfcc;}.cls-14{fill:#92cfcd;}.cls-15{fill:#93d0cd;}.cls-16{fill:#94d0ce;}.cls-17{fill:#95d0ce;}.cls-18{fill:#96d1cf;}.cls-19{fill:#97d1cf;}.cls-20{fill:#98d2cf;}.cls-21{fill:#99d2d0;}.cls-22{fill:#9ad2d0;}.cls-23{fill:#9bd3d1;}.cls-24{fill:#9cd3d1;}.cls-25{fill:#9dd4d2;}.cls-26{fill:#9ed4d2;}.cls-27{fill:#9fd5d3;}.cls-28{fill:#a0d5d3;}.cls-29{fill:#a1d5d4;}.cls-30{fill:#a2d6d4;}.cls-31{fill:#a3d6d5;}.cls-32{fill:#a4d7d5;}.cls-33{fill:#a5d7d6;}.cls-34{fill:#a6d7d6;}.cls-35{fill:#a7d8d6;}.cls-36{fill:#a8d8d7;}.cls-37{fill:#a9d9d7;}.cls-38{fill:#aad9d8;}.cls-39{fill:#abdad8;}.cls-40{fill:#acdad9;}.cls-41{fill:#addad9;}.cls-42{fill:#aedbda;}.cls-43{fill:#afdbda;}.cls-44{fill:#b0dcdb;}.cls-45{fill:#b1dcdb;}.cls-46{fill:#b2dcdc;}.cls-47{fill:#b3dddc;}.cls-48{fill:#b4dddd;}.cls-49{fill:#b5dedd;}.cls-50{fill:#b6dedd;}.cls-51{fill:#b7dfde;}.cls-52{fill:#b8dfde;}.cls-53{fill:#b9dfdf;}.cls-54{fill:#bae0df;}.cls-55{fill:#bbe0e0;}.cls-56{fill:#bce1e0;}.cls-57{fill:#bde1e1;}.cls-58{fill:#bee1e1;}.cls-59{fill:#bfe2e2;}.cls-60{fill:#c0e2e2;}.cls-61{fill:#c1e3e3;}.cls-62{fill:#c2e3e3;}.cls-63{fill:#c4e4e4;}.cls-64{fill:#c5e4e4;}.cls-65{fill:#c6e4e4;}.cls-66{fill:#c7e5e5;}.cls-67{fill:#c8e5e5;}.cls-68{fill:#c9e6e6;}.cls-69{fill:#cae6e6;}.cls-70{fill:#cbe6e7;}.cls-71{fill:#cce7e7;}.cls-72{fill:#cde7e8;}.cls-73{fill:#cee8e8;}.cls-74{fill:#cfe8e9;}.cls-75{fill:#d0e8e9;}.cls-76{fill:#d1e9ea;}.cls-77{fill:#d2e9ea;}.cls-78{fill:#d3eaea;}.cls-79{fill:#d4eaeb;}.cls-80{fill:#d5ebeb;}.cls-81{fill:#d6ebec;}.cls-82{fill:#d7ebec;}.cls-83{fill:#d8eced;}.cls-84{fill:#d9eced;}.cls-85{fill:#daedee;}.cls-86{fill:#dbedee;}.cls-87{fill:#dcedef;}.cls-88{fill:#ddeeef;}.cls-89{fill:#deeef0;}.cls-90{fill:#dfeff0;}.cls-91{fill:#e0eff1;}.cls-92{fill:#e1f0f1;}.cls-93{fill:#e2f0f1;}.cls-94{fill:#e3f0f2;}.cls-95{opacity:0.2;}.cls-96{fill:#fff;}.cls-97{fill:#4c3e71;}.cls-98{fill:#fccfa9;}.cls-99{fill:#edf0f9;}.cls-100{fill:#6f6aa8;}.cls-101{fill:#53b1a9;}.cls-102{fill:#000002;}.cls-103{fill:#44043c;}.cls-104{fill:#abe271;}.cls-105{fill:#b4dddc;}.cls-106{fill:#fff3f3;}</style><clipPath id="clip-path"><path class="cls-1" d="M404.27,180.87v.52c0,3-.09,6-.25,9,0,.88-.1,1.76-.15,2.64q-.3,4.49-.82,8.89-.12,1.08-.27,2.16-.87,6.8-2.25,13.41a175.42,175.42,0,0,1-6.48,23.32A178.62,178.62,0,0,1,369.4,287.4c-1.06,1.44-2.13,2.86-3.24,4.27a181,181,0,0,1-32.33,32.08l-2.05,1.54q-1.81,1.36-3.67,2.67-3.71,2.63-7.55,5.07c-3.13,2-6.33,3.88-9.58,5.67a179,179,0,0,1-71.11,21.57q-7.76.68-15.68.68A179.84,179.84,0,0,1,166,351.36c-2.3-.78-4.56-1.61-6.81-2.48h0c-2-.78-4-1.59-6-2.44a178,178,0,0,1-25.57-13.5c-.89-.57-1.78-1.14-2.66-1.72s-1.47-1-2.2-1.48c-.25-.16-.49-.33-.73-.5a179.86,179.86,0,0,1-78-148.37q0-6.45.46-12.79c16-33.49,40.47-56.45,55.26-42,19.46,19-1.56,101.18,25.21,101.19s19.05-148.74,58.64-149.7-16,158,14.5,185.79S269,195.9,253.43,91.24,314,40.09,326.67,95.85s-1.73,142.2,14,159.23,37.16-44.55,23.82-82.53-5.55-50.42,14.13-46.49c6.51,1.3,14.18,7.12,21.6,16.65a178.87,178.87,0,0,1,3.16,20.07c.28,2.8.5,5.62.64,8.46,0,.64.07,1.3.09,1.95,0,.83.07,1.67.09,2.51,0,.2,0,.4,0,.6C404.25,177.82,404.27,179.34,404.27,180.87Z"></path></clipPath></defs><g id="objects"><g class="cls-2"><g class="cls-3"><rect class="cls-4" x="44.1" y="-13.43" width="360.17" height="374.38"></rect><rect class="cls-4" x="43.26" y="-14.27" width="361.84" height="376.06"></rect><rect class="cls-5" x="43.26" y="-14.27" width="361.84" height="376.06"></rect><polygon class="cls-6" points="405.11 -11.16 405.11 361.79 43.26 361.79 43.26 -14.27 405.11 -14.27 405.11 -11.16"></polygon><polygon class="cls-7" points="405.11 -6.76 405.11 361.79 43.26 361.79 43.26 -14.27 405.11 -14.27 405.11 -6.76"></polygon><polygon class="cls-8" points="405.11 -2.35 405.11 361.79 43.26 361.79 43.26 -14.27 405.11 -14.27 405.11 -2.35"></polygon><polygon class="cls-9" points="405.11 2.05 405.11 361.79 43.26 361.79 43.26 -14.27 405.11 -14.27 405.11 2.05"></polygon><polygon class="cls-10" points="405.11 6.45 405.11 361.79 43.26 361.79 43.26 -14.27 405.11 -14.27 405.11 6.45"></polygon><polygon class="cls-11" points="405.11 10.86 405.11 361.79 43.26 361.79 43.26 -14.27 405.11 -14.27 405.11 10.86"></polygon><path class="cls-12" d="M405.11,15.26V361.79H43.26V-14.27H394.68v-3.32q6.56,2.2,13.07,4.6h-2.64Z"></path><path class="cls-13" d="M405.11,19.67V361.79H43.26V-11.4H41.44q6.18-2.13,12.42-4.12v1.25H380.1V-17.1q6.51,2,13,4.21t12.95,4.55h-.94Z"></path><path class="cls-14" d="M405.11,24.07V361.79H43.26V-6.71h-.2c4.08-1.41,8.19-2.77,12.3-4.08q12.36-3.94,24.89-7.28v3.8H365.7v-1.92q13,3.66,25.82,8Q398-6,404.36-3.68q3.19,1.17,6.39,2.39h-5.64Z"></path><path class="cls-15" d="M405.11,28.47V361.79H43.26V.11H38.62Q41.64-1,44.68-2q6.06-2.09,12.19-4,24.48-7.8,49.65-13.24v5H338.6V-18q12.91,3,25.76,6.59t25.58,7.92C394.19-2,398.43-.57,402.66,1q3.16,1.15,6.33,2.36h-3.88Z"></path><path class="cls-16" d="M405.11,32.88V361.79H43.26V4.77h-3c2-.71,4-1.42,6-2.11q6-2.07,12.08-4,24.26-7.71,49.19-13.11v.19H311.85v-4.1Q337.55-13.81,363-6.64,375.74-3,388.36,1.21q6.31,2.13,12.6,4.43Q404.11,6.8,407.24,8h-2.13Z"></path><path class="cls-17" d="M405.11,37.28V361.79H43.26V9.44H42q3-1.06,5.95-2.09,6-2.05,12-4a528.34,528.34,0,0,1,98.56-21.29v3.64H260V-20A521.22,521.22,0,0,1,361.67-1.87q12.6,3.57,25.11,7.78Q393,8,399.26,10.3q3.12,1.14,6.22,2.32h-.37Z"></path><path class="cls-18" d="M405.11,41.69v320.1H43.26V16.25H37.77q11.7-4.36,23.61-8.15A521.37,521.37,0,0,1,259.6-15,518.22,518.22,0,0,1,409.87,19.63h-4.76Z"></path><path class="cls-19" d="M405.11,46.09v315.7H43.26V20.89H39.5q11.6-4.3,23.39-8.06A513.27,513.27,0,0,1,408.05,24.25h-2.94Z"></path><path class="cls-20" d="M405.11,50.5V361.79H43.26V25.54h-2q11.48-4.27,23.16-8A508.39,508.39,0,0,1,406.24,28.86h-1.13Z"></path><path class="cls-21" d="M405.11,54.9V361.79H43.26V30.19H43Q54.33,26,65.9,22.27a504,504,0,0,1,290.4-5,500.48,500.48,0,0,1,48.12,16.25q3,1.17,6,2.39h-5.27Z"></path><path class="cls-22" d="M405.11,59.3V361.79H43.26V37H39.07q2.81-1.08,5.62-2.13Q55.94,30.65,67.4,27A498.58,498.58,0,0,1,402.61,38.09q3,1.17,5.89,2.37h-3.39Z"></path><path class="cls-23" d="M405.11,63.71V361.79H43.26V41.59H40.85q2.77-1.08,5.57-2.11,11.14-4.15,22.48-7.76a494.28,494.28,0,0,1,284.72-4.95Q377.4,33.49,400.8,42.7c1.94.77,3.89,1.56,5.83,2.35h-1.52Z"></path><path class="cls-24" d="M405.11,68.11V361.79H43.26V46.21h-.62c1.83-.7,3.66-1.4,5.5-2.08q11-4.11,22.27-7.68A491.56,491.56,0,0,1,257.3,14.65,488.12,488.12,0,0,1,399,47.32q5.79,2.28,11.54,4.72h-5.41Z"></path><path class="cls-25" d="M405.11,72.52V361.79H43.26V53H39c3.61-1.45,7.24-2.84,10.88-4.2q10.93-4.07,22-7.6A483.89,483.89,0,0,1,397.17,51.93q5.71,2.26,11.42,4.68h-3.48Z"></path><path class="cls-26" d="M405.11,76.92V361.79H43.26V57.57H40.83q5.37-2.15,10.77-4.15,10.82-4,21.82-7.53A478.63,478.63,0,0,1,395.35,56.55q5.67,2.23,11.31,4.63h-1.55Z"></path><path class="cls-27" d="M405.11,81.32V361.79H43.26V62.17h-.59Q48,60.05,53.33,58.06q10.71-4,21.59-7.44A474,474,0,0,1,393.54,61.16q5.61,2.22,11.19,4.58c1.86.79,3.71,1.59,5.57,2.41h-5.19Z"></path><path class="cls-28" d="M405.11,85.73V361.79H43.26V68.9h-4c1.74-.72,3.48-1.42,5.23-2.12q5.25-2.1,10.55-4.07,10.59-3.93,21.37-7.37a469.43,469.43,0,0,1,270.47-4.7,466.83,466.83,0,0,1,44.82,15.14q5.55,2.19,11.08,4.53c1.84.78,3.67,1.57,5.51,2.38h-3.2Z"></path><path class="cls-29" d="M405.11,90.13V361.79H43.26V73.49H41.17c1.73-.72,3.45-1.42,5.18-2.11q5.2-2.07,10.44-4,10.49-3.9,21.14-7.29a463.89,463.89,0,0,1,312,10.32q5.49,2.16,10.95,4.48c1.83.78,3.64,1.56,5.46,2.36h-1.21Z"></path><path class="cls-30" d="M405.11,94.54V361.79H43.26V80.21H38q20.37-8.7,41.47-15.42A462,462,0,0,1,255,44.31,458.71,458.71,0,0,1,388.09,75q10.88,4.29,21.62,9.17h-4.6Z"></path><path class="cls-31" d="M405.11,98.94V361.79H43.26v-277H39.91q20.15-8.61,41-15.26A456.73,456.73,0,0,1,254.62,49.26,452.94,452.94,0,0,1,386.28,79.62q10.75,4.25,21.38,9.07h-2.55Z"></path><path class="cls-32" d="M405.11,103.34V361.79H43.26V89.33H41.87q19.92-8.52,40.57-15.09a449.4,449.4,0,0,1,302,10q10.64,4.2,21.16,9h-.51Z"></path><path class="cls-33" d="M405.11,107.75v254H43.26V96H38.9c1.64-.72,3.27-1.43,4.92-2.13Q63.52,85.46,84,79a444.24,444.24,0,0,1,298.7,9.89q10.52,4.14,20.92,8.87,2.6,1.19,5.19,2.4h-3.65Z"></path><path class="cls-34" d="M405.11,112.15V361.79H43.26V100.55H40.91q2.42-1.06,4.86-2.11,19.48-8.32,39.68-14.75a439.91,439.91,0,0,1,253.4-4.41q21.15,6,42,14.18,10.4,4.11,20.68,8.78c1.72.77,3.43,1.57,5.14,2.37h-1.55Z"></path><path class="cls-35" d="M405.11,116.56V361.79H43.26V107.23H38.13q4.77-2.17,9.59-4.23Q67,94.77,87,88.41A434.7,434.7,0,0,1,379,98.07q10.29,4.07,20.46,8.68,5.08,2.31,10.13,4.76h-4.5Z"></path><path class="cls-36" d="M405.11,121V361.79H43.26v-250H40.19q4.71-2.14,9.48-4.18,19-8.15,38.79-14.43A432.13,432.13,0,0,1,252.7,74a428.85,428.85,0,0,1,124.51,28.71q10.16,4,20.22,8.58,5,2.28,10,4.7h-2.34Z"></path><path class="cls-37" d="M405.11,125.37V361.79H43.26V116.25h-1q4.66-2.11,9.37-4.13Q70.45,104.07,90,97.86a424.5,424.5,0,0,1,285.42,9.44q10,4,20,8.48,5,2.27,9.91,4.66h-.18Z"></path><path class="cls-38" d="M405.11,129.77v232H43.26V122.89H39.71q2.3-1.08,4.6-2.13,4.61-2.1,9.26-4.08,18.6-8,37.9-14.1a419.66,419.66,0,0,1,282.11,9.34q9.93,3.92,19.76,8.38,4.91,2.24,9.79,4.6c1.62.79,3.25,1.59,4.87,2.4h-2.89Z"></path><path class="cls-39" d="M405.11,134.17V361.79H43.26V127.38H41.83c1.51-.71,3-1.42,4.54-2.11q4.55-2.07,9.15-4Q73.91,113.39,93,107.31a415.17,415.17,0,0,1,317.6,26.86Z"></path><path class="cls-40" d="M405.11,138.58V361.79H43.26V134H39.48q8.9-4.32,18-8.2Q75.63,118,94.48,112A410.18,410.18,0,0,1,408.3,138.58Z"></path><path class="cls-41" d="M405.11,143V361.79H43.26V138.45H41.64q8.8-4.26,17.78-8.1,18-7.66,36.56-13.6A405.26,405.26,0,0,1,406,143Z"></path><path class="cls-42" d="M403.75,147.39c1.53.79,3.07,1.6,4.59,2.41h-3.23v212H43.26V145H39.48q2.16-1.08,4.33-2.13,8.69-4.22,17.56-8,17.73-7.57,36.12-13.43A400.27,400.27,0,0,1,403.75,147.39Z"></path><path class="cls-43" d="M401.47,151.79q4.56,2.36,9,4.82h-5.39V361.79H43.26V151.63H37.45q4.24-2.17,8.53-4.26,8.58-4.16,17.34-7.9Q80.84,132,99,126.2A395.4,395.4,0,0,1,401.47,151.79Z"></path><path class="cls-44" d="M399.19,156.19q4.5,2.34,8.92,4.76h-3V361.79H43.26V156H39.72q4.19-2.16,8.43-4.21,8.46-4.11,17.12-7.81,17.3-7.38,35.23-13.09A390.41,390.41,0,0,1,399.19,156.19Z"></path><path class="cls-45" d="M396.92,160.6q4.44,2.29,8.8,4.69h-.61v196.5H43.26V160.45H42q4.13-2.13,8.31-4.16,8.37-4.06,16.91-7.71,17.07-7.29,34.78-12.93A385.48,385.48,0,0,1,396.92,160.6Z"></path><path class="cls-46" d="M394.64,165q4.39,2.26,8.69,4.64c1.44.79,2.87,1.58,4.29,2.39h-2.51V361.79H43.26V167H40.2q2-1.08,4.07-2.13,4.08-2.1,8.21-4.1,8.25-4,16.69-7.61,16.86-7.2,34.33-12.77A380.62,380.62,0,0,1,394.64,165Z"></path><path class="cls-47" d="M392.36,169.41q8.67,4.47,17,9.34h-4.25v183H43.26V173.51H38.53a377.17,377.17,0,0,1,353.83-4.1Z"></path><path class="cls-48" d="M390.09,173.81q8.55,4.42,16.77,9.22h-1.75V361.79H43.26V177.86H40.91a372.16,372.16,0,0,1,349.18-4.05Z"></path><path class="cls-49" d="M387.81,178.21q8.43,4.36,16.55,9.1,2,1.19,4,2.38h-3.29v172.1H43.26V184.35H39.43c1.28-.73,2.57-1.44,3.86-2.14a367.18,367.18,0,0,1,344.52-4Z"></path><path class="cls-50" d="M385.53,182.62q8.33,4.31,16.33,9,4,2.32,7.92,4.75h-4.67V361.79H43.26v-171H38.07q3.78-2.17,7.6-4.26a362.25,362.25,0,0,1,339.86-3.94Z"></path><path class="cls-51" d="M383.26,187q8.21,4.24,16.1,8.85,3.94,2.3,7.82,4.69h-2.07V361.79H43.26V195.12H40.55q3.72-2.16,7.5-4.21A357.28,357.28,0,0,1,383.26,187Z"></path><path class="cls-52" d="M381,191.43q8.1,4.19,15.88,8.72c2.59,1.51,5.16,3.06,7.71,4.62l3.79,2.38h-3.25V361.79H43.26V199.41H43q3.67-2.13,7.4-4.15A352.34,352.34,0,0,1,381,191.43Z"></path><path class="cls-53" d="M378.7,195.83a351.18,351.18,0,0,1,30.7,17.89h-4.29V361.79H43.26V208H38.32q7.16-4.36,14.49-8.36a347.36,347.36,0,0,1,325.89-3.78Z"></path><path class="cls-54" d="M376.43,200.23a350.2,350.2,0,0,1,30.26,17.63h-1.58V361.79H43.26V212.2H40.91q7-4.29,14.28-8.24a342.35,342.35,0,0,1,321.24-3.73Z"></path><path class="cls-55" d="M374.15,204.64A341.53,341.53,0,0,1,404,222l3.56,2.36h-2.42V361.79H43.26V218.57H40l3.46-2.14q6.94-4.23,14.07-8.12a337.47,337.47,0,0,1,316.59-3.67Z"></path><path class="cls-56" d="M371.87,209a338.24,338.24,0,0,1,29.39,17.12c2.34,1.54,4.67,3.1,7,4.68h-3.12v131H43.26V224.92h-4c2.24-1.45,4.51-2.87,6.79-4.26q6.84-4.17,13.86-8A332.48,332.48,0,0,1,371.87,209Z"></path><path class="cls-57" d="M369.6,213.45a330.91,330.91,0,0,1,28.94,16.86q3.46,2.26,6.87,4.61h-.3V361.79H43.26V229.09H42q3.33-2.15,6.7-4.2,6.73-4.11,13.65-7.88a327.56,327.56,0,0,1,307.28-3.56Z"></path><path class="cls-58" d="M367.32,217.85a326,326,0,0,1,28.5,16.61q6.84,4.46,13.39,9.22h-4.1V361.79H43.26V237.55h-5.1q12.9-8.76,26.54-16.19a322.58,322.58,0,0,1,302.62-3.51Z"></path><path class="cls-59" d="M365,222.26a319,319,0,0,1,28.07,16.35q6.74,4.39,13.18,9.08h-1.18v114.1H43.26V241.65H41q12.7-8.62,26.13-15.94a317.53,317.53,0,0,1,298-3.45Z"></path><path class="cls-60" d="M362.77,226.66a315.33,315.33,0,0,1,27.62,16.1q6.63,4.32,13,8.94,3.17,2.31,6.27,4.68h-4.53V361.79H43.26V250.07H37.53q3.07-2.2,6.21-4.32,12.49-8.48,25.72-15.69a312.67,312.67,0,0,1,293.31-3.4Z"></path><path class="cls-61" d="M360.49,231.06a314.51,314.51,0,0,1,27.19,15.84q6.52,4.26,12.77,8.8c2.08,1.52,4.14,3.05,6.17,4.61h-1.51V361.79H43.26V254.1H40.42q3-2.16,6.1-4.25,12.31-8.34,25.32-15.44a307.65,307.65,0,0,1,288.65-3.35Z"></path><path class="cls-62" d="M358.21,235.47a302.76,302.76,0,0,1,51.32,33.44h-4.42v92.88H43.26V262.47H37.39q5.86-4.41,11.92-8.52,12.11-8.2,24.91-15.19a302.76,302.76,0,0,1,284-3.29Z"></path><path class="cls-63" d="M355.94,239.87a299.35,299.35,0,0,1,50.48,32.9h-1.31v89H43.26V266.43H40.37q5.77-4.33,11.73-8.38Q64,250,76.6,243.11a297.75,297.75,0,0,1,279.34-3.24Z"></path><path class="cls-64" d="M353.66,244.28a294,294,0,0,1,49.64,32.34q2.83,2.29,5.6,4.64h-3.79v80.53H43.26V274.73H37.73q2.79-2.21,5.63-4.34,5.67-4.26,11.53-8.24,11.7-7.93,24.09-14.69a292.7,292.7,0,0,1,274.68-3.18Z"></path><path class="cls-65" d="M351.38,248.68a288.82,288.82,0,0,1,48.8,31.8q2.79,2.25,5.51,4.56h-.58v76.75H43.26V278.62H40.81q2.74-2.17,5.53-4.27,5.58-4.19,11.33-8.09,11.52-7.81,23.69-14.45a287.83,287.83,0,0,1,270-3.13Z"></path><path class="cls-66" d="M349.11,253.08a283.3,283.3,0,0,1,47.95,31.26q5.49,4.41,10.7,9.08h-2.65v68.37H43.26v-75H38.55a282.88,282.88,0,0,1,310.56-33.76Z"></path><path class="cls-67" d="M346.83,257.49a278.6,278.6,0,0,1,47.11,30.7q5.38,4.35,10.51,8.92c1.71,1.53,3.4,3.07,5.06,4.64h-4.4v60H43.26V290.65H41.72a278,278,0,0,1,305.11-33.16Z"></path><path class="cls-68" d="M344.55,261.89a273.87,273.87,0,0,1,46.28,30.16q10.57,8.54,20.13,18h-5.85v51.77H43.26v-63H39.83c1.67-1.46,3.36-2.89,5.06-4.31a273,273,0,0,1,299.66-32.57Z"></path><path class="cls-69" d="M342.28,266.3a268.26,268.26,0,0,1,45.43,29.6q10.38,8.39,19.76,17.65h-2.36v48.24H43.26V306.87h-5q4.83-4.42,9.84-8.6a268,268,0,0,1,294.22-32Z"></path><path class="cls-70" d="M340,270.7a264.06,264.06,0,0,1,44.59,29.06q10.2,8.22,19.4,17.31,2.29,2.28,4.53,4.59h-3.41v40.13H43.26V310.52H41.58q4.72-4.33,9.65-8.44A263.09,263.09,0,0,1,340,270.7Z"></path><path class="cls-71" d="M337.72,275.1a259.24,259.24,0,0,1,43.75,28.52,253.08,253.08,0,0,1,19,17q4.51,4.45,8.78,9.1h-4.17v32.09H43.26V318.5H40.33q2.28-2.19,4.6-4.32,4.65-4.28,9.48-8.28a258.05,258.05,0,0,1,283.31-30.8Z"></path><path class="cls-72" d="M335.45,279.51a254.11,254.11,0,0,1,42.91,28q9.79,7.92,18.66,16.66,4.43,4.37,8.61,8.93h-.52v28.73H43.26V326.44h-3.9q8.73-8.85,18.22-16.73a253.14,253.14,0,0,1,277.87-30.2Z"></path><path class="cls-73" d="M333.17,283.91a247.16,247.16,0,0,1,76.77,61.61h-4.83v16.27H43.26V329.92h-.37q8.56-8.67,17.86-16.4a248.16,248.16,0,0,1,272.42-29.61Z"></path><path class="cls-74" d="M330.89,288.32a242.14,242.14,0,0,1,75.24,60.38h-1v13.09H43.26V342.14h-5c2.67-3,5.41-5.9,8.21-8.73q8.38-8.51,17.5-16.08a243.18,243.18,0,0,1,267-29Z"></path><path class="cls-75" d="M328.62,292.72a237.35,237.35,0,0,1,73.7,59.15q3.71,4.45,7.17,9.07h-4.38v.85H43.26V345.45H41.91c2.62-2.93,5.29-5.78,8-8.56q8.22-8.33,17.14-15.75a238.27,238.27,0,0,1,261.53-28.42Z"></path><path class="cls-76" d="M326.34,297.12A232.31,232.31,0,0,1,398.5,355q3.63,4.36,7,8.88l-.42-2.13H43.26v-4.21H38.12A230.71,230.71,0,0,1,70.27,325a233.25,233.25,0,0,1,256.07-27.84Z"></path><path class="cls-77" d="M324.06,301.53a227.28,227.28,0,0,1,70.63,56.68q3.56,4.28,6.88,8.7v-5.12H43.26v-1.1H42a228.17,228.17,0,0,1,282.08-59.16Z"></path><path class="cls-78" d="M321.79,305.93a222.62,222.62,0,0,1,69.09,55.45c1.16,1.4,2.3,2.8,3.42,4.22v-3.81H45.83v2a223.23,223.23,0,0,1,276-57.88Z"></path><path class="cls-79" d="M319.51,310.34a217.47,217.47,0,0,1,67.56,54.22v-2.77H49.69v5.14a218.22,218.22,0,0,1,269.82-56.59Z"></path><path class="cls-80" d="M317.24,314.74a213.91,213.91,0,0,1,36.17,23.58c5.51,4.44,10.76,9.14,15.74,14.05q3.74,3.67,7.26,7.52c1.17,1.28,2.33,2.58,3.47,3.88v-2H60.39V362q3.53-3.93,7.2-7.67Q75,346.84,83,340.2a213.46,213.46,0,0,1,234.29-25.46Z"></path><path class="cls-81" d="M315,319.15a208.6,208.6,0,0,1,35.33,23q8.08,6.52,15.37,13.72,3.66,3.6,7.1,7.36v-1.46H64.09v3.49q3.43-3.84,7-7.49,7.2-7.29,15-13.77A208.44,208.44,0,0,1,315,319.15Z"></path><path class="cls-82" d="M312.68,323.55A203.87,203.87,0,0,1,347.18,346q7.88,6.36,15,13.39,3.56,3.51,6.92,7.18v-4.81H71.18v3.1c1.14-1.22,2.3-2.43,3.47-3.61q7-7.12,14.65-13.45a203.49,203.49,0,0,1,223.38-24.28Z"></path><path class="cls-83" d="M310.41,328a199.93,199.93,0,0,1,33.65,21.93q7.69,6.21,14.64,13.07v-1.16H78.18v3q6.85-6.94,14.29-13.12A198.55,198.55,0,0,1,310.41,328Z"></path><path class="cls-84" d="M308.13,332.36a194.05,194.05,0,0,1,32.81,21.38,190.82,190.82,0,0,1,14.27,12.74v-4.69H85.08v3.12q1.71-1.65,3.45-3.25,3.5-3.2,7.11-6.21a193.55,193.55,0,0,1,212.49-23.09Z"></path><path class="cls-85" d="M305.85,336.76a188.83,188.83,0,0,1,32,20.84q3.66,2.94,7.13,6v-1.86H91.89v3.52q3.39-3.1,6.92-6.05a188.65,188.65,0,0,1,207-22.5Z"></path><path class="cls-86" d="M303.58,341.17a183.84,183.84,0,0,1,31.12,20.28q3.57,2.88,6.95,5.9v-5.56H102v1.29a183.63,183.63,0,0,1,201.6-21.91Z"></path><path class="cls-87" d="M301.3,345.57a179.51,179.51,0,0,1,30.29,19.74v-3.52H105.16v5.1A178.62,178.62,0,0,1,301.3,345.57Z"></path><path class="cls-88" d="M299,350a174.38,174.38,0,0,1,15.35,8.95q3.69,2.4,7.21,5v-2.09H114.94v3.68q3.38-2.54,6.84-4.89,6.94-4.71,14.29-8.72a175,175,0,0,1,30.62-13.08A173,173,0,0,1,299,350Z"></path><path class="cls-89" d="M296.75,354.38a169.76,169.76,0,0,1,14.91,8.69v-1.28H124.57v2.89q6.75-4.57,13.88-8.47a170.49,170.49,0,0,1,29.74-12.71A168,168,0,0,1,296.75,354.38Z"></path><path class="cls-90" d="M294.47,358.78a167.26,167.26,0,0,1,14.47,8.43v-5.42H134v2.71q3.38-2.06,6.83-3.94a163.86,163.86,0,0,1,153.64-1.78Z"></path><path class="cls-91" d="M292.19,361.79h-149v3.12a158.81,158.81,0,0,1,149-1.72Z"></path><path class="cls-92" d="M289.92,361.79h-131v1q6.8-2.91,13.83-5.15a153.23,153.23,0,0,1,117.21,9.92Z"></path><path class="cls-93" d="M287.64,361.79H174.21v.61a148.25,148.25,0,0,1,85.41-1.49q7.14,2,14.16,4.78v-3.9Z"></path><path class="cls-94" d="M285.36,361.79H175.72v5.33a143.94,143.94,0,0,1,54.74-6.38,141.78,141.78,0,0,1,27.82,4.95v-3.9Z"></path></g></g><g class="cls-95"><path class="cls-96" d="M403.8,180.87v.52c0,3-.09,6-.25,9q-.06,1.32-.15,2.64c-.19,3-.47,5.95-.81,8.89l-.27,2.16c-.58,4.53-1.34,9-2.25,13.41a176.94,176.94,0,0,1-6.48,23.32,179.22,179.22,0,0,1-24.65,46.62c-1.07,1.44-2.14,2.86-3.24,4.27a181.45,181.45,0,0,1-32.34,32.08l-2,1.54c-1.21.91-2.44,1.8-3.67,2.67q-3.72,2.63-7.56,5.07c-3.13,2-6.32,3.88-9.58,5.67a178.94,178.94,0,0,1-71.1,21.57q-7.75.68-15.69.68a179.89,179.89,0,0,1-58.15-9.59q-3.44-1.17-6.81-2.48h0c-2-.78-4-1.59-6-2.44a178,178,0,0,1-25.57-13.5l-2.65-1.72c-.73-.48-1.47-1-2.2-1.48l-.74-.5a179.88,179.88,0,0,1-78-148.37q0-6.8.5-13.48h0a178.87,178.87,0,0,1,3.22-23.1c.45-2.18.94-4.33,1.46-6.47h0a179.23,179.23,0,0,1,13.76-37.41c.81-1.61,1.63-3.2,2.49-4.78q.62-1.15,1.26-2.31l1-1.79q4.36-7.61,9.43-14.73h0l.54-.77.67-.93h0c.65-.91,1.32-1.79,2-2.69h0c.15-.21.3-.41.47-.62l.37-.49h0q4.52-5.88,9.5-11.38l.1-.11h0c.92-1,1.83-2,2.77-3A180.51,180.51,0,0,1,153.56,15c3.37-1.43,6.81-2.77,10.28-4q4.33-1.54,8.76-2.84c4.52-1.33,9.1-2.5,13.76-3.48,2.1-.45,4.21-.85,6.34-1.22A181.34,181.34,0,0,1,211.48,1.2q6.08-.42,12.24-.41A179.23,179.23,0,0,1,326.4,32.91q6.47,4.5,12.5,9.54,4.74,3.91,9.19,8.19,1.82,1.71,3.56,3.5c1.3,1.29,2.56,2.61,3.8,3.94q1.49,1.59,2.92,3.21l.27.3c1.15,1.29,2.27,2.6,3.38,3.94.71.84,1.4,1.68,2.09,2.54.26.32.51.64.76,1q1.9,2.38,3.72,4.85c.62.82,1.22,1.66,1.82,2.49l.59.84c.46.65.92,1.3,1.36,2,.57.83,1.13,1.65,1.68,2.49s1.22,1.86,1.81,2.8,1,1.66,1.56,2.49c1.18,1.92,2.31,3.86,3.41,5.82a177.19,177.19,0,0,1,9.26,19c.77,1.83,1.5,3.68,2.21,5.54.56,1.51,1.11,3,1.63,4.54.31.87.61,1.75.89,2.63a178.7,178.7,0,0,1,8.1,38.24c.27,2.8.49,5.62.63,8.46,0,.64.08,1.3.1,1.95,0,.83.06,1.67.09,2.51,0,.2,0,.4,0,.6C403.79,177.82,403.8,179.34,403.8,180.87Z"></path></g><path class="cls-97" d="M128,270.18v61.51a2.93,2.93,0,0,1-.28,1.25c-.9-.56-1.78-1.14-2.65-1.71s-1.47-1-2.21-1.49l-.73-.5V270.18a2.94,2.94,0,1,1,5.87,0Z"></path><path class="cls-97" d="M51.27,137.16s-13,3.07-11,14.52S74.14,257.74,74.14,257.74s6.9,12.44,21.3,12.44h65.17s8.55-2.64,7.57-9.5-10.25-27.94-10.25-27.94Z"></path><path class="cls-98" d="M127.66,144.17s28.89,32,30.14,32,28.84-10.59,30.51-10.83,9.4,1.84,9.82,8.11-1.68,8.4-5,6.92a20.41,20.41,0,0,1-6.06-4.62s-2.92,5.34-6.47,5.49a6.43,6.43,0,0,1-5.23-1.94L125.21,194l-7.52-43.88Z"></path><polygon class="cls-99" points="129.61 177.29 139.91 149.6 156.82 158.46 156.82 144.17 158.72 144.17 160.61 161.57 145.11 184.2 129.61 177.29"></polygon><path class="cls-100" d="M268.36,355.49a178.19,178.19,0,0,1-28.49,4.79L167,265.79l-11.78-15.28s-41.67,2.34-56.66-3c-8.2-2.92-13.63-13.06-16.87-21.64h0a91.35,91.35,0,0,1-3.86-13.14v0l37.1-18.56,1.25-.62,2.72-1.36,5.81-1.43,10.62-2.62c17.21-4.28,44.23-11.09,62.6-16.14,2-.54,3.87-1.07,5.63-1.57,27.34-7.76,52-1.91,55.67,20.19,2.91,17.52-27.55,44.54-40.25,55-3.31,2.71-5.41,4.29-5.41,4.29l3.57,6.89Z"></path><path class="cls-101" d="M100.73,122.81s9.2-2.85,14.89,2.22,14,17.53,14,17.53l-8,6.61s7.38,11.53,2.77,23.22a97.67,97.67,0,0,1-10.15,19.37l4.77,4.46-39.51,22.6L65.53,169l-17.29-2.59s1.42-21.25,9.72-29.7S100.73,122.81,100.73,122.81Z"></path><path class="cls-98" d="M62.55,58.67a29.74,29.74,0,0,1,7.38-3c4-.95,18-2.21,18-2.21s16.24,31.75,10.65,41.77-11.49,10.23-11.49,10.23,3.79,16,5.38,17.3,8.22,0,8.22,0,1.69,17-7.7,17.09-22.89-8.76-22.89-8.76l6.65-2.42s-13.19-28.17-17-34.29S56.22,77.66,57,76.29,62.55,58.67,62.55,58.67Z"></path><path class="cls-102" d="M89.31,90.43a.2.2,0,0,1-.2-.16.21.21,0,0,1,.14-.26s2.22-.66,2.84-1.72c.43-.89-3-14.8-5.18-23.35a.21.21,0,1,1,.4-.11c1,3.75,5.82,22.51,5.14,23.67s-3,1.89-3.08,1.92Z"></path><path class="cls-103" d="M81.61,84.57c-2.45,0-4.44-3-4.44-6.68s2-6.67,4.44-6.67,4.44,3,4.44,6.67S84.06,84.57,81.61,84.57Zm0-12.51c-2,0-3.6,2.62-3.6,5.83s1.61,5.84,3.6,5.84,3.6-2.62,3.6-5.84S83.6,72.06,81.61,72.06Z"></path><path class="cls-103" d="M95.44,83.68C93,83.68,91,80.68,91,77s2-6.68,4.44-6.68,4.45,3,4.45,6.68S97.89,83.68,95.44,83.68Zm0-12.52c-2,0-3.6,2.62-3.6,5.84s1.62,5.84,3.6,5.84,3.61-2.62,3.61-5.84S97.43,71.16,95.44,71.16Z"></path><rect class="cls-103" x="85.6" y="77.03" width="5.86" height="0.84" transform="translate(-10.78 14.41) rotate(-8.78)"></rect><path class="cls-102" d="M90.52,96.91a8.87,8.87,0,0,1-8.09-4.5.21.21,0,1,1,.38-.18,8.42,8.42,0,0,0,7.71,4.26h0a.22.22,0,0,1,.21.21A.23.23,0,0,1,90.52,96.91Z"></path><path class="cls-97" d="M87.13,105.51a24.89,24.89,0,0,1-10.79-2.67c-4.83-2.7-5.06-3-5.06-3A50.47,50.47,0,0,0,80.05,111a30.44,30.44,0,0,0,10.33,6.64Z"></path><path class="cls-102" d="M60.46,78.88S61.72,73,68,75s9.36-2.39,10.65-6.32a24.65,24.65,0,0,1,5.36-9.55c3.09-3.79,3.06-5.49,3.06-5.49a80,80,0,0,1,5.21,9.33,52.87,52.87,0,0,1,2.26,6.76s5.9-5.4,3.23-8.35-2.37-.85-4.77-5.9c-2.61-5.49-10.25-6.32-18.4-4.21S58.92,53.6,52.46,64.49s-22,39.67-19.66,59.89,17.41,17.55,22,25.28,17.72,15.58,26,8.42,5.55-15.45,6.28-23.87-4.61-16.85-9.52-18.68S72.4,99.1,70.15,95.31s-3.23-5.09-3.23-5.09S57.93,89,60.46,78.88Z"></path><rect class="cls-104" x="65.53" y="86.93" width="1.27" height="12.5" rx="0.61"></rect><path class="cls-98" d="M51.27,166.87l25.87,3.55L82,195.48S120.94,170.35,126.1,168s6.8-1.16,6.8-1.16l-2.67,9.68s12.05-3.36,12.74-3.18,1.89,4.38-.34,6.19-2.67-.43-3.79,2.93-7.2,10.16-11.1,13.58-43.66,35.06-55.2,30.79S51.64,182.7,51.27,166.87Z"></path><path class="cls-102" d="M134.57,181.49a.2.2,0,0,1-.2-.18.21.21,0,0,1,.17-.24l6.06-.87a.2.2,0,0,1,.24.18.2.2,0,0,1-.17.23l-6.07.88Z"></path><path class="cls-102" d="M77.14,170.63a.22.22,0,0,1-.2-.14l-3-8.07a.21.21,0,0,1,.13-.27.22.22,0,0,1,.27.12l3,8.07a.21.21,0,0,1-.12.27Z"></path><path class="cls-102" d="M77.77,170.63h0c-.81-.2-20-4.89-20.46-5a.21.21,0,0,1-.13-.27.2.2,0,0,1,.26-.13c.36.12,13.52,3.34,20.43,5a.21.21,0,0,1,.16.26A.23.23,0,0,1,77.77,170.63Z"></path><path class="cls-102" d="M121.61,149.38h0a.22.22,0,0,1-.18-.1L110.62,132a.21.21,0,1,1,.35-.23l10.65,17c1.9-2.92,4.73-7.38,5-8.16a.21.21,0,0,1,.1-.27.28.28,0,0,1,.29.05c.13.15.32.35-5.25,8.89A.21.21,0,0,1,121.61,149.38Z"></path><path class="cls-97" d="M213.17,250.1c-10.82-14.15-27.28-35.48-28.29-36.26-1-.41-33.41-9.22-50.42-13.81l.22-.81c5.08,1.37,49.65,13.41,50.62,13.9s22.09,28,28.54,36.47Z"></path><polygon class="cls-97" points="156.82 144.91 153.15 145.58 154.98 155.07 143.92 148.26 141.77 150.58 156.82 158.46 156.82 144.91"></polygon><path class="cls-102" d="M87.11,184.41a.23.23,0,0,1-.2-.13A.21.21,0,0,1,87,184c.21-.09,21.18-8.76,25.4-11a.21.21,0,0,1,.29.09.21.21,0,0,1-.09.28c-4.25,2.25-25.23,10.93-25.44,11A.12.12,0,0,1,87.11,184.41Z"></path><path class="cls-102" d="M72.45,208.94a.19.19,0,0,1-.12,0,.22.22,0,0,1,0-.29l9.56-13.25a.21.21,0,0,1,.3-.05.21.21,0,0,1,0,.29l-9.56,13.26A.21.21,0,0,1,72.45,208.94Z"></path><path class="cls-105" d="M191.14,220.89s21.92,4.26,26.48,17.94-4.12,24.51-4.12,24.51Z"></path><rect class="cls-97" x="181.55" y="195.59" width="55.04" height="0.84" transform="translate(-70.3 259.88) rotate(-56.03)"></rect><path class="cls-97" d="M333.83,323.75l-2.05,1.54-2.67,4.2-1-1.53L252.25,211.22l-5.31-8.17a3.66,3.66,0,0,1-.48-1.16,3.54,3.54,0,0,1,6.42-2.7l1.75,2.7,1.63,2.51,77,118.52Z"></path><path class="cls-97" d="M421.32,198l-2.46,3.86-20.33,31.88-4.48,7L350.3,309.43a182.44,182.44,0,0,1-16.47,14.32l-2.05,1.54,1.51-2.37,66.76-104.7.48-.76,9.93-15.57,4.89-7.67a3.54,3.54,0,0,1,6,3.81Z"></path><rect class="cls-99" x="233.06" y="190.35" width="199.71" height="11.53" rx="3.97"></rect><polygon class="cls-101" points="422.83 121.91 333.04 121.91 314.62 175.7 404.41 175.7 422.83 121.91"></polygon><path class="cls-97" d="M314.62,175.7,312,183.36a5.27,5.27,0,0,0,5,7h78.63a5.26,5.26,0,0,0,5-3.57l3.8-11.08Z"></path><path class="cls-97" d="M423.89,118.82a5.28,5.28,0,0,0-5-7H340.27a5.3,5.3,0,0,0-5,3.57L333,121.91h89.79Z"></path><rect class="cls-97" x="253.43" y="184.55" width="146.48" height="5.81" rx="2.02"></rect><rect class="cls-99" x="235.05" y="99.35" width="52.31" height="29.7"></rect><path class="cls-97" d="M261.88,123.35a.23.23,0,0,1-.16-.06L235.61,99.53a.23.23,0,0,1,0-.33.24.24,0,0,1,.33,0l26,23.62,25.33-23.62a.23.23,0,0,1,.31.34L262,123.28A.28.28,0,0,1,261.88,123.35Z"></path><path class="cls-97" d="M235.05,129.28a.2.2,0,0,1-.17-.08.22.22,0,0,1,0-.32l17-14.85a.23.23,0,0,1,.33,0,.25.25,0,0,1,0,.33l-17,14.85A.2.2,0,0,1,235.05,129.28Z"></path><path class="cls-97" d="M287.36,129.28a.19.19,0,0,1-.14-.05c-6.51-5.27-16.36-13.18-17.13-13.59a.21.21,0,0,1-.12-.07.23.23,0,0,1,0-.33c.2-.19.34-.3,17.53,13.63a.23.23,0,0,1-.15.41Z"></path><circle class="cls-97" cx="235.05" cy="99.12" r="10.92"></circle><path class="cls-106" d="M228.58,103.44v-.76l1-.93c2.32-2.22,3.37-3.39,3.38-4.76a1.62,1.62,0,0,0-1.8-1.78,3.08,3.08,0,0,0-1.93.77l-.4-.87a4,4,0,0,1,2.58-.92,2.55,2.55,0,0,1,2.78,2.64c0,1.68-1.21,3-3.13,4.89l-.73.67v0h4.09v1Z"></path><path class="cls-106" d="M239.56,103.44V101h-4.22v-.81l4.06-5.81h1.33V100H242v1h-1.27v2.48Zm0-3.44V97c0-.48,0-.95.05-1.43h-.05c-.28.53-.5.92-.75,1.34l-2.23,3.1v0Z"></path><path class="cls-105" d="M408.78,56.74a4.63,4.63,0,0,0-4.63-4.63H337.66A4.63,4.63,0,0,0,333,56.74v3.82h75.75Z"></path><path class="cls-99" d="M333,60.56V86.72a4.63,4.63,0,0,0,4.63,4.63h66.49a4.63,4.63,0,0,0,4.63-4.63V60.56Z"></path><rect class="cls-100" x="343.72" y="67.81" width="56.48" height="3.11" rx="1.21"></rect><rect class="cls-100" x="343.72" y="74.4" width="56.48" height="3.11" rx="1.21"></rect><rect class="cls-100" x="343.72" y="81" width="56.48" height="3.11" rx="1.21"></rect><rect class="cls-100" x="267.5" y="153.69" width="37.31" height="9.54" rx="3.28"></rect><circle class="cls-99" cx="277.11" cy="158.46" r="2.06"></circle><circle class="cls-99" cx="285.06" cy="158.46" r="2.06"></circle><circle class="cls-99" cx="293.01" cy="158.46" r="2.06"></circle><circle class="cls-99" cx="265.1" cy="30.29" r="30.29"></circle><polygon class="cls-99" points="288.28 35.97 301.18 60.58 281.15 48.27 288.28 35.97"></polygon><rect class="cls-101" x="251.07" y="20.68" width="28.86" height="4.09" rx="1.41"></rect><rect class="cls-101" x="251.07" y="28.25" width="28.86" height="4.09" rx="1.41"></rect><rect class="cls-101" x="251.07" y="35.82" width="28.86" height="4.09" rx="1.41"></rect><path class="cls-99" d="M370.91,155.57a6.77,6.77,0,1,1,6.76-6.77A6.78,6.78,0,0,1,370.91,155.57Zm0-12.85A6.09,6.09,0,1,0,377,148.8,6.09,6.09,0,0,0,370.91,142.72Z"></path><circle class="cls-101" cx="164.75" cy="105.45" r="17.53"></circle><polygon class="cls-101" points="155.24 117.63 148.13 132.19 164.75 117.63 155.24 117.63"></polygon><polygon class="cls-99" points="164.75 100.09 171.31 96.64 170.06 103.94 175.36 109.11 168.03 110.17 164.75 116.81 161.48 110.17 154.15 109.11 159.45 103.94 158.2 96.64 164.75 100.09"></polygon><path class="cls-97" d="M339.68,45.9a3.18,3.18,0,0,1-.26,1,2.44,2.44,0,0,1-.58.83,2.7,2.7,0,0,1-.92.54,3.68,3.68,0,0,1-1.25.2,3.11,3.11,0,0,1-1.28-.26,2.68,2.68,0,0,1-1-.73,3.13,3.13,0,0,1-.62-1.14,4.73,4.73,0,0,1-.22-1.5v-.63a4.73,4.73,0,0,1,.22-1.5,3.25,3.25,0,0,1,.64-1.14,2.8,2.8,0,0,1,1-.74,3.22,3.22,0,0,1,1.31-.26,3.49,3.49,0,0,1,1.21.2,2.58,2.58,0,0,1,.89.55,2.38,2.38,0,0,1,.58.84,3.24,3.24,0,0,1,.26,1.06h-1.33a2.57,2.57,0,0,0-.14-.66,1.59,1.59,0,0,0-.29-.49,1.21,1.21,0,0,0-.48-.31,2.11,2.11,0,0,0-.7-.1,1.69,1.69,0,0,0-.8.17,1.57,1.57,0,0,0-.57.49,2.54,2.54,0,0,0-.34.8,5.05,5.05,0,0,0-.11,1.08v.64a4.77,4.77,0,0,0,.1,1,2.68,2.68,0,0,0,.31.81,1.52,1.52,0,0,0,.55.52,1.62,1.62,0,0,0,.79.18,2.22,2.22,0,0,0,.73-.1,1.2,1.2,0,0,0,.5-.3,1.31,1.31,0,0,0,.3-.48,2.83,2.83,0,0,0,.15-.65Z"></path><path class="cls-97" d="M347.55,44.76a5,5,0,0,1-.23,1.57,3.53,3.53,0,0,1-.65,1.18,2.81,2.81,0,0,1-1,.74,3.36,3.36,0,0,1-2.59,0,2.84,2.84,0,0,1-1-.74,3.55,3.55,0,0,1-.66-1.18,4.75,4.75,0,0,1-.24-1.57v-.39a4.79,4.79,0,0,1,.24-1.57,3.44,3.44,0,0,1,.65-1.18,2.87,2.87,0,0,1,1-.75,3.36,3.36,0,0,1,2.59,0,2.87,2.87,0,0,1,1,.75,3.44,3.44,0,0,1,.65,1.18,5.08,5.08,0,0,1,.23,1.57Zm-1.34-.4a4.86,4.86,0,0,0-.12-1.14,2.29,2.29,0,0,0-.36-.82,1.69,1.69,0,0,0-.59-.51,1.85,1.85,0,0,0-1.55,0,1.66,1.66,0,0,0-.58.51,2.3,2.3,0,0,0-.37.82,4.36,4.36,0,0,0-.13,1.14v.4a4.36,4.36,0,0,0,.13,1.14,2.35,2.35,0,0,0,.37.83,1.69,1.69,0,0,0,.59.51,1.77,1.77,0,0,0,.77.17,1.59,1.59,0,0,0,1.37-.68,3.45,3.45,0,0,0,.47-2Z"></path><path class="cls-97" d="M355,40.72v5.14a2.74,2.74,0,0,1-.23,1.15,2.33,2.33,0,0,1-.61.83,2.64,2.64,0,0,1-.92.5,3.63,3.63,0,0,1-1.11.17,3.8,3.8,0,0,1-1.15-.17,2.6,2.6,0,0,1-.91-.5,2.43,2.43,0,0,1-.6-.83,2.91,2.91,0,0,1-.21-1.15V40.72h1.32v5.14a2.16,2.16,0,0,0,.11.71,1.42,1.42,0,0,0,.31.49,1.28,1.28,0,0,0,.49.29,2.11,2.11,0,0,0,.64.09,2.2,2.2,0,0,0,.64-.09,1.17,1.17,0,0,0,.48-.29,1.29,1.29,0,0,0,.31-.49,2.16,2.16,0,0,0,.11-.71V40.72Z"></path><path class="cls-97" d="M359.82,45.44h-1.48v3H357V40.72h2.7a4.28,4.28,0,0,1,1.18.15,2.55,2.55,0,0,1,.87.44,1.86,1.86,0,0,1,.54.73,2.58,2.58,0,0,1,.19,1,2.23,2.23,0,0,1-.37,1.29,2.41,2.41,0,0,1-1,.8l1.72,3.2v.07h-1.43Zm-1.48-1.07h1.37a1.89,1.89,0,0,0,.62-.09,1.42,1.42,0,0,0,.45-.27,1,1,0,0,0,.27-.4,1.36,1.36,0,0,0,.09-.51,1.8,1.8,0,0,0-.08-.54,1.05,1.05,0,0,0-.71-.67,2,2,0,0,0-.65-.09h-1.36Z"></path><path class="cls-97" d="M368.3,46.42a1.07,1.07,0,0,0-.07-.41,1,1,0,0,0-.25-.34,2.06,2.06,0,0,0-.5-.29,8.17,8.17,0,0,0-.82-.29,8.05,8.05,0,0,1-1-.38,3.41,3.41,0,0,1-.79-.49,2,2,0,0,1-.53-.64,1.72,1.72,0,0,1-.19-.83,1.91,1.91,0,0,1,.2-.86,2.08,2.08,0,0,1,.55-.67,2.81,2.81,0,0,1,.86-.45,3.92,3.92,0,0,1,1.11-.16,3.54,3.54,0,0,1,1.17.19,2.85,2.85,0,0,1,.87.51,2.24,2.24,0,0,1,.55.75,2.27,2.27,0,0,1,.19.9H368.3a1.4,1.4,0,0,0-.09-.51,1.13,1.13,0,0,0-.27-.41,1.42,1.42,0,0,0-.45-.27,2.08,2.08,0,0,0-.65-.09,2.2,2.2,0,0,0-.61.08,1.24,1.24,0,0,0-.43.22.91.91,0,0,0-.25.34,1,1,0,0,0-.08.42.83.83,0,0,0,.4.71,4.27,4.27,0,0,0,1.23.53,7.81,7.81,0,0,1,1.12.42,3.2,3.2,0,0,1,.79.53,1.78,1.78,0,0,1,.47.66,2.14,2.14,0,0,1,.15.82,1.93,1.93,0,0,1-.19.88,2,2,0,0,1-.55.66,2.45,2.45,0,0,1-.86.41,4,4,0,0,1-1.13.15,4,4,0,0,1-1.09-.15,3.21,3.21,0,0,1-1-.46,2.48,2.48,0,0,1-.69-.75,2.17,2.17,0,0,1-.26-1.07h1.34a1.32,1.32,0,0,0,.13.62,1.06,1.06,0,0,0,.35.43,1.73,1.73,0,0,0,.53.25,2.73,2.73,0,0,0,.66.07,1.66,1.66,0,0,0,1.05-.28A.93.93,0,0,0,368.3,46.42Z"></path><path class="cls-97" d="M375.83,45h-3.15v2.37h3.69V48.4h-5V40.72h5V41.8h-3.65v2.12h3.15Z"></path><path class="cls-97" d="M384.49,48.4h-1.28V42.23l-1.88.65V41.8l3-1.11h.16Z"></path></g></svg> 